<?xml version="1.0" encoding="UTF-8" standalone="no"?>
<svg
   xmlns:dc="http://purl.org/dc/elements/1.1/"
   xmlns:cc="http://creativecommons.org/ns#"
   xmlns:rdf="http://www.w3.org/1999/02/22-rdf-syntax-ns#"
   xmlns:svg="http://www.w3.org/2000/svg"
   xmlns="http://www.w3.org/2000/svg"
   xmlns:sodipodi="http://sodipodi.sourceforge.net/DTD/sodipodi-0.dtd"
   xmlns:inkscape="http://www.inkscape.org/namespaces/inkscape"
   id="svg8"
   version="1.1"
   viewBox="0 0 370.41668 97.895833"
   height="370"
   width="1400"
   sodipodi:docname="background-projects.svg"
   inkscape:version="0.92.5 (2060ec1f9f, 2020-04-08)">
  <sodipodi:namedview
     pagecolor="#ffffff"
     bordercolor="#666666"
     borderopacity="1"
     objecttolerance="10"
     gridtolerance="10"
     guidetolerance="10"
     inkscape:pageopacity="0"
     inkscape:pageshadow="2"
     inkscape:window-width="1920"
     inkscape:window-height="1030"
     id="namedview76"
     showgrid="false"
     inkscape:zoom="0.57036607"
     inkscape:cx="784.66783"
     inkscape:cy="32.86869"
     inkscape:window-x="0"
     inkscape:window-y="0"
     inkscape:window-maximized="1"
     inkscape:current-layer="svg8"
     units="px" />
  <defs
     id="defs2" />
  <metadata
     id="metadata5">
    <rdf:RDF>
      <cc:Work
         rdf:about="">
        <dc:format>image/svg+xml</dc:format>
        <dc:type
           rdf:resource="http://purl.org/dc/dcmitype/StillImage" />
        <dc:title></dc:title>
      </cc:Work>
    </rdf:RDF>
  </metadata>
  <g
     transform="matrix(0.9827381,0,0,0.97895833,18.520834,-192.8548)"
     id="layer1">
    <path
       id="path25"
       d="m 0.05935526,296.75799 c 0,-0.13312 0.65564124,-1.21469 1.45698184,-2.40349 l 1.4569819,-2.16149 v -1.6842 -1.68424 L 2.0650792,286.76148 C 1.565549,285.6268 0.89655054,283.6955 0.57841922,282.46974 L 0,280.24108 l 0.18055482,-1.87187 0.18055182,-1.87186 0.89091566,-1.86028 0.8909157,-1.8603 1.6217795,-1.76751 1.6217805,-1.76751 2.0385088,-1.24976 c 1.1211771,-0.68739 2.0809225,-1.27977 2.1327677,-1.31644 0.051843,-0.0366 -0.2721143,-0.57984 -0.7199055,-1.20709 -0.8918799,-1.24928 -2.1558678,-4.37214 -2.1558678,-5.32634 0,-0.33135 0.1222699,-0.72455 0.2717118,-0.87378 l 0.2717088,-0.27136 1.7813118,0.23394 1.7813084,0.23394 1.799848,1.08014 1.799847,1.08013 1.114117,1.30794 c 0.612764,0.71936 1.551925,1.80301 2.087024,2.40807 l 0.972909,1.10013 0.190531,-0.19027 0.190534,-0.19028 -0.354691,-1.65999 -0.35469,-1.65999 -0.01404,-2.42431 -0.01404,-2.42429 0.210727,-0.21119 0.210727,-0.21119 0.514169,0.32069 c 0.282792,0.17635 0.690838,0.32066 0.906768,0.32066 h 0.392596 L 21.465534,259.5 c 1.455594,1.97203 4.024768,8.27672 4.024768,9.87664 v 0.61405 l 1.268682,1.26921 c 1.510398,1.51103 2.718077,3.55271 3.475928,5.87639 l 0.553507,1.69712 v 1.55908 c 0,2.06735 -0.458091,4.99828 -1.082964,6.92899 l -0.506471,1.56484 v 1.34993 1.34992 l 0.69218,1.01727 c 0.828973,1.21831 2.221784,3.82545 2.221784,4.15886 V 297 H 16.08615 0.05934525 v -0.24201 z m 8.42244824,-0.82342 c 0.4344299,-0.35978 1.0534245,-1.10058 1.3755427,-1.64621 0.3221198,-0.54563 0.7080028,-0.99207 0.8575238,-0.99207 h 0.271852 l -0.163402,0.81593 c -0.08987,0.44873 -0.411258,1.16353 -0.714194,1.58839 l -0.5507949,0.77249 0.368807,0.14132 c 0.2028409,0.0777 1.5493469,0.107 2.9922309,0.0651 l 2.623426,-0.0763 0.202749,-1.19047 c 0.111512,-0.65476 0.288577,-1.36905 0.393478,-1.5873 l 0.190726,-0.39683 0.14311,1.5873 0.143114,1.5873 2.746763,0.0758 2.746761,0.0758 -0.147878,-0.73712 c -0.08133,-0.40543 -0.2286,-1.06449 -0.327264,-1.46463 l -0.179387,-0.72751 h 0.363846 0.363848 l 0.53684,1.38888 0.536836,1.38889 3.280708,0.0746 3.280709,0.0747 0.206621,-0.20693 0.206622,-0.20691 -0.772522,-1.32275 c -1.898861,-3.25132 -2.128222,-4.10206 -1.730251,-6.4178 l 0.193646,-1.12678 -0.70435,0.26744 -0.704348,0.26743 -0.607808,-0.15235 -0.607808,-0.15236 -0.63211,-1.35325 -0.632111,-1.35325 0.02998,-2.00014 0.02998,-2.0001 0.577755,-1.21948 0.577751,-1.21946 0.66304,-0.3017 c 0.912204,-0.41507 1.735969,-0.37778 2.433508,0.11014 l 0.588756,0.41182 -0.004,-0.47796 c -0.0052,-0.61755 -0.526983,-2.03963 -1.260279,-3.43447 -0.98794,-1.87924 -4.307597,-4.98709 -6.971088,-6.52633 -1.534272,-0.88667 -1.643195,-0.87928 -1.095229,0.0742 l 0.446291,0.77659 -0.224774,0.21547 -0.224776,0.2155 -0.300061,-0.49807 c -0.165036,-0.27391 -1.074914,-1.30568 -2.021953,-2.2928 -0.947038,-0.98712 -2.116296,-2.28116 -2.598349,-2.87563 -0.8118,-1.00111 -2.962297,-2.60992 -4.571961,-3.42032 l -0.6801188,-0.34241 -0.9482835,0.085 -0.9482835,0.085 0.5372521,1.19047 c 1.1367059,2.51876 1.5894911,3.32919 2.2171307,3.96826 0.891855,0.90812 2.866072,3.94462 2.683302,4.12717 -0.28067,0.28028 -1.206731,-0.41739 -1.776866,-1.33862 l -0.570506,-0.92189 -1.0373404,0.65397 c -0.5705386,0.35969 -1.1589179,0.65397 -1.3075118,0.65397 -0.148594,0 -0.27017,0.11103 -0.27017,0.24672 0,0.13569 -0.2539331,0.32723 -0.564297,0.42558 -0.3103639,0.0984 -1.3411118,0.9695 -2.2905507,1.93582 l -1.7262537,1.75696 -0.7486375,1.5873 -0.7486374,1.58731 -0.3109035,2.09433 -0.3109016,2.09436 0.335074,1.34479 c 0.1842894,0.73966 0.7974569,2.30075 1.3625939,3.46908 0.994613,2.05624 1.8236433,4.64066 1.8236433,5.68505 0,0.70688 -1.1243269,3.08434 -2.0806151,4.39961 -0.4389995,0.6038 -0.7247214,1.17116 -0.6349401,1.26081 0.089789,0.0897 1.3819746,0.12813 2.8715351,0.0855 l 2.7082913,-0.0776 0.7898727,-0.65419 z m 10.2322115,-8.4145 -0.815917,-0.51052 -0.493952,-1.02328 -0.493952,-1.02331 -0.108224,-1.59823 -0.108228,-1.59825 0.578616,-1.22928 0.578615,-1.22932 0.638797,-0.41799 c 0.351337,-0.22989 1.167859,-0.49039 1.814491,-0.57891 l 1.175698,-0.16092 0.646242,0.69637 0.646241,0.69634 0.163945,0.99054 c 0.247507,1.49534 0.199461,4.04777 -0.09621,5.11068 l -0.263026,0.94556 -0.624679,0.58609 -0.624683,0.58605 -0.898928,0.13445 -0.898933,0.13444 z m 1.863677,-0.73732 c 0.23585,-0.0904 0.615262,-0.52439 0.843132,-0.96444 l 0.41431,-0.80011 -0.821624,-0.64214 c -0.969993,-0.75813 -2.145839,-2.65998 -2.145839,-3.47075 0,-0.95571 -0.491032,-0.64007 -0.802752,0.51601 l -0.293359,1.08799 0.170006,1.09455 c 0.218801,1.40873 0.820119,2.72574 1.398109,3.0622 0.545582,0.31756 0.680625,0.33029 1.238017,0.11669 z m 7.132884,-1.00849 c 0.829283,-1.08579 0.832792,-1.11008 0.184708,-1.27934 l -0.509001,-0.13294 -0.543604,-1.06413 c -0.298984,-0.58525 -0.623155,-1.56089 -0.720375,-2.16807 l -0.17677,-1.10396 -0.210114,0.33952 c -0.36618,0.5917 -0.566449,2.82921 -0.376609,4.20767 l 0.183116,1.32964 0.390476,0.38994 c 0.597813,0.59701 1.020405,0.47384 1.778173,-0.51833 z m -4.505712,-19.48447 c -0.850946,-2.71918 -1.360581,-3.75122 -2.804741,-5.67971 l -1.117773,-1.49264 -0.109997,0.32954 c -0.220651,0.66106 0.890076,6.25863 1.365928,6.88368 0.349645,0.45929 3.153151,2.39526 3.282102,2.26648 0.04465,-0.0446 -0.232333,-1.0829 -0.615519,-2.30735 z M 298.87316,296.4709 v -0.5291 h -1.45697 -1.45698 v -0.79365 -0.79365 h 0.79471 0.79472 v -1.45503 -1.45503 h -0.79472 -0.79471 v -0.66137 -0.66138 h 0.79471 0.79472 v -2.91005 -2.91005 h -0.79472 -0.79471 v -0.79365 -0.79365 h 0.79471 0.79472 v -0.66138 -0.66138 h -1.45698 -1.45699 v -0.79365 -0.79365 h 0.66227 0.66227 v -0.66138 -0.66137 h 0.79471 0.79472 v -2.24867 -2.24868 h -0.79472 -0.79471 v -1.45503 -1.45503 h -0.66227 -0.66227 v -2.11639 -2.11641 h -0.79471 -0.79472 v -2.91006 -2.91004 h -0.66227 -0.66226 v -2.91006 -2.91006 h 0.66226 0.66227 v -0.79365 -0.79365 h 0.79472 0.79471 v -0.66137 -0.66138 h -0.79471 -0.79472 v -2.24867 -2.24868 h 0.79472 0.79471 v -0.66138 -0.66137 h 0.66227 0.66227 v -2.91006 -2.91005 h -0.66227 -0.66227 v -0.79365 -0.79365 h 0.66227 0.66227 v -1.45503 -1.45502 h 0.79471 0.79472 v -3.57143 -3.57143 h -0.79472 -0.79471 v -0.79365 -0.79365 h 0.79471 0.79472 v -0.66138 -0.66138 h -0.79472 -0.79471 v -2.91004 -2.91006 h -0.66227 -0.66227 v -0.79365 -0.79365 h 0.66227 0.66227 v -2.91006 -2.91004 h 0.79471 0.79472 v -1.45503 -1.45503 h -0.79472 -0.79471 v 0.79365 0.79365 h -0.66227 -0.66227 v -0.79365 -0.79365 h 0.66227 0.66227 v -1.45503 -1.45503 h 0.79471 0.79472 v -1.45502 -1.45502 h 0.66227 0.66225 v -1.45503 -1.45503 h 0.79472 0.79472 v -0.66138 -0.66137 h 0.66227 0.66226 v -0.79365 -0.79366 h 5.16567 5.16566 v 0.79366 0.79365 h 1.45698 1.45699 v -0.79365 -0.79366 h 1.45698 1.45698 V 197.66137 197 h 2.11925 2.11925 v 0.66137 0.66137 h 2.91395 2.91397 v 0.79366 0.79365 h 1.45698 1.45699 v 0.66137 0.66138 h 1.45698 1.45699 v 0.79365 0.79365 h 0.79471 0.79472 v 0.66138 0.66138 h 0.66226 0.66226 v 0.79365 0.79365 h 0.79472 0.79472 v 1.45502 1.45502 h 0.66227 0.66226 v 2.91006 2.91006 h 0.79472 0.79472 v 6.48148 6.48148 h -0.79472 -0.79472 v 4.36508 4.36508 h -0.66226 -0.66227 v -0.66138 -0.66138 h -0.79472 -0.79472 v 1.45503 1.45503 h 1.45699 1.45698 v 0.66137 0.66138 h 0.79472 0.79472 v 0.79365 0.79365 h 0.66226 0.66227 v 0.66138 0.66137 h 0.79472 0.79471 v 1.45503 1.45502 h 0.66226 0.66227 v 2.24868 2.24868 h 0.79471 0.79472 v 2.91005 2.91005 h 0.66227 0.66226 v 2.11641 2.11641 H 349.20528 350 v 1.45501 1.45503 h -0.79472 -0.79472 v 0.79365 0.79365 h -0.66226 -0.66227 v 0.66138 0.66138 h -1.45698 -1.45698 v 0.79365 0.79365 h -0.79471 -0.79472 v 0.66138 0.66137 h -0.66227 -0.66226 v 0.79366 0.79365 h -0.79472 -0.79472 v 0.66136 0.66138 h -1.45698 -1.45699 v 0.79365 0.79365 h -0.66226 -0.66226 v 0.66138 0.66138 h -0.79472 -0.79471 v 0.79365 0.79365 h -0.66227 -0.66227 v 1.45503 1.45502 h 0.66227 0.66227 v 0.66137 0.66138 h 0.79471 0.79472 v 0.79365 0.79365 h -2.2517 -2.2517 v 1.45503 1.45503 h 0.79472 0.79471 v 1.45503 1.45502 h -0.79471 -0.79472 v 1.45502 1.45503 h 0.79472 0.79471 v 1.45503 1.45503 h -0.79471 -0.79472 v 0.66137 0.66138 h 0.79472 0.79471 V 295.67725 297 h -0.79471 -0.79472 v -1.32275 -1.32275 h -2.11925 -2.11924 v 0.79365 0.79365 h -2.91397 -2.91397 V 296.4709 297 h -1.45698 -1.45698 v -0.5291 -0.5291 h -0.79472 -0.79472 V 296.4709 297 h -1.45697 -1.45699 v -1.98413 -1.98412 h -1.45698 -1.45699 v -0.79365 -0.79366 h -0.66226 -0.66227 v 1.45503 1.45503 h -0.79472 -0.79471 v 0.79365 0.79365 h -0.66226 -0.66227 V 296.4709 297 h -0.79471 -0.79472 v -0.5291 -0.5291 h -0.66227 -0.66226 v -0.79365 -0.79365 h -1.45699 -1.45698 v -0.66138 -0.66137 h -0.79472 -0.79472 v 1.45502 1.45503 h 1.45699 1.45698 V 296.4709 297 h -1.45698 -1.45699 z m 8.7419,-4.2328 v -2.11641 h -0.66226 -0.66227 v -0.79365 -0.79365 h 0.66227 0.66226 v -0.66138 -0.66137 h 0.79471 0.79472 v 1.45502 1.45503 h 2.91397 2.91397 v -0.79365 -0.79365 h 0.66226 0.66226 v -0.66138 -0.66137 h 0.79472 0.79472 v -0.79365 -0.79365 h 0.66226 0.66227 v 1.45502 1.45503 h 2.91397 2.91395 v 0.79365 0.79365 h -3.57622 -3.57623 v 2.11641 2.1164 h 4.37095 4.37095 v -0.66138 -0.66137 h 1.45697 1.45699 v -0.79365 -0.79366 h 0.66226 0.66227 v -0.66137 -0.66138 h -0.66227 -0.66226 v -0.79365 -0.79365 h -2.25171 -2.2517 v -0.66138 -0.66137 h 2.2517 2.25171 v -0.79365 -0.79365 h 0.66226 0.66227 v -0.66138 -0.66137 h -0.66227 -0.66226 v -1.45503 -1.45503 h -2.25171 -2.2517 v -0.79365 -0.79365 h 3.70869 3.70868 v -0.66138 -0.66137 h -4.37095 -4.37094 v -0.79365 -0.79365 h 3.57622 3.57624 v -0.66137 -0.66138 h 0.79472 0.79471 v -0.79365 -0.79365 h 0.66227 0.66227 v -0.66138 -0.66138 h 0.79471 0.79472 v -0.79365 -0.79365 h 0.66226 0.66226 v -0.66138 -0.66136 h 1.45699 1.45698 v -0.79365 -0.79366 h 0.79472 0.79472 v -0.66137 -0.66138 h 0.66226 0.66227 v -0.79365 -0.79365 h 0.79472 0.79471 v -0.66138 -0.66138 h 1.45698 1.45698 v -0.79365 -0.79365 h 0.66227 0.66226 v -0.66138 -0.66136 h -1.45698 -1.45698 v 0.66136 0.66138 h -3.57623 -3.57623 v 1.45503 1.45503 h -1.45698 -1.45698 v 0.79365 0.79365 h -0.79472 -0.79471 v 0.66138 0.66137 h -0.66227 -0.66227 v 1.45502 1.45503 h -0.79471 -0.79472 v 0.79365 0.79365 h -0.66227 -0.66226 v 0.66138 0.66138 h -3.70869 -3.70867 v 0.79365 0.79365 h -1.45699 -1.45698 v -0.79365 -0.79365 h -7.94718 -7.94717 v -0.66138 -0.66138 h -0.79472 -0.79472 v 0.66138 0.66138 h -0.66226 -0.66227 v -4.36509 -4.36507 h -0.79472 -0.79472 v -2.91006 -2.91004 h 0.79472 0.79472 v 1.45501 1.45503 h 0.66227 0.66226 v 0.79365 0.79365 h 4.37095 4.37094 v 0.66138 0.66138 h -3.57622 -3.57623 v 0.79365 0.79365 h 2.91396 2.91396 v 0.66138 0.66137 h -2.91396 -2.91396 v 1.45502 1.45503 h 13.11284 13.11284 v -0.66138 -0.66136 h -10.19888 -10.19888 v -0.79365 -0.79366 h 9.40416 9.40416 v -0.66137 -0.66138 h -8.74189 -8.7419 v -0.79365 -0.79365 h 5.16567 5.16566 v -0.66138 -0.66138 h 1.45699 1.45698 v 0.66138 0.66138 h 2.91397 2.91396 v -0.66138 -0.66138 h 0.66226 0.66227 v -0.79365 -0.79365 h 0.79472 0.79471 v -4.36507 -4.36509 h -0.79471 -0.79472 v -0.66137 -0.66138 h -0.66227 -0.66226 v -0.79365 -0.79365 h -2.91396 -2.91397 v -0.66137 -0.66138 h 2.11924 2.11925 v -0.79365 -0.79365 h 0.79472 0.79472 v -0.66138 -0.66137 h 0.66226 0.66227 v -2.24868 -2.24868 h 0.79472 0.79471 v -0.66137 -0.66138 h 1.45699 1.45698 v -1.45502 -1.45503 h -0.79472 -0.79471 v -0.79365 -0.79365 h -1.45699 -1.45698 v -0.66138 -0.66138 h 0.79472 0.79471 v -0.79365 -0.79365 h 0.66227 0.66227 v -2.1164 -2.1164 h 0.79471 0.79472 v -6.61375 -6.61377 h 0.66226 0.66226 v 5.15874 5.15872 h 0.79472 0.79472 v 0.66138 0.66138 h 0.66227 0.66226 v -6.48148 -6.48148 h -0.66226 -0.66227 v -2.91006 -2.91006 h -0.79472 -0.79472 v -1.45502 -1.45502 h -0.66226 -0.66226 v -0.79365 -0.79365 h -0.79472 -0.79471 v -0.66138 -0.66138 h -1.45699 -1.45698 v -0.79365 -0.79365 h -1.45699 -1.45698 v -0.66138 -0.66137 h -3.57622 -3.57624 v -0.79365 -0.79366 h -0.79471 -0.79472 v 0.79366 0.79365 h -1.45699 -1.45698 v 0.66137 0.66138 h -0.66226 -0.66226 v 0.79365 0.79365 h -0.79472 -0.79472 v -0.79365 -0.79365 h -0.66226 -0.66227 v -0.66138 -0.66137 h -2.91397 -2.91396 v 0.66137 0.66138 h -1.45698 -1.45698 v 0.79365 0.79365 h -0.79472 -0.79472 v -0.79365 -0.79365 h -0.66226 -0.66227 v 0.79365 0.79365 h 0.66227 0.66226 v 0.66138 0.66138 h -1.45698 -1.45699 v 0.79365 0.79365 h 0.79472 0.79472 v 0.66137 0.66137 h -0.79472 -0.79472 v 2.91006 2.91006 h -0.66225 -0.66227 v 5.8201 5.8201 h 0.66227 0.66225 v 5.82011 5.82011 h -0.66225 -0.66227 v 0.79365 0.79365 h 1.45699 1.45697 v -0.79365 -0.79365 h 0.66227 0.66226 v -5.02646 -5.02646 h 0.79472 0.79472 v 0.66138 0.66138 h 0.66226 0.66227 v 0.79365 0.79365 h 0.79472 0.79471 v 0.66138 0.66137 h 0.66227 0.66226 v 0.79365 0.79365 h 0.79471 0.79472 v 0.66138 0.66137 h 0.66227 0.66226 v 0.79365 0.79365 h 0.79472 0.79472 v 0.66138 0.66138 h 3.57623 3.57623 v 0.79365 0.79365 h -3.57623 -3.57623 v 0.66137 0.66138 h -3.70869 -3.70867 v 0.79365 0.79365 h -0.66227 -0.66226 v 2.91005 2.91006 h -0.79472 -0.79472 v 0.66137 0.66138 h 0.79472 0.79472 v -0.66138 -0.66137 h 2.11925 2.11924 v 0.66137 0.66138 h -1.45698 -1.45698 v 0.79365 0.79365 h -0.66227 -0.66226 v 0.66138 0.66137 h -0.79472 -0.79472 v 0.79365 0.79365 h -0.66226 -0.66227 v -2.91005 -2.91005 h -0.79472 -0.79472 v -0.79365 -0.79366 h 0.79472 0.79472 v -0.66137 -0.66138 h 0.66227 0.66226 v -2.24867 -2.24868 h -0.66226 -0.66227 v 0.79365 0.79365 h -0.79472 -0.79472 v 1.45503 1.45502 h -0.66225 -0.66227 v 1.45503 1.45503 h -0.79472 -0.79471 v 0.66137 0.66138 h -0.66227 -0.66227 v 1.45503 1.45502 h 0.66227 0.66227 v -0.66137 -0.66138 h 0.79471 0.79472 v 1.45503 1.45502 h 1.45699 1.45697 v 0.66138 0.66137 h -0.79472 -0.79472 v 2.91006 2.91006 h -0.66225 -0.66227 v -0.66138 -0.66138 h -0.79472 -0.79471 v -0.79365 -0.79365 h 0.79471 0.79472 v -1.45503 -1.45503 h -1.45698 -1.45699 v 0.79365 0.79365 h -0.79471 -0.79472 v 2.11641 2.11641 h 0.79472 0.79471 v 3.70369 3.70371 h 0.66227 0.66227 v 2.11641 2.11639 h 0.79471 0.79472 v 0.79365 0.79365 h 0.66227 0.66225 v 0.66138 0.66138 h 0.79472 0.79472 v 0.79365 0.79365 h -0.79472 -0.79472 v 0.66138 0.66137 h 0.79472 0.79472 v 0.79365 0.79365 h -1.45697 -1.45699 v 0.66137 0.66138 h 2.91396 2.91397 v 0.79365 0.79365 h -2.2517 -2.25171 v 0.66138 0.66138 h -0.66225 -0.66227 v 0.79365 0.79365 h 0.66227 0.66225 v 0.66137 0.66138 h 0.79472 0.79472 v 0.79365 0.79365 h -0.79472 -0.79472 v 2.1164 2.1164 h 0.79472 0.79472 v 0.79366 0.79365 h 1.45698 1.45699 v 0.66137 0.66138 h 2.11925 2.11924 z m -7.15246,-4.36509 v -0.66137 h 2.91397 2.91396 v -1.45502 -1.45503 h -0.79471 -0.79472 v -0.79365 -0.79365 h -0.66227 -0.66226 v -0.66138 -0.66138 h 0.66226 0.66227 v 0.66138 0.66138 h 0.79472 0.79471 v 0.79365 0.79365 h 0.66227 0.66226 v 1.45503 1.45502 h -0.66226 -0.66227 v 0.66137 0.66138 h -2.91396 -2.91397 z m 18.80832,-2.91005 v -0.66137 h 0.79472 0.79471 v -0.79365 -0.79365 h 0.66227 0.66227 v -0.66138 -0.66138 h 1.45698 1.45697 v 0.66138 0.66138 h -1.45697 -1.45698 v 0.79365 0.79365 h -0.66227 -0.66227 v 0.66137 0.66138 h -0.79471 -0.79472 z m -18.80832,-8.73015 v -0.66138 h 0.66227 0.66226 v -0.79365 -0.79365 h 0.79472 0.79472 v 0.79365 0.79365 h -0.79472 -0.79472 v 0.66138 0.66137 h -0.66226 -0.66227 z m 21.72229,0 v -0.66138 h 0.79471 0.79472 v 0.66138 0.66137 h -0.79472 -0.79471 z m -7.15246,-13.09525 v -0.79365 h -1.45699 -1.45698 v -0.66138 -0.66136 h -1.45698 -1.45699 v -0.79365 -0.79365 h 1.45699 1.45698 v 0.79365 0.79365 h 1.45698 1.45699 v 0.66136 0.66138 h 1.45698 1.45698 v -0.66138 -0.66136 h -0.79472 -0.79472 v -1.45503 -1.45503 h 0.79472 0.79472 v 0.66138 0.66138 h 0.66226 0.66227 v 1.45501 1.45503 h 0.79472 0.79471 v -0.66138 -0.66136 h 0.66227 0.66227 v -0.79365 -0.79365 h -0.66227 -0.66227 v -2.11641 -2.11641 h 1.45699 1.45698 v -0.79365 -0.79365 h 1.45698 1.45699 v 0.79365 0.79365 h 0.66225 0.66227 v 0.66138 0.66138 h 0.79472 0.79472 v 1.45503 1.45503 h -0.79472 -0.79472 v 0.79365 0.79365 h -2.91397 -2.91395 v 0.66136 0.66138 h -0.66227 -0.66227 v 0.79365 0.79365 h -2.91396 -2.91396 z m 12.98038,-5.15872 v -1.45503 h -0.66227 -0.66225 v 0.79365 0.79365 h -0.79473 -0.79472 v -1.45503 -1.45503 h -0.66225 -0.66227 v 0.66138 0.66138 h -0.79472 -0.79471 v 1.45503 1.45503 h 2.91395 2.91397 z m -33.37814,-2.11641 v -0.66138 h 0.66227 0.66227 v 0.66138 0.66138 h -0.66227 -0.66227 z m 18.80832,-1.45503 v -0.79365 h -1.45698 -1.45699 v -0.66137 -0.66138 h -1.45698 -1.45698 v -0.79365 -0.79365 h -1.45698 -1.45698 v -0.66137 -0.66138 h 1.45698 1.45698 v 0.66138 0.66137 h 1.45698 1.45698 v 0.79365 0.79365 h 1.45699 1.45698 v 0.66138 0.66137 h 0.79472 0.79472 v -0.66137 -0.66138 h 1.45698 1.45698 v -0.79365 -0.79365 h 2.91396 2.91397 v 0.79365 0.79365 h -2.91397 -2.91396 v 0.66138 0.66137 h -1.45698 -1.45698 v 0.79365 0.79365 h -0.79472 -0.79472 z m -15.89435,-6.48148 v -1.45502 h 0.66227 0.66225 v 1.45502 1.45503 h -0.66225 -0.66227 z m 15.89435,-0.79365 v -0.66137 h -2.91397 -2.91396 v -0.79365 -0.79366 h 2.91396 2.91397 v 0.79366 0.79365 h 3.70868 3.70868 v -0.79365 -0.79366 h 0.66227 0.66227 v -1.45502 -1.45503 h -0.66227 -0.66227 v 0.79365 0.79365 h -0.79471 -0.79472 v 0.66138 0.66137 h -1.45699 -1.45698 v -0.66137 -0.66138 h -0.66226 -0.66226 v -0.79365 -0.79365 h -0.79472 -0.79472 v -0.66137 -0.66138 h -0.66226 -0.66227 v -0.79365 -0.79365 h 0.66227 0.66226 v 0.79365 0.79365 h 0.79472 0.79472 v 0.66138 0.66137 h 0.66226 0.66226 v 0.79365 0.79365 h 1.45698 1.45699 v -0.79365 -0.79365 h 0.79472 0.79471 v -0.66137 -0.66138 h 0.66227 0.66227 v -0.79365 -0.79365 h 0.79471 0.79472 v -2.1164 -2.11641 h -0.79472 -0.79471 v 0.66138 0.66138 h -1.45699 -1.45698 v -0.66138 -0.66138 h 1.45698 1.45699 v -0.79365 -0.79365 h 0.79471 0.79472 v -5.02645 -5.02645 h -2.91397 -2.91396 v -0.79365 -0.79366 h 0.79471 0.79472 v -0.66137 -0.66138 h -0.79472 -0.79471 v -0.79365 -0.79365 h 0.66226 0.66227 v -0.66138 -0.66138 h -1.45699 -1.45698 v -1.45502 -1.45502 h 1.45698 1.45699 v -0.79365 -0.79365 h 2.2517 2.2517 v -2.11641 -2.11641 h -0.79472 -0.79471 v -1.45502 -1.45502 h -4.37096 -4.37094 v 0.66137 0.66137 h -3.57623 -3.57623 v 0.79365 0.79365 h -0.79471 -0.79472 v 1.45503 1.45503 h -0.66227 -0.66226 v 2.91006 2.91004 h -0.79472 -0.79472 v 4.36509 4.36507 h -0.66226 -0.66227 v -4.36507 -4.36509 h 0.66227 0.66226 v -2.91004 -2.91006 h 0.79472 0.79472 v -1.45503 -1.45503 h 0.66226 0.66227 v -0.79365 -0.79365 h 0.79472 0.79471 v -0.66137 -0.66137 h 0.66227 0.66226 v -0.79365 -0.79365 h 0.79471 0.79472 v 0.79365 0.79365 h 1.45699 1.45698 v -1.45503 -1.45503 h 0.66227 0.66226 v 0.66138 0.66138 h 1.45699 1.45697 v -0.66138 -0.66138 h 0.79472 0.79472 v -0.79365 -0.79365 h 2.91396 2.91397 v 0.79365 0.79365 h 1.45698 1.45699 v 0.66138 0.66138 h 1.45697 1.45699 v 0.79365 0.79365 h 0.66226 0.66227 v 0.66137 0.66137 h 0.79472 0.79471 v 0.79365 0.79365 h 0.66227 0.66227 v 1.45503 1.45503 h 0.79471 0.79472 v 2.11641 2.11639 h -0.79472 -0.79471 v -2.11639 -2.11641 h -0.66227 -0.66227 v -1.45503 -1.45503 h -0.79471 -0.79472 v -0.79365 -0.79365 h -1.45699 -1.45698 v -0.66137 -0.66137 h -0.66227 -0.66225 v 1.45502 1.45502 h 0.66225 0.66227 v 2.11641 2.11641 h 0.79472 0.79472 v 1.45501 1.45503 h 0.66226 0.66227 v 5.15874 5.15872 h -0.66227 -0.66226 v 5.02646 5.02646 h 0.66226 0.66227 v 0.79365 0.79365 h -1.45699 -1.45698 v 2.91005 2.91005 h -0.66227 -0.66225 v 1.45503 1.45503 h 0.66225 0.66227 v 0.66137 0.66138 h -0.66227 -0.66225 v -0.66138 -0.66137 h -2.2517 -2.2517 v 0.66137 0.66138 h -4.37096 -4.37094 z m 10.33133,-5.8201 v -0.66138 h -0.79472 -0.79471 v 0.66138 0.66137 h 0.79471 0.79472 z m 4.23849,-14.55027 v -2.24868 h 0.79472 0.79472 v -1.45502 -1.45503 h -0.79472 -0.79472 v 1.45503 1.45502 h -0.66227 -0.66225 v 2.24868 2.24868 h 0.66225 0.66227 z m -4.23849,-5.8201 v -0.66138 h -1.45698 -1.45699 v 0.66138 0.66137 h 1.45699 1.45698 z m 4.23849,-1.45503 v -0.79365 h 0.79472 0.79472 v -1.45503 -1.45503 h -0.79472 -0.79472 v -1.45503 -1.45501 h -0.66227 -0.66225 v 3.70369 3.70371 h 0.66225 0.66227 z m -4.23849,-3.57143 v -1.45502 h -0.79472 -0.79471 v 0.66136 0.66138 h -1.45699 -1.45698 v 0.79365 0.79365 h 2.2517 2.2517 z m -11.65586,13.75662 v -0.66138 h 2.91397 2.91396 v 0.66138 0.66137 h -2.91396 -2.91397 z m 0,-4.36509 v -0.79365 h -0.79472 -0.79472 v -0.66137 -0.66137 h -2.91396 -2.91396 v -0.79365 -0.79366 h -0.66227 -0.66226 v -0.66137 -0.66138 h 0.66226 0.66227 v -0.79365 -0.79365 h 0.79472 0.79471 v -0.66138 -0.66138 h 2.11924 2.11925 v -0.79365 -0.79365 h -2.91396 -2.91396 v -1.45503 -1.45501 h 1.45698 1.45698 v 0.79365 0.79365 h 2.2517 2.2517 v 1.45502 1.45502 h -0.79472 -0.79472 v 0.66138 0.66138 h 1.45699 1.45698 v 1.45503 1.45502 h -0.66226 -0.66227 v 0.79366 0.79365 h 0.66227 0.66226 v 0.66137 0.66137 h 0.79472 0.79472 v 0.79365 0.79365 h -1.45699 -1.45698 z m -5.82793,-4.36507 v -0.66138 h -0.79471 -0.79472 v 0.66138 0.66137 h 0.79472 0.79471 z m 5.82793,0 v -0.66138 h -2.2517 -2.2517 v 0.66138 0.66137 h 2.2517 2.2517 z m 4.23849,71.95767 v -1.45503 h -0.66226 -0.66226 v 1.45503 1.45503 h 0.66226 0.66226 z m 27.81512,-39.94709 V 252.291 h 0.66226 0.66227 v -1.45502 -1.45503 h -0.66227 -0.66226 v -2.24868 -2.24868 h -0.79471 -0.79472 v -1.45502 -1.45503 h -0.66227 -0.66226 v -0.66137 -0.66138 h -0.79472 -0.79472 v -0.79365 -0.79365 h -1.45698 -1.45699 v 1.45503 1.45502 h -1.45698 -1.45697 v 0.79365 0.79365 h -0.66227 -0.66227 v 2.11641 2.1164 h 0.66227 0.66227 v 0.79365 0.79365 h 1.45697 1.45698 v 1.45503 1.45502 h 0.79472 0.79472 v 0.66138 0.66137 h 2.91397 2.91396 z"
       style="fill:#000000;stroke-width:0.26472801"
       inkscape:connector-curvature="0" />
  </g>
</svg>
