<?xml version="1.0" encoding="UTF-8" standalone="no"?>
<!-- Created with Inkscape (http://www.inkscape.org/) -->

<svg
   xmlns:dc="http://purl.org/dc/elements/1.1/"
   xmlns:cc="http://creativecommons.org/ns#"
   xmlns:rdf="http://www.w3.org/1999/02/22-rdf-syntax-ns#"
   xmlns:svg="http://www.w3.org/2000/svg"
   xmlns="http://www.w3.org/2000/svg"
   xmlns:sodipodi="http://sodipodi.sourceforge.net/DTD/sodipodi-0.dtd"
   xmlns:inkscape="http://www.inkscape.org/namespaces/inkscape"
   width="170mm"
   height="110mm"
   viewBox="0 0 170 110"
   version="1.1"
   id="svg8"
   inkscape:version="0.92.5 (2060ec1f9f, 2020-04-08)"
   sodipodi:docname="background-posts.svg">
  <defs
     id="defs2" />
  <sodipodi:namedview
     id="base"
     pagecolor="#ffffff"
     bordercolor="#666666"
     borderopacity="1.0"
     inkscape:pageopacity="0.0"
     inkscape:pageshadow="2"
     inkscape:zoom="0.7"
     inkscape:cx="279.05823"
     inkscape:cy="226.68732"
     inkscape:document-units="mm"
     inkscape:current-layer="layer1"
     showgrid="false"
     inkscape:window-width="1920"
     inkscape:window-height="1030"
     inkscape:window-x="0"
     inkscape:window-y="0"
     inkscape:window-maximized="1" />
  <metadata
     id="metadata5">
    <rdf:RDF>
      <cc:Work
         rdf:about="">
        <dc:format>image/svg+xml</dc:format>
        <dc:type
           rdf:resource="http://purl.org/dc/dcmitype/StillImage" />
        <dc:title></dc:title>
      </cc:Work>
    </rdf:RDF>
  </metadata>
  <g
     inkscape:label="Layer 1"
     inkscape:groupmode="layer"
     id="layer1"
     transform="translate(0,-187)">
    <path
       style="fill:#000000;stroke-width:0.08550918"
       d="m 4.898916,296.90998 c -1.5362755,-0.0315 -3.2670034,-0.0625 -3.8460617,-0.0689 -0.81385909,-0.009 -1.052832982804,-0.0374 -1.052832982804,-0.12504 0,-0.0922 0.372079472804,-0.10643 1.998233382804,-0.0761 1.0990283,0.0205 5.7110798,0.10436 10.2490033,0.18637 l 8.25077,0.14909 -6.402942,-0.004 c -3.521617,-0.002 -7.6598935,-0.0298 -9.19617,-0.0613 z m 19.062098,-1.48549 c 0.01964,-1.22973 7.73e-4,-1.58338 -0.08595,-1.61223 -0.06111,-0.0204 -5.332302,-0.30858 -11.713757,-0.64053 -6.3814538,-0.33195 -11.72834052,-0.62274 -11.88196746,-0.6462 -0.16737146,-0.0255 -0.279323283222,-0.0922 -0.279323283222,-0.16643 0,-0.068 0.06067280322,-0.12375 0.134835323222,-0.12375 0.0741635,0 5.18899332,0.26707 11.36629542,0.59349 6.177302,0.32642 11.502188,0.60398 11.833078,0.61679 l 0.601618,0.0233 0.04297,-6.53054 c 0.03788,-5.75668 0.02769,-6.53475 -0.08595,-6.56606 -0.0709,-0.0195 -5.446798,-1.15428 -11.946427,-2.52166 -6.4996305,-1.36737 -11.85360669,-2.51795 -11.89772516,-2.55682 -0.04411645,-0.0389 -0.0567545,-0.094 -0.02808795,-0.12229 0.02867671,-0.0283 5.32463561,1.06165 11.76880711,2.42229 6.444171,1.36064 11.910052,2.50999 12.146402,2.55409 0.3488,0.0651 0.470184,0.0543 0.644551,-0.0575 l 0.214824,-0.13767 -0.257797,-0.0647 c -0.141787,-0.0356 -5.459648,-1.17893 -11.817467,-2.54075 C 6.3621243,275.98552 0.89921212,274.81277 0.58013937,274.74123 0.19801036,274.65552 7.105732e-6,274.56996 7.105732e-6,274.49039 c 0,-0.0664 0.039528174268,-0.12079 0.087836994268,-0.12079 0.04830883,0 5.6465872,1.1884 12.4406139,2.6409 6.794026,1.4525 12.445865,2.66068 12.559639,2.68484 l 0.206867,0.0439 -0.06163,7.39727 c -0.05052,6.06462 -0.04135,7.40397 0.05097,7.43452 0.144567,0.0478 1.719367,0.13488 11.457405,0.6333 4.396114,0.22502 8.016272,0.39677 8.044796,0.38171 0.04505,-0.0238 0.11722,-5.71353 0.18116,-14.28285 l 0.01904,-2.55226 -0.426842,-0.14503 c -0.346259,-0.11765 -7.830042,-2.31082 -10.783278,-3.1601 -0.401795,-0.11555 -2.438714,-0.71124 -4.526486,-1.32376 -2.087772,-0.61252 -3.8185,-1.11368 -3.846061,-1.11368 -0.02756,0 -0.05012,1.31611 -0.05012,2.92469 0,2.53163 0.01781,2.9393 0.13256,3.03357 0.08084,0.0664 0.101664,0.13948 0.05336,0.18729 -0.0483,0.0478 -0.376637,0.009 -0.841611,-0.0993 -0.419327,-0.0977 -1.419896,-0.32211 -2.223487,-0.49863 -0.80359,-0.17653 -6.188886,-1.39168 -11.967325,-2.70036 C 1.2964542,273.76962 0.0010904,273.4572 5.7473045e-4,273.32165 1.6665841e-4,273.21421 0.04587885,273.18049 0.15039198,273.21112 c 0.39167811,0.11481 21.25543102,4.81666 21.37317802,4.81666 0.18374,0 0.171066,-0.23287 -0.01571,-0.28876 -0.08272,-0.0247 -1.29133,-0.31032 -2.685797,-0.63461 C 1.1343398,272.99099 2.0302092e-6,272.71699 2.0302092e-6,272.558 c 0,-0.11 0.044796569791,-0.14293 0.1504049997908,-0.11063 0.41943918,0.12831 1.67719027,0.39669 1.70944317,0.36476 0.035488,-0.0352 -0.2401432,-2.2415 -0.3790948,-3.03463 L 1.4140324,269.39666 0.70701608,269.2295 C 0.16670047,269.10176 0,269.0284 0,268.91839 c 0,-0.1306 0.07989888,-0.12414 0.86054577,0.0696 l 0.86054573,0.2136 0.3212055,-0.22003 0.3212055,-0.22001 0.6875638,0.19463 c 0.37816,0.10705 1.3643848,0.36191 2.1916108,0.56637 0.827226,0.20445 1.5533668,0.40792 1.6136468,0.45214 0.087522,0.0642 0.083188,0.10929 -0.02149,0.22379 -0.072093,0.0789 -0.1310865,0.18674 -0.1310865,0.23975 0,0.10587 0.4449995,0.24342 1.0555565,0.32625 0.2713019,0.0368 0.5217221,0.008 0.8076162,-0.0923 0.460692,-0.16203 0.1599053,-0.22231 3.0786949,0.61694 l 0.859455,0.24712 0.04297,-1.81533 0.04297,-1.81533 1.933774,-0.92967 1.933774,-0.92967 0.05393,-0.87901 c 0.02966,-0.48346 0.05866,-1.27393 0.06446,-1.75662 0.0058,-0.48269 0.05232,-0.9549 0.103395,-1.04938 0.119057,-0.22021 0.512439,-0.38062 1.114531,-0.45447 0.368785,-0.0452 0.614205,-0.0172 1.082896,0.12371 0.333322,0.10018 0.733726,0.28775 0.889788,0.4167 l 0.283749,0.23449 -0.01783,1.73911 c -0.01897,1.84929 0.0022,1.95959 0.39907,2.07623 l 0.192374,0.0566 0.02249,-3.34462 0.02248,-3.34462 0.558645,-0.19414 c 0.459199,-0.15958 0.676831,-0.18659 1.222545,-0.15171 0.437252,0.0279 0.789341,0.10487 1.031346,0.22533 0.712583,0.35468 0.668257,0.17743 0.668257,2.67203 0,1.22507 0.02554,3.66488 0.05674,5.42182 l 0.05674,3.19443 0.394465,-0.13013 c 0.216957,-0.0715 0.413804,-0.14688 0.437438,-0.16738 0.02363,-0.0205 0.06231,-3.04668 0.08595,-6.72486 l 0.04297,-6.68762 0.427434,-0.2177 c 0.382479,-0.1948 0.527102,-0.21769 1.375127,-0.21769 0.845872,0 0.98925,0.0225 1.33445,0.20999 0.212715,0.11549 0.454437,0.26499 0.53716,0.33221 0.140551,0.11423 0.150405,0.50037 0.150405,5.89415 0,3.75031 0.02978,5.77192 0.08505,5.77192 0.04678,0 0.336838,-0.0998 0.644591,-0.22173 l 0.55955,-0.22174 v -7.11999 -7.11999 l 0.328384,-0.31742 c 0.40775,-0.39412 1.075509,-0.65294 1.6846,-0.65294 0.255268,0 0.695679,0.0713 0.978694,0.15853 l 0.514571,0.15852 -0.04078,-0.86039 c -0.02242,-0.47322 -0.09928,-1.05557 -0.170783,-1.2941 -0.101819,-0.33966 -0.109818,-0.50568 -0.03689,-0.76568 0.05121,-0.18258 0.09333,-0.48934 0.09359,-0.68167 2.57e-4,-0.19233 0.02398,-0.5194 0.0527,-0.72684 0.04176,-0.30161 0.103403,-0.40622 0.307774,-0.52233 0.316815,-0.17998 0.447048,-0.18258 0.590239,-0.0117 0.0615,0.0733 0.249224,0.20315 0.417152,0.28843 0.302697,0.15372 0.306167,0.1618 0.403292,0.93953 0.05902,0.4726 0.143832,0.81254 0.213331,0.85505 0.09477,0.058 0.08908,0.12514 -0.03189,0.37625 -0.132227,0.27448 -0.147258,0.69278 -0.147258,4.09786 v 3.79218 l 0.193377,-0.051 c 0.106358,-0.0281 0.272948,-0.0731 0.370201,-0.1 0.106465,-0.0294 0.255194,0.014 0.373786,0.10903 0.265764,0.21302 0.325856,0.78162 0.145973,1.38122 -0.153741,0.51246 -0.179763,1.0333 -0.05777,1.15629 0.04409,0.0444 0.180725,0.37845 0.303632,0.74221 0.36856,1.09081 0.30043,2.34283 -0.144265,2.65115 -0.171945,0.11921 -0.157676,0.14493 0.495951,0.89355 0.370144,0.42395 0.704162,0.7708 0.742263,0.7708 0.0381,0 0.06927,0.0686 0.06927,0.15256 0,0.0983 -0.09851,0.1815 -0.276968,0.23396 -0.221926,0.0652 -0.288721,0.13941 -0.336103,0.37327 -0.05702,0.28142 -0.02522,0.32716 0.888645,1.27819 l 0.947782,0.98634 -0.01435,1.0303 -0.01435,1.03028 0.283622,0.10434 c 0.155991,0.0574 0.612363,0.21173 1.014157,0.34299 l 0.730538,0.23863 0.02522,0.60164 c 0.02918,0.69592 -0.0302,0.64134 1.161158,1.06729 l 0.790358,0.28258 0.02499,0.64185 0.02499,0.64188 1.006352,0.33184 1.006353,0.33184 0.04297,1.0991 c 0.02363,0.60451 0.02348,2.24761 -3.43e-4,3.65135 -0.02383,1.40374 -0.04316,2.55846 -0.04297,2.56606 1.72e-4,0.008 1.179951,-0.17442 2.621687,-0.40445 2.426753,-0.38718 2.691516,-0.44667 3.566739,-0.80139 0.51997,-0.21075 0.984076,-0.38223 1.031346,-0.38108 0.04727,0.001 0.464587,0.38003 0.927371,0.84195 l 0.841425,0.83987 -0.02494,0.66037 -0.02494,0.66036 0.515673,0.11427 c 0.28362,0.0628 0.59823,0.13325 0.699133,0.15646 0.157095,0.0362 0.182564,0.10089 0.177233,0.45068 -0.0035,0.22466 0.01853,0.44813 0.04879,0.49659 0.03026,0.0484 0.287084,0.15766 0.570727,0.24266 l 0.515717,0.15457 0.02555,0.43079 0.02555,0.43081 0.515673,0.16006 c 0.283621,0.088 0.611975,0.19829 0.729679,0.24503 0.197484,0.0784 0.20246,0.0933 0.06446,0.19321 -0.13869,0.10039 -0.149546,0.42101 -0.149546,4.41643 0,3.75912 -0.01631,4.30818 -0.128006,4.30818 -0.111057,0 -0.13097,-0.48714 -0.150404,-3.6795 l -0.0224,-3.6795 -1.461074,-0.23189 c -0.803591,-0.12755 -1.696924,-0.25697 -1.985184,-0.2876 l -0.52411,-0.0557 -0.04718,0.68133 c -0.02998,0.43289 -0.101013,0.76266 -0.194825,0.90438 l -0.147648,0.22306 0.590018,0.001 c 0.324509,8.5e-4 0.764056,0.0526 0.976771,0.11533 l 0.386755,0.11405 0.02621,0.44438 c 0.02181,0.36986 1.72e-4,0.45113 -0.128919,0.48449 -0.141088,0.0365 -0.150077,0.11478 -0.09929,0.86527 0.03072,0.45386 0.05972,1.37595 0.06446,2.04908 l 0.0086,1.22388 -0.398751,-0.0541 c -0.219313,-0.0297 -0.476583,-0.0541 -0.571714,-0.0541 -0.170006,0 -0.171924,-0.0328 -0.112174,-1.91948 0.03344,-1.05571 0.08315,-1.97714 0.110463,-2.04761 0.03996,-0.10308 -0.01556,-0.12284 -0.284072,-0.10105 l -0.333744,0.0271 -0.04297,1.99926 -0.04297,1.99926 -0.944925,-0.0291 c -0.519709,-0.016 -0.974146,-0.0469 -1.00986,-0.0688 -0.03571,-0.0218 -0.06494,-0.91799 -0.06494,-1.99143 v -1.95161 h -0.305296 -0.305301 l 0.02598,-0.44664 0.02598,-0.44665 0.729689,-0.0275 c 0.40133,-0.0152 0.749087,-0.0467 0.772794,-0.0702 0.02371,-0.0234 -0.01919,-0.0772 -0.09531,-0.11934 -0.30881,-0.17107 -0.468656,-1.04442 -0.305271,-1.6679 l 0.111075,-0.42388 -2.969989,-0.4753 c -1.633494,-0.26142 -2.976454,-0.46932 -2.984354,-0.46198 -0.0079,0.007 -0.04268,2.07107 -0.07728,4.58609 -0.04746,3.44904 -0.0881,4.57274 -0.165404,4.57274 -0.07855,0 -0.09437,-1.11727 -0.06774,-4.78372 0.01911,-2.63104 0.05167,-4.80045 0.07234,-4.82092 0.02068,-0.0205 0.03759,-0.33941 0.03759,-0.70876 v -0.67156 l -0.322295,0.0264 -0.322296,0.0264 -0.05241,3.91345 c -0.02882,2.15241 -0.05783,4.61213 -0.06446,5.46607 -0.01023,1.31809 -0.03153,1.55263 -0.140972,1.55263 -0.101439,0 -0.128918,-0.11846 -0.128918,-0.55566 0,-0.3688 -0.03613,-0.56763 -0.107431,-0.5913 -0.05909,-0.0196 -3.684914,-0.20844 -8.057393,-0.41965 -10.128851,-0.48926 -11.373613,-0.54366 -11.45224,-0.50053 -0.03546,0.0195 -0.06446,0.49253 -0.06446,1.05126 0,0.84629 -0.02152,1.01588 -0.128919,1.01588 -0.113722,0 -0.128918,-0.98869 -0.128918,-8.38773 v -8.38773 l -0.279323,0.16131 -0.279323,0.1613 -0.05265,2.42005 c -0.02896,1.33103 -0.05796,5.03292 -0.06446,8.22642 -0.01112,5.46868 -0.02056,5.80639 -0.162209,5.80647 -0.138736,0 -0.148452,-0.12211 -0.125239,-1.57515 z m 30.808253,-1.29623 c -0.03984,-1.5256 -0.0935,-1.89291 -0.276514,-1.89291 -0.0339,0 -0.10651,0.0975 -0.161368,0.21669 -0.06417,0.13943 -0.09974,0.77641 -0.09974,1.78657 v 1.56989 h 0.290756 0.290755 z m -1.625554,0.51045 c 0.03074,-0.59658 0.05604,-1.43882 0.05624,-1.87165 l 3.49e-4,-0.78694 h -0.77351 -0.773509 l 3.43e-4,0.78694 c 1.72e-4,0.43283 0.0255,1.27507 0.05624,1.87165 l 0.05589,1.08471 h 0.661038 0.661037 l 0.05589,-1.08471 z m 1.818224,-2.99814 c 0.02987,-0.0932 0.0318,-0.20543 0.0043,-0.2495 -0.02751,-0.0441 -0.271729,-0.12585 -0.542707,-0.18175 -0.526616,-0.10864 -1.549304,-0.0691 -2.705786,0.10464 -0.546474,0.0821 -0.666077,0.12755 -0.666077,0.2531 0,0.13863 0.111206,0.1555 1.18175,0.17931 0.649964,0.0145 1.517556,0.0347 1.927984,0.0449 0.67848,0.017 0.751163,0.003 0.800543,-0.15074 z m -1.907342,-1.04293 c 0.204848,-0.15025 0.356149,-1.02297 0.236334,-1.36318 -0.127889,-0.36315 -0.337883,-0.57227 -0.57467,-0.57227 -0.24937,0 -0.461766,0.30765 -0.52266,0.75705 -0.121271,0.89498 0.356287,1.54859 0.860996,1.1784 z m 4.597149,-1.78657 -0.02526,-0.61679 -0.515673,-0.12762 c -0.28362,-0.0702 -0.564969,-0.15916 -0.625219,-0.19773 -0.0771,-0.0493 -0.09342,-0.19046 -0.05511,-0.47633 l 0.05444,-0.40622 -0.619934,-0.15916 -0.619932,-0.15916 0.05542,-0.48493 c 0.06182,-0.54087 0.111604,-0.4928 -0.682087,-0.65849 -1.631777,-0.34061 -4.749108,-1.02095 -4.958934,-1.08224 -0.123635,-0.0362 -0.149951,0.0329 -0.171891,0.45087 -0.02295,0.43727 -0.0455,0.49097 -0.197798,0.47105 -0.09454,-0.0124 -0.452288,-0.0466 -0.794995,-0.0761 l -0.623106,-0.0536 v 0.52273 c 0,0.60055 0.02703,0.58813 -0.859454,0.39512 -0.307256,-0.0669 -0.645667,-0.12299 -0.752024,-0.12463 -0.186224,-0.003 -0.193378,0.0249 -0.193378,0.7512 v 0.75419 l 1.401749,0.22418 c 0.770962,0.12329 1.486457,0.22417 1.589992,0.22417 0.178472,0 0.188251,-0.0364 0.188377,-0.70187 1.72e-4,-0.72673 0.14934,-1.19338 0.437051,-1.36691 0.07501,-0.0452 0.279897,-0.0556 0.455314,-0.023 0.229425,0.0426 0.367725,0.13554 0.492765,0.33112 0.151294,0.23663 0.167376,0.36331 0.124052,0.97717 -0.02738,0.38792 -0.0259,0.79947 0.0032,0.91457 0.04106,0.16193 0.109254,0.20925 0.301578,0.20925 h 0.24852 l 5.15e-4,-0.78695 c 2.58e-4,-0.43282 0.03888,-0.92377 0.08582,-1.09103 0.04693,-0.16723 0.176536,-0.38888 0.288005,-0.49254 0.461081,-0.42877 1.292378,-0.2454 1.490164,0.32872 0.05642,0.16376 0.104764,0.73994 0.107433,1.28037 0.005,1.00525 0.05952,1.1868 0.356626,1.1868 0.08003,0 0.168983,-0.0606 0.197675,-0.13456 0.0287,-0.0741 0.05217,-0.40078 0.05217,-0.72614 0,-0.39363 0.04503,-0.65959 0.134589,-0.79489 0.146615,-0.22149 0.571613,-0.40644 0.765104,-0.33293 0.06673,0.0253 0.187126,0.14546 0.26753,0.26694 0.123868,0.18713 0.137915,0.35469 0.09201,1.09744 -0.05305,0.85823 -0.05016,0.87752 0.13829,0.92126 0.225731,0.0525 2.117761,0.36403 2.280417,0.37558 0.0836,0.006 0.104932,-0.14513 0.08595,-0.60889 z m -2.845554,-0.21268 c 0.03667,-0.17548 0.06742,-0.5378 0.06836,-0.80518 0.0012,-0.33687 -0.04115,-0.52855 -0.137825,-0.62425 -0.116613,-0.11543 -0.16828,-0.12032 -0.314744,-0.0297 -0.09637,0.0596 -0.197964,0.22085 -0.225752,0.35839 -0.06875,0.3403 -0.06402,1.29305 0.0068,1.36313 0.03151,0.0311 0.165125,0.0567 0.296915,0.0567 0.207744,0 0.248485,-0.0424 0.30628,-0.31903 z m -2.071999,-0.44665 c 0.06728,0 0.122325,0.0383 0.122325,0.0851 0,0.0468 0.04374,0.0851 0.09722,0.0851 0.06864,0 0.0855,-0.26047 0.05738,-0.88645 -0.04348,-0.96766 -0.166304,-1.28246 -0.536234,-1.37437 -0.584763,-0.14528 -0.823996,0.24672 -0.88614,1.45201 l -0.04448,0.86272 0.290862,0.0856 c 0.251451,0.074 0.323781,0.0588 0.533807,-0.11203 0.13362,-0.10869 0.29799,-0.19761 0.365269,-0.19761 z m -2.335207,0.013 c 0.02477,-0.0397 0.05445,-0.42024 0.06595,-0.84573 0.01768,-0.65388 -0.0039,-0.8007 -0.139226,-0.94877 -0.08808,-0.0964 -0.246644,-0.17517 -0.352361,-0.17517 -0.274181,0 -0.468712,0.52968 -0.468712,1.27624 0,0.64178 -0.04604,0.58327 0.558646,0.70985 0.281643,0.059 0.288865,0.0586 0.335698,-0.0164 z m -2.838861,-2.49075 c 0.02954,-0.14622 0.05372,-0.38091 0.05372,-0.52152 v -0.25565 l 0.408241,0.0569 c 0.224533,0.0312 0.59195,0.0794 0.816482,0.10696 l 0.408242,0.0501 v -0.47873 c 0,-0.26331 0.02901,-0.47814 0.06446,-0.47742 0.03546,8.6e-4 0.296512,0.0568 0.580132,0.12459 0.28362,0.0678 0.564018,0.12462 0.623105,0.12629 0.0768,0.002 0.107432,-0.18151 0.107432,-0.64414 0,-0.4815 -0.0275,-0.63733 -0.107432,-0.60875 -0.05909,0.0211 -1.277129,0.22622 -2.706758,0.45575 l -2.599327,0.41732 -5.15e-4,0.87625 -5.16e-4,0.87625 0.494187,-0.0473 c 0.295422,-0.0283 0.701593,8.4e-4 1.00986,0.0721 0.758258,0.17572 0.788074,0.17119 0.848712,-0.12892 z m 6.327739,-1.16398 v -0.5791 l -0.715449,-0.75764 -0.715451,-0.75763 -0.681164,0.281 c -0.374641,0.15455 -0.712393,0.31035 -0.750559,0.34623 -0.03817,0.0359 -0.08752,0.37599 -0.109683,0.75579 -0.03871,0.6634 -0.0326,0.69238 0.15534,0.73702 0.889622,0.21133 2.467089,0.53943 2.623588,0.54568 0.182366,0.007 0.193378,-0.0252 0.193378,-0.57135 z m -28.802523,-9.54558 c -0.02826,-3.43471 -0.04799,-3.90839 -0.161117,-3.86699 -0.0709,0.0259 -0.602693,0.22714 -1.181751,0.44711 -1.023313,0.38872 -1.052823,0.4071 -1.052508,0.65541 3.43e-4,0.25071 0.01652,0.26008 0.866339,0.50133 0.791565,0.22471 0.861551,0.26127 0.814089,0.42537 -0.169519,0.58612 -0.163233,0.64056 0.08475,0.73389 0.181828,0.0684 0.215256,0.11377 0.139298,0.18896 -0.05497,0.0544 -0.09994,0.22526 -0.09994,0.37968 0,0.15441 -0.03938,0.28074 -0.0875,0.28074 -0.05756,0 -0.07962,0.6911 -0.06446,2.01975 l 0.02304,2.01975 0.257836,0.0546 c 0.14181,0.0299 0.311001,0.0591 0.375982,0.0646 0.09909,0.008 0.112951,-0.6212 0.08595,-3.90411 z m -1.03188,2.61679 c -0.0062,-0.57319 -0.03522,-1.4818 -0.06446,-2.01912 l -0.05315,-0.97695 -0.893253,-0.23737 c -0.491291,-0.13054 -0.912624,-0.21817 -0.936299,-0.19474 -0.055,0.0545 -0.182638,3.90303 -0.131331,3.9599 0.04647,0.0515 1.727352,0.48464 1.939398,0.49974 0.13621,0.01 0.149337,-0.0876 0.139095,-1.03146 z m 20.982014,-0.0183 v -0.89036 l -1.052832,-0.33216 -1.052833,-0.33216 -0.04297,-0.65836 -0.04297,-0.65836 -0.816483,-0.29272 c -0.449065,-0.16099 -0.874495,-0.32437 -0.9454,-0.36304 -0.09516,-0.0519 -0.128919,-0.22311 -0.128919,-0.65368 v -0.58337 l -4.811758,-1.67862 c -2.646466,-0.92324 -4.840021,-1.65064 -4.874566,-1.61644 -0.03454,0.0342 -0.07018,0.28517 -0.07917,0.55772 -0.009,0.27255 -0.05862,0.51035 -0.110273,0.52844 -0.05165,0.0181 -0.654708,-0.17096 -1.340124,-0.42014 l -1.24621,-0.45307 -0.02513,0.73074 c -0.01383,0.40191 -0.05423,0.75954 -0.08979,0.79473 -0.03556,0.0352 -0.71756,-0.14637 -1.515563,-0.40346 -0.798003,-0.25711 -1.484883,-0.46747 -1.5264,-0.46747 -0.04256,0 -0.04969,0.51027 -0.01634,1.16979 0.03252,0.64338 0.07021,1.18266 0.08375,1.19839 0.02232,0.0259 2.866848,0.86468 2.932569,0.86468 0.0154,0 0.02858,-0.35413 0.02932,-0.78694 6.87e-4,-0.43282 0.03584,-0.84093 0.07803,-0.90691 0.05149,-0.0805 0.300066,-0.13275 0.755829,-0.15887 0.568961,-0.0326 0.735939,-0.0103 1.029463,0.13801 0.192692,0.0973 0.470784,0.32744 0.617983,0.51142 0.258953,0.32364 0.267634,0.36193 0.267634,1.18052 v 0.84605 l 0.880941,0.25723 c 0.875893,0.25577 0.881079,0.25621 0.905002,0.0776 0.05169,-0.386 0.111563,-0.56254 0.190803,-0.56254 0.04547,0 0.105167,0.0887 0.132664,0.19718 0.04113,0.16223 0.09473,0.19066 0.302447,0.16049 0.235308,-0.0342 0.252453,-0.062 0.252453,-0.40986 0,-0.275 0.03392,-0.37318 0.128918,-0.37318 0.09498,0 0.128919,0.0982 0.128919,0.37292 0,0.31481 0.03013,0.38091 0.193377,0.42421 0.350915,0.093 0.408202,0.0619 0.409557,-0.22287 6.89e-4,-0.15207 0.0394,-0.33393 0.08595,-0.40411 0.07523,-0.11343 0.09403,-0.11343 0.16926,0 0.04654,0.0702 0.08522,0.26557 0.08595,0.43417 l 0.0013,0.30657 0.596688,0.0976 c 0.7826,0.12794 0.955573,0.12498 0.901154,-0.0154 -0.06493,-0.16748 0.11886,-0.58764 0.227871,-0.52095 0.05119,0.0313 0.06967,0.14925 0.04105,0.26209 -0.06508,0.25668 0.06457,0.50672 0.293465,0.56597 0.148429,0.0384 0.183073,-0.005 0.229101,-0.29042 0.06994,-0.43298 0.248175,-0.37892 0.239463,0.0726 -0.0065,0.33703 0.0012,0.34578 0.53716,0.60738 l 0.543757,0.26542 v -0.29697 c 0,-0.21589 0.03766,-0.29696 0.137946,-0.29696 0.108542,0 0.131124,0.0708 0.10594,0.33219 -0.02373,0.24638 0.0063,0.35588 0.116283,0.42387 0.127265,0.0787 0.156247,0.0496 0.204433,-0.20459 0.0321,-0.16939 0.107258,-0.29625 0.1755,-0.29625 0.08812,0 0.119353,0.12912 0.119353,0.49343 0,0.28053 0.04635,0.53996 0.107432,0.60126 0.08609,0.0864 0.07592,0.13084 -0.0512,0.22377 -0.143736,0.10506 -0.103385,0.13271 0.429729,0.29444 0.323598,0.0982 0.656042,0.19914 0.738764,0.22435 0.135418,0.0413 0.150405,-0.0293 0.150405,-0.70853 0,-0.47331 0.03842,-0.79242 0.103135,-0.85648 0.241682,-0.23923 1.434294,-0.007 1.767879,0.34497 0.159194,0.16774 0.188446,0.31215 0.209818,1.03581 l 0.02483,0.84088 0.945402,0.27899 c 0.51997,0.15344 0.993744,0.28142 1.052832,0.2844 0.07945,0.004 0.107432,-0.2265 0.107432,-0.88495 z m -7.090505,-2.3425 c -0.0731,-0.22798 0.02523,-0.51045 0.177683,-0.51045 0.07293,0 0.123126,0.0839 0.123126,0.20573 0,0.43314 -0.19598,0.63167 -0.300809,0.30472 z m -2.316686,-0.66861 c -0.05676,-0.17703 0.01971,-0.43736 0.128478,-0.43736 0.104387,0 0.180808,0.29461 0.118269,0.45592 -0.07187,0.18541 -0.184055,0.17697 -0.246747,-0.0186 z m 7.000717,2.60173 c 0,-0.41415 -0.04292,-0.67978 -0.129633,-0.80233 -0.182341,-0.25769 -0.611723,-0.45018 -1.004209,-0.45018 h -0.333924 l 0.02483,0.73889 0.02483,0.73888 0.601619,0.18812 c 0.330889,0.10347 0.649962,0.19209 0.70905,0.19693 0.07693,0.006 0.107432,-0.16701 0.107432,-0.61031 z M 21.44393,277.2835 c -0.31962,-0.78187 -1.073999,-2.80771 -1.074359,-2.88513 -4.31e-4,-0.10061 -1.594594,-0.51456 -2.1491,-0.55807 l -0.300809,-0.0236 0.02272,0.72315 c 0.0125,0.39773 0.04446,1.03289 0.07104,1.41147 l 0.04832,0.68834 1.647876,0.39016 c 0.906331,0.21458 1.681019,0.39295 1.72153,0.39637 0.04051,0.003 0.04627,-0.0608 0.01279,-0.14267 z m 0.291808,-2.50972 c 0.0055,-0.81074 -0.02287,-1.25485 -0.08014,-1.25485 -0.117711,0 -0.165165,0.13958 -0.193695,0.56974 -0.01302,0.19638 -0.04789,0.38102 -0.07747,0.41031 -0.02959,0.0292 -0.200282,0.0132 -0.379319,-0.0358 -0.179037,-0.0489 -0.339347,-0.0753 -0.356244,-0.0586 -0.0169,0.0168 0.193644,0.59952 0.467867,1.29509 l 0.49859,1.26468 0.05596,-0.46792 c 0.03078,-0.25735 0.05978,-1.0326 0.06446,-1.72277 z m 17.397064,1.85945 c 0.06702,-0.17288 -0.254179,-0.43441 -0.933665,-0.7602 -0.83625,-0.40097 -1.556805,-0.61723 -2.703616,-0.81146 -1.670186,-0.28287 -1.845423,-0.29554 -1.973542,-0.14272 -0.0625,0.0746 -0.09847,0.15001 -0.07991,0.16769 0.03224,0.0308 5.475023,1.64623 5.589511,1.65906 0.03039,0.003 0.07595,-0.0471 0.101226,-0.11237 z m -21.428004,-1.445 c 0,-0.94601 -0.02974,-1.33101 -0.107431,-1.39049 -0.108457,-0.083 -2.647159,-0.72833 -2.691734,-0.68421 -0.0488,0.0483 -0.0657,2.70233 -0.01752,2.75003 0.06553,0.0649 2.373046,0.61455 2.623305,0.62492 0.192507,0.008 0.193377,0.002 0.193377,-1.30025 z m -3.523146,0.47877 c 3.45e-4,-0.0351 -0.16038,-0.70827 -0.357159,-1.49595 -0.383793,-1.53628 -0.352111,-1.48325 -0.979406,-1.6391 l -0.211074,-0.0525 v 1.44911 1.44912 l 0.70905,0.16746 c 0.863418,0.20391 0.837827,0.2002 0.838589,0.1218 z m 0.397333,-0.12761 c -0.0285,-0.10528 -0.05235,-0.81768 -0.053,-1.58311 l -0.0012,-1.3917 -0.23587,0.0586 c -0.403443,0.10018 -0.472289,0.20739 -0.408319,0.63557 0.05101,0.34141 0.408497,1.91919 0.526382,2.32317 0.06515,0.22326 0.232717,0.18181 0.171978,-0.0425 z M 12.367646,274.561 c -0.0047,-0.40943 -0.0337,-1.06658 -0.06446,-1.46034 l -0.05593,-0.71593 -1.547019,-0.41035 c -0.850861,-0.22569 -1.5760264,-0.41078 -1.6114789,-0.41132 -0.035458,-8.5e-4 -0.064459,0.66563 -0.064459,1.48036 v 1.48132 l 1.5255329,0.35424 c 0.839043,0.19482 1.564209,0.36745 1.611478,0.38361 0.04727,0.0162 0.114953,0.0324 0.150405,0.0361 0.03546,0.004 0.06062,-0.32827 0.05593,-0.73769 z m -3.944963,-0.34265 c 0,-0.1845 -0.5895057,-2.9934 -0.6478367,-3.08683 -0.041091,-0.0658 -1.2495135,-0.36518 -1.2807625,-0.31728 -0.016029,0.0245 0.09742,2.30573 0.1429288,2.87399 l 0.023784,0.29701 0.7735097,0.1835 c 0.4254303,0.10092 0.821854,0.1874 0.8809412,0.19217 0.059089,0.005 0.1074326,-0.0594 0.1074326,-0.14256 z m 15.712521,-0.0384 c -0.02373,-0.16386 -0.132443,-0.21375 -0.800974,-0.36762 -0.42543,-0.0979 -0.879867,-0.20474 -1.00986,-0.23741 -0.198788,-0.0499 -0.23635,-0.0325 -0.23635,0.11001 0,0.13184 0.100059,0.197 0.451214,0.29383 0.248168,0.0684 0.644591,0.18037 0.880941,0.24875 0.635538,0.18385 0.747472,0.1764 0.715029,-0.0475 z M 8.8014074,271.58334 c -0.035478,-0.44106 -0.083096,-0.61679 -0.1671502,-0.61679 -0.2076376,0 -0.5553566,0.19389 -0.5553566,0.30968 0,0.0819 0.4699427,2.37155 0.6146458,2.99469 0.00721,0.0308 0.045527,-0.42245 0.085248,-1.00734 0.039721,-0.58489 0.049892,-1.341 0.022616,-1.68024 z m 12.4271566,2.38647 c 0,-0.12076 -0.06392,-0.26583 -0.142048,-0.32238 -0.16788,-0.12151 -0.08612,-0.29877 0.137804,-0.29877 0.184909,0 0.319741,-0.40233 0.180894,-0.53977 -0.04988,-0.0493 -0.0907,-0.11953 -0.0907,-0.15587 0,-0.12312 0.711614,-0.40761 0.901574,-0.36041 l 0.188302,0.0468 0.05996,-2.4017 c 0.03298,-1.32092 0.02698,-2.43433 -0.01333,-2.47423 -0.08403,-0.0832 -4.643138,-1.60141 -4.808882,-1.60141 -0.08658,0 -0.109222,0.73135 -0.109222,3.52734 v 3.52733 l 0.365268,0.097 c 0.200898,0.0534 0.396154,0.11564 0.433901,0.13847 0.03775,0.0228 0.02199,0.0972 -0.03503,0.16513 -0.06172,0.0736 -0.0721,0.15362 -0.02566,0.19772 0.09719,0.0923 2.804361,0.75537 2.892721,0.70852 0.03545,-0.0188 0.06446,-0.13298 0.06446,-0.25373 z m 9.58548,-0.42973 c -0.0547,-0.67037 -0.08639,-0.77095 -0.318451,-1.01132 -0.141735,-0.1468 -0.406577,-0.33337 -0.588537,-0.41459 -0.2548,-0.11373 -0.441431,-0.134 -0.81204,-0.0881 l -0.481203,0.0595 0.02452,0.81509 0.02452,0.81508 0.945401,0.27898 c 0.51997,0.15345 1.017656,0.28142 1.10597,0.2844 0.14943,0.005 0.156356,-0.0462 0.09981,-0.73899 z m -24.4145192,0.0425 c -0.019581,-0.15207 -0.059769,-0.83973 -0.089319,-1.52814 -0.03359,-0.78271 -0.090679,-1.27943 -0.1523702,-1.32581 -0.1051496,-0.0791 -3.3767454,-0.95669 -3.5579659,-0.95448 -0.08201,10e-4 -0.1074326,0.37252 -0.1074326,1.5702 0,1.16165 0.027885,1.58671 0.1074326,1.63769 0.1445712,0.0926 3.3125877,0.85489 3.6043085,0.86725 0.2120655,0.009 0.2280361,-0.0129 0.1953426,-0.26671 z m 17.5792972,-0.18814 c 0,-0.26809 -0.02888,-0.30228 -0.322296,-0.38157 -0.177263,-0.0479 -0.585394,-0.16209 -0.906957,-0.25378 -0.631847,-0.18015 -0.70678,-0.14998 -0.64686,0.26042 0.02399,0.16427 0.145902,0.22831 0.801793,0.4212 0.42543,0.12512 0.841192,0.23214 0.923915,0.23785 0.116291,0.008 0.150405,-0.0565 0.150405,-0.28412 z m -6.039625,-0.0172 c 0.01905,-0.0575 -0.158271,-0.15393 -0.4231,-0.23013 -0.956997,-0.27534 -2.58319,-0.65622 -2.625023,-0.61481 -0.124221,0.12297 0.100942,0.29776 0.508088,0.39443 0.251794,0.0598 0.825225,0.21616 1.27429,0.3475 0.840249,0.24575 1.208519,0.27571 1.265745,0.10301 z m 3.890986,-0.47105 c 0,-0.13743 -0.02542,-0.162 -0.09564,-0.0924 -0.0526,0.0521 -0.06966,0.13629 -0.0379,0.18717 0.0889,0.14237 0.133546,0.11073 0.133546,-0.0947 z M 2.2658626,271.07284 c -0.030321,-0.97091 -0.064094,-1.7763 -0.075057,-1.78975 -0.010963,-0.0135 -0.1216176,0.0214 -0.245901,0.0775 -0.1590242,0.0717 -0.2261267,0.16718 -0.2264982,0.32221 -4.984e-4,0.20793 0.4097266,2.82107 0.4786533,3.04905 0.1009724,0.33395 0.1181236,-0.0797 0.068804,-1.65897 z m 15.0094064,0.29777 c 8.5e-5,-0.80715 0.02562,-2.35765 0.0567,-3.44554 0.04774,-1.67127 0.03771,-1.97825 -0.06466,-1.97957 -0.06664,-8.6e-4 -1.072626,0.46357 -2.23553,1.03208 l -2.114368,1.03367 -0.05576,1.15078 c -0.07782,1.60626 -0.06952,2.4666 0.02434,2.52403 0.04659,0.0285 0.02957,0.1454 -0.04072,0.2795 -0.06645,0.12678 -0.09282,0.25406 -0.05861,0.28286 0.03421,0.0288 0.284674,0.0995 0.556587,0.15704 0.463689,0.0982 0.523321,0.0915 0.960324,-0.10647 0.256264,-0.11613 0.483098,-0.19415 0.504074,-0.1734 0.03854,0.0382 2.283622,0.69968 2.402951,0.70805 0.03546,0.002 0.06455,-0.65588 0.06466,-1.46303 z m -4.700924,0.61159 c 0.05261,-0.19916 0.10011,-0.17631 -0.928706,-0.44683 -0.425429,-0.11186 -1.17129,-0.30979 -1.6574637,-0.43986 -0.4861752,-0.13006 -0.902768,-0.21785 -0.9257612,-0.19509 -0.022992,0.0227 -0.00843,0.13077 0.032433,0.24004 0.064693,0.1731 0.2667127,0.25043 1.5703529,0.60108 0.822861,0.22135 1.578621,0.40549 1.679464,0.40923 0.116359,0.004 0.200281,-0.0573 0.229681,-0.16857 z m 26.273051,-1.09381 c 0,-0.46409 0.01813,-0.89478 0.04029,-0.9571 0.02268,-0.0638 -0.498849,-0.67112 -1.193094,-1.38943 l -1.233382,-1.27612 -1.313151,0.19092 c -0.722234,0.10501 -1.320973,0.20072 -1.330531,0.21269 -0.0095,0.012 -0.03967,0.51053 -0.06692,1.10792 -0.03581,0.78529 -0.02122,1.11226 0.05269,1.18035 0.101593,0.0935 4.731291,1.74985 4.936664,1.76608 0.0793,0.006 0.107432,-0.21247 0.107432,-0.83531 z m -15.559012,0.53138 c 0.214296,-0.0783 0.437972,-0.17865 0.49706,-0.2231 0.08391,-0.0631 0.107432,-1.23465 0.107432,-5.35068 0,-3.46419 -0.03043,-5.32612 -0.08882,-5.43412 -0.04885,-0.0903 -0.251897,-0.2467 -0.451214,-0.34744 -0.686512,-0.34701 -2.068279,-0.29274 -2.422913,0.0951 -0.120355,0.13165 -0.12885,0.50128 -0.07667,3.33665 l 0.05868,3.18861 0.897294,0.2919 0.897294,0.29191 -0.01235,2.14669 c -0.0096,1.67804 0.01132,2.14668 0.09611,2.14668 0.05966,0 0.283803,-0.064 0.498099,-0.14226 z m 4.815822,-1.10043 c 0,-0.50158 -0.01619,-0.5556 -0.150404,-0.50179 -0.08272,0.0332 -0.401796,0.15489 -0.709051,0.27051 -0.307256,0.11561 -0.591036,0.24139 -0.630626,0.27953 -0.07154,0.0689 1.052198,0.49429 1.339677,0.50712 0.12875,0.006 0.150404,-0.0741 0.150404,-0.55537 z m -21.590287,-0.0787 c 0.02283,-0.15781 -0.1346232,-0.21165 -1.804856,-0.61713 -1.0064264,-0.24433 -1.8934106,-0.44409 -1.9710762,-0.44391 -0.1571027,0 -0.2804095,0.22419 -0.1630614,0.29599 0.1835979,0.11231 3.5065468,0.97012 3.6991193,0.95491 0.1432333,-0.0114 0.2232012,-0.0747 0.2398743,-0.18986 z m 20.46879,-0.29749 c 0.488679,-0.18851 0.989275,-0.39654 1.112434,-0.46231 0.12316,-0.0657 0.330284,-0.14195 0.460277,-0.16932 l 0.23635,-0.0497 v -5.72777 c 0,-5.39158 -0.009,-5.73582 -0.153545,-5.8653 -0.485027,-0.4345 -1.749821,-0.68008 -2.487451,-0.48298 -0.781081,0.20872 -0.710879,-0.44706 -0.710879,6.64059 v 6.27527 l 0.23635,0.0854 c 0.129992,0.047 0.277212,0.0884 0.327154,0.0921 0.04994,0.004 0.490631,-0.14753 0.97931,-0.33605 z m 3.957699,-0.21289 c 0,-0.3769 0.03587,-0.56929 0.111517,-0.59802 0.06133,-0.0233 0.609163,0.13239 1.217396,0.34597 0.608233,0.21358 1.134745,0.35827 1.170026,0.32152 0.03529,-0.0368 0.04277,-0.4975 0.01665,-1.0239 -0.03288,-0.66247 -0.0793,-0.9571 -0.150806,-0.9571 -0.132304,0 -4.361594,1.61192 -4.453483,1.69736 -0.03794,0.0353 0.368148,0.22055 0.902428,0.4117 0.534278,0.19113 1.01976,0.34992 1.078847,0.35283 0.07552,0.004 0.107432,-0.15973 0.107432,-0.55036 z m 1.031346,-1.68904 1.160265,-0.4481 -0.01787,-0.37098 c -0.01113,-0.23114 -0.06783,-0.39867 -0.150405,-0.44442 -0.0729,-0.0404 -0.13254,-0.12182 -0.13254,-0.18098 0,-0.13689 1.821032,-1.03192 2.277556,-1.11939 0.342542,-0.0656 0.341301,-0.0664 -0.343782,-0.20273 -0.546135,-0.1087 -0.811314,-0.21914 -1.289183,-0.53689 -0.330891,-0.22002 -0.701166,-0.48776 -0.822835,-0.59497 -0.392937,-0.34627 -0.66817,-0.85796 -0.775679,-1.44211 -0.134487,-0.73074 -0.0292,-1.27141 0.435055,-2.23428 0.401555,-0.83282 0.43526,-1.20779 0.177199,-1.97142 -0.09338,-0.27631 -0.170729,-0.6329 -0.171891,-0.7924 -0.0017,-0.23831 0.07037,-0.3559 0.404254,-0.65934 0.223503,-0.20312 0.481517,-0.36931 0.573365,-0.36931 0.09185,0 0.237724,0.0633 0.324169,0.14079 0.150157,0.13452 0.157597,0.12218 0.166687,-0.27648 0.0053,-0.22952 0.02323,-0.90371 0.04001,-1.49821 0.02392,-0.84764 0.007,-1.07197 -0.07852,-1.0395 -0.05996,0.0228 -0.251434,-0.0175 -0.425503,-0.0895 -0.174068,-0.0719 -0.578116,-0.13776 -0.897883,-0.14615 -0.44105,-0.0115 -0.684873,0.0307 -1.010054,0.17492 -0.235761,0.10461 -0.516158,0.27157 -0.623104,0.37101 l -0.194449,0.18082 v 7.00387 c 0,5.54904 0.02231,7.00282 0.107432,6.99884 0.05909,-0.003 0.629551,-0.20665 1.267696,-0.45309 z m 5.172772,-0.7542 c 0.02064,-0.21192 0.07209,-0.28285 0.22031,-0.30369 0.106358,-0.015 0.192849,-0.0723 0.192203,-0.12761 -6.87e-4,-0.0553 -0.281043,-0.39754 -0.623105,-0.76067 l -0.621931,-0.66025 -0.580132,0.13547 c -0.551617,0.12882 -0.684224,0.21801 -0.495636,0.33339 0.05141,0.0315 0.06288,0.30482 0.02929,0.69825 l -0.05521,0.64655 0.210658,-0.0523 c 0.115862,-0.0287 0.424727,-0.0773 0.686366,-0.10767 0.456749,-0.0532 0.484009,-0.045 0.683973,0.20514 0.114547,0.14328 0.234821,0.26262 0.267279,0.26521 0.03245,0.003 0.07113,-0.11971 0.08595,-0.27178 z m -2.695126,0.0542 c 0.286587,-0.0437 0.390169,-0.10411 0.451214,-0.26304 0.102616,-0.26718 0.09981,-0.96709 -0.0046,-1.13046 -0.06873,-0.10762 -0.190467,-0.0734 -0.796875,0.22436 l -0.71575,0.35137 0.03013,0.37118 c 0.0465,0.57282 0.07155,0.60877 0.38541,0.5529 0.153128,-0.0272 0.445806,-0.0751 0.650395,-0.10631 z m -14.595963,-2.74436 v -1.59549 l -0.23635,-0.2225 c -0.129993,-0.12238 -0.432358,-0.31948 -0.67192,-0.438 -0.348313,-0.17231 -0.537702,-0.21042 -0.945401,-0.19016 -0.280407,0.014 -0.654864,0.0729 -0.832127,0.13091 l -0.322295,0.10559 v 1.6949 c 0,1.17191 0.02906,1.6949 0.09417,1.6949 0.05179,0 0.196827,-0.0588 0.322296,-0.13068 0.215187,-0.12327 0.291488,-0.10943 1.345415,0.24397 0.614511,0.20607 1.146299,0.35832 1.181751,0.33836 0.03546,-0.02 0.06446,-0.75428 0.06446,-1.6318 z m 16.415494,0.35054 c 0.165391,-0.0818 0.355523,-0.26294 0.422517,-0.40251 0.09887,-0.20596 0.105214,-0.39818 0.03368,-1.0209 -0.06325,-0.55058 -0.16433,-0.92714 -0.358056,-1.33389 -0.148463,-0.31172 -0.269932,-0.65854 -0.269932,-0.77075 0,-0.1122 0.08058,-0.5194 0.179057,-0.9049 0.168561,-0.65981 0.170652,-0.7136 0.03567,-0.91752 -0.105658,-0.15962 -0.192342,-0.20361 -0.329462,-0.16721 -0.102343,0.0272 -0.261153,0.0499 -0.35291,0.0505 -0.161184,0.001 -0.161456,0.005 -0.008,0.1161 0.132216,0.0957 0.149283,0.18354 0.102002,0.52499 -0.03122,0.22554 -0.07888,0.43194 -0.105904,0.45869 -0.02702,0.0267 -0.287911,-0.083 -0.579763,-0.24385 -0.29185,-0.16087 -0.617356,-0.33286 -0.723345,-0.38221 -0.200798,-0.0935 -0.233044,-0.25827 -0.140332,-0.71715 0.03366,-0.16659 0.105864,-0.26601 0.193378,-0.26628 0.102304,0 0.07817,-0.0515 -0.09022,-0.19141 -0.212752,-0.17676 -0.381692,-0.51602 -0.687968,-1.38154 -0.06613,-0.18686 -0.185018,-0.35212 -0.264198,-0.36721 -0.249815,-0.0476 -0.273455,0.36223 -0.06308,1.09359 0.260339,0.90505 0.213706,1.63839 -0.14901,2.34327 -0.513774,0.99845 -0.563128,1.16969 -0.497771,1.72712 0.09239,0.78796 0.569351,1.54305 1.404659,2.22375 0.563009,0.45879 0.663981,0.51927 0.999981,0.59898 0.461714,0.10954 0.940709,0.0828 1.249056,-0.0697 z m -1.501388,-0.66724 c -0.471478,-0.17084 -0.785879,-0.49474 -1.087717,-1.12059 -0.215896,-0.44764 -0.247831,-0.59436 -0.199213,-0.91527 0.03184,-0.2102 0.165219,-0.52883 0.296391,-0.70808 0.175487,-0.2398 0.341434,-0.35443 0.628129,-0.43388 0.358339,-0.0993 0.422504,-0.0918 0.798888,0.0926 0.437414,0.21446 0.858242,0.71529 1.044354,1.24289 0.05955,0.1688 0.132561,0.56571 0.162259,0.882 0.05249,0.55907 0.04665,0.58237 -0.209083,0.83551 -0.2235,0.22125 -0.325494,0.25952 -0.677933,0.25443 -0.228168,-0.003 -0.568403,-0.0616 -0.756075,-0.12966 z m 1.123758,-0.27034 c 0.0995,-0.0809 0.204077,-0.21252 0.232383,-0.2926 0.02831,-0.0801 0.01561,-0.36365 -0.0282,-0.63016 -0.102243,-0.62184 -0.538021,-1.34516 -0.917927,-1.52362 -0.156008,-0.0733 -0.283651,-0.16972 -0.283651,-0.21432 0,-0.0446 -0.09635,-0.0811 -0.214116,-0.0811 -0.129264,0 -0.320382,0.10957 -0.482269,0.2765 -0.497148,0.51261 -0.541796,0.91702 -0.171413,1.55261 0.136335,0.23397 0.347574,0.51717 0.469421,0.62934 0.186727,0.1719 0.824516,0.41284 1.128914,0.42647 0.04727,0.002 0.167359,-0.0623 0.266862,-0.14313 z m -2.944195,-0.21555 c -0.134648,-0.15469 -0.260011,-0.24355 -0.278583,-0.19749 -0.031,0.0769 0.369186,0.47873 0.476754,0.47873 0.02565,0 -0.06352,-0.12656 -0.198171,-0.28124 z m -0.566277,-1.01616 c -0.04572,-0.24565 -0.06474,-0.7078 -0.04228,-1.02699 0.03019,-0.42885 0.01569,-0.55543 -0.05554,-0.48493 -0.13581,0.13444 -0.124606,1.52619 0.01423,1.76715 0.06066,0.10528 0.122986,0.19142 0.138505,0.19142 0.01552,0 -0.0092,-0.20099 -0.05492,-0.44665 z m 0.364435,-2.28579 c 0,-0.0468 -0.03868,-0.0614 -0.08595,-0.0325 -0.04727,0.0289 -0.08595,0.0908 -0.08595,0.13765 0,0.0468 0.03867,0.0614 0.08595,0.0325 0.04727,-0.0289 0.08595,-0.0908 0.08595,-0.13765 z m 2.664311,-0.49822 c 0,-0.16173 -0.233294,-0.3255 -0.729953,-0.51242 -0.180703,-0.068 -0.215447,-0.0563 -0.215447,0.0727 0,0.0951 0.155651,0.23949 0.40824,0.37865 0.224533,0.12371 0.437249,0.22586 0.472701,0.227 0.03545,10e-4 0.06446,-0.0736 0.06446,-0.16589 z m -2.308272,-0.85295 c -0.0053,-0.33815 -0.0875,-0.78071 -0.21152,-1.13919 -0.280992,-0.81217 -0.350122,-0.50767 -0.08622,0.3798 0.16072,0.54048 0.203075,0.84245 0.172141,1.22731 -0.03226,0.40138 -0.02229,0.465 0.04664,0.29776 0.04822,-0.11697 0.08375,-0.46153 0.07895,-0.76568 z m 2.137161,-7.91198 c 0.01023,-0.15615 -0.131709,-1.49534 -0.168036,-1.58537 -0.0025,-0.006 -0.09715,-0.0714 -0.210211,-0.14482 l -0.205577,-0.13334 -0.0951,0.65528 c -0.07822,0.53902 -0.07225,0.72936 0.03368,1.07289 0.106217,0.34445 0.128783,1.08526 0.128783,4.22767 v 3.81003 l 0.193378,0.13414 0.193377,0.13413 0.05788,-3.97896 c 0.03183,-2.18842 0.06415,-4.07467 0.07182,-4.19165 z m -0.983039,-0.051 c -0.142553,-0.38876 -0.18586,-0.62059 -0.133886,-0.71673 0.105674,-0.19544 0.262439,-1.19597 0.202445,-1.29205 -0.02682,-0.043 -0.117373,-0.0167 -0.201226,0.0585 -0.123132,0.1103 -0.16043,0.32005 -0.193879,1.09025 -0.02868,0.66033 -0.0059,1.07143 0.07412,1.33651 0.08704,0.28842 0.115764,1.11303 0.116466,3.34342 8.59e-4,2.65808 0.0163,2.9884 0.151334,3.23286 0.145622,0.26361 0.151119,0.16492 0.172872,-3.10292 l 0.02246,-3.3752 z m 74.104715,45.57771 c 0.2978,-0.13264 0.57521,-0.27563 0.61648,-0.31774 0.0413,-0.0421 0.0877,-0.19043 0.10315,-0.32959 0.0259,-0.23293 0.0878,-0.27583 0.77987,-0.54022 0.71029,-0.27135 0.88973,-0.44035 0.46758,-0.44035 -0.18187,0 -0.79067,-0.34289 -1.89651,-1.06817 -0.6777,-0.44446 -1.15643,-1.15252 -1.50974,-2.23296 -0.28547,-0.87294 -0.33395,-1.53244 -0.16225,-2.20741 0.15048,-0.59158 0.41053,-0.98504 1.14549,-1.7332 0.66013,-0.67198 1.44715,-1.24115 2.19202,-1.58527 1.00079,-0.46235 2.33231,-0.98558 3.0013,-1.17942 0.9568,-0.27722 2.56427,-0.54781 3.27273,-0.55093 0.92602,-0.004 1.01652,0.0492 1.51332,0.89071 0.24144,0.40899 0.4791,0.78332 0.52812,0.83184 0.0615,0.0609 0.29428,0.0462 0.75194,-0.0474 0.79694,-0.16314 1.2795,-0.17319 1.40026,-0.0291 0.0654,0.078 -0.11583,0.4436 -0.67703,1.36577 -0.42151,0.69258 -0.76636,1.28301 -0.76636,1.31205 0,0.029 0.087,-0.022 0.19338,-0.11344 0.34178,-0.2938 0.99478,-0.71663 1.30473,-0.84481 0.38676,-0.15996 1.11254,-0.1635 1.24454,-0.006 0.0547,0.0652 0.12718,0.27973 0.16116,0.47673 l 0.0618,0.3582 0.34354,-0.42648 c 0.18895,-0.23457 0.47056,-0.48737 0.62579,-0.56181 0.33276,-0.15954 0.9719,-0.17854 1.11868,-0.0333 0.13659,0.13521 0.13058,0.60683 -0.0148,1.16164 -0.0649,0.24754 -0.0862,0.41859 -0.0473,0.38011 0.1009,-0.1 0.93878,-1.78857 0.93878,-1.89193 0,-0.1152 0.21536,-0.21721 0.71132,-0.33698 0.45901,-0.11082 0.74999,-0.0229 0.74944,0.22649 0,0.0802 -0.0776,0.27124 -0.17189,0.42445 -0.0944,0.15319 -0.17143,0.32547 -0.17126,0.38284 0,0.0574 0.0724,-0.0106 0.16046,-0.15095 0.23249,-0.37054 0.4898,-0.57973 1.21435,-0.98733 0.47772,-0.26873 0.73028,-0.35963 0.97556,-0.35113 0.18202,0.006 0.42374,0.0716 0.53715,0.1452 0.16999,0.11025 0.20593,0.20437 0.20464,0.5359 -0.001,0.28343 -0.0762,0.53627 -0.25461,0.85656 -0.1392,0.24993 -0.19618,0.40768 -0.12664,0.35055 0.13211,-0.10852 1.00567,-1.6256 1.88686,-3.27684 0.28362,-0.53146 0.55435,-1.00251 0.60162,-1.04678 0.13666,-0.12797 1.3647,-0.35065 1.45437,-0.26371 0.048,0.0465 -0.32917,0.90795 -0.95661,2.18482 -0.56973,1.15939 -1.02101,2.12409 -1.00283,2.14377 0.0553,0.0599 0.47048,-0.35718 0.68205,-0.68529 0.17322,-0.26861 1.06421,-1.20134 1.52481,-1.59623 0.22368,-0.19178 0.80888,-0.34627 1.31727,-0.34776 0.29131,-8.5e-4 0.47805,-0.0458 0.5509,-0.13274 0.0807,-0.0964 0.23862,-0.12475 0.59065,-0.10634 0.44986,0.0235 0.48214,0.0396 0.50709,0.25341 0.018,0.15386 -0.14648,0.54221 -0.50433,1.19104 -0.60898,1.10418 -0.72891,1.37506 -0.58828,1.32866 0.0526,-0.0174 0.41701,-0.63943 0.80978,-1.38236 0.45487,-0.86038 0.78702,-1.38977 0.91489,-1.45816 0.11041,-0.0591 0.39413,-0.16585 0.63048,-0.23731 0.35928,-0.10864 0.44878,-0.11124 0.54597,-0.0159 0.0973,0.0954 0.19884,0.0808 0.6214,-0.0891 0.75543,-0.30386 1.05622,-0.26469 1.23706,0.16105 0.0679,0.15984 0.0836,0.35968 0.0424,0.54025 -0.0359,0.15762 -0.0562,0.28656 -0.0452,0.28656 0.0111,0 0.2007,-0.23016 0.42142,-0.51149 0.3445,-0.43915 0.50243,-0.55776 1.11645,-0.83857 0.39335,-0.17989 0.84746,-0.35182 1.00914,-0.38206 0.27403,-0.0512 0.32774,-0.12109 0.79306,-1.03106 0.47332,-0.92562 0.52143,-0.98716 0.93097,-1.19078 0.23752,-0.11809 0.5205,-0.21471 0.62885,-0.21471 0.10835,0 0.36202,-0.0577 0.5637,-0.12807 0.69701,-0.24343 0.67881,-0.13442 -0.31692,1.89834 -0.49718,1.01498 -0.92377,1.89328 -0.94797,1.95176 -0.0309,0.0747 0.0592,0.10635 0.30285,0.10635 0.39012,0 0.63888,0.18234 0.55464,0.40656 -0.0823,0.21922 -0.36921,0.6169 -0.70916,0.98311 -0.46617,0.50218 -0.87638,0.67311 -1.67746,0.69901 -0.45174,0.0146 -0.84337,0.0834 -1.14022,0.20037 -0.47489,0.18709 -1.26116,0.23969 -1.35425,0.0906 -0.0327,-0.0524 -0.21612,0.0297 -0.45628,0.20394 -0.43864,0.31833 -1.02213,0.51295 -1.27337,0.42472 -0.0878,-0.0308 -0.24663,-0.13358 -0.353,-0.22834 -0.14344,-0.12782 -0.19337,-0.26655 -0.19337,-0.53734 0,-0.20077 0.0608,-0.54228 0.13509,-0.75892 0.0743,-0.21662 0.12265,-0.40613 0.10743,-0.4211 -0.0152,-0.015 -0.13436,0.0637 -0.26479,0.1748 -0.13042,0.11111 -0.45112,0.63363 -0.71267,1.16117 -0.26155,0.52753 -0.52639,0.98731 -0.58854,1.02172 -0.0621,0.0345 -0.58457,0.0868 -1.16092,0.1163 -0.73129,0.0375 -1.12296,0.0229 -1.29625,-0.0481 -0.22593,-0.0926 -0.27871,-0.0777 -0.58545,0.16637 -0.18543,0.1475 -0.50685,0.31848 -0.71429,0.37995 -0.5173,0.1533 -0.9113,0.0824 -1.08656,-0.19551 -0.0776,-0.12297 -0.15311,-0.23994 -0.16791,-0.25993 -0.0148,-0.02 -0.13286,0.059 -0.26235,0.17552 -0.23164,0.20841 -0.33515,0.2831 -0.99794,0.72007 -0.32785,0.21615 -0.33822,0.21733 -0.70221,0.0797 -0.27315,-0.10326 -0.39298,-0.20649 -0.45973,-0.39599 l -0.0902,-0.25634 -0.36778,0.35514 c -0.32751,0.31623 -0.90647,0.72457 -1.39913,0.98677 -0.32955,0.17539 -0.19193,0.31507 0.44467,0.45137 0.33912,0.0727 0.64515,0.16058 0.68006,0.19548 0.0349,0.0349 -0.16174,0.56459 -0.43703,1.17709 -0.53022,1.17972 -0.52524,1.17493 -1.01,0.97324 -0.13444,-0.056 -0.15041,-0.003 -0.15041,0.49951 v 0.56209 h 0.81649 c 0.70189,0 0.84061,0.0239 0.98837,0.17015 0.12096,0.11973 0.1719,0.28358 0.1719,0.55299 v 0.38284 h 0.72546 c 0.48715,0 0.74759,0.035 0.79282,0.10634 0.037,0.0585 0.0683,0.27862 0.0695,0.48918 l 0.002,0.38284 0.76564,0.0631 c 0.42108,0.0347 0.78528,0.0826 0.80932,0.10635 0.0241,0.0238 -0.43125,0.0432 -1.01173,0.0432 h -1.05543 l 0.0424,-0.2765 c 0.0233,-0.15207 0.006,-0.346 -0.0393,-0.43097 -0.0703,-0.13296 -0.17788,-0.15122 -0.77213,-0.13118 l -0.69044,0.0233 0.0433,0.31928 c 0.0272,0.20065 0.003,0.35231 -0.065,0.40821 -0.0737,0.0606 -2.1619,0.082 -6.54472,0.0671 l -6.43642,-0.0218 6.317,-0.17015 6.317,-0.17015 -0.0173,-0.37158 c -0.009,-0.20436 -0.038,-0.39207 -0.0632,-0.41713 -0.0522,-0.0516 -17.34111,0.3902 -17.90354,0.4576 -0.32776,0.0393 -0.36541,0.0672 -0.36659,0.27252 -8.5e-4,0.12581 -0.0297,0.26911 -0.0645,0.31845 -0.0347,0.0493 -0.39188,0.0966 -0.79368,0.10504 l -0.73053,0.0154 z m 9.79697,-1.06721 c 3.8426,-0.1094 7.01077,-0.2229 7.04037,-0.2522 0.0296,-0.0293 0.009,-0.0533 -0.0465,-0.0533 -0.0551,0 -0.10029,-0.0827 -0.10029,-0.18378 v -0.18381 l -2.20555,0.0562 c -1.21306,0.0309 -3.01025,0.0562 -3.99376,0.0562 -1.60432,0 -1.7828,0.014 -1.73543,0.13621 0.029,0.0749 -0.001,0.17002 -0.0672,0.21138 -0.066,0.0414 -0.38222,0.0758 -0.70278,0.0765 -0.46237,10e-4 -0.59404,-0.0276 -0.63707,-0.13862 -0.0321,-0.0829 0.004,-0.18207 0.0886,-0.24334 0.0786,-0.0569 0.14288,-0.12216 0.14288,-0.14507 0,-0.0229 -0.29973,0.0426 -0.66607,0.14553 -0.36635,0.10295 -1.12601,0.23805 -1.68815,0.3002 -0.77973,0.0862 -1.17632,0.091 -1.67263,0.0202 -0.60587,-0.0864 -0.68882,-0.0785 -1.20782,0.11485 -0.30649,0.11419 -0.57549,0.22566 -0.59776,0.24772 -0.0619,0.0613 0.53472,0.049 8.04902,-0.1649 z m 9.70232,-0.4118 c 0.14314,-0.14179 0.12323,-0.14889 -0.41756,-0.14889 -0.4143,0 -0.58069,0.0331 -0.61524,0.1222 -0.0261,0.0672 -0.19457,0.13942 -0.37446,0.16048 -0.17991,0.021 0.0293,0.0331 0.46492,0.0267 0.62898,-0.009 0.82297,-0.0422 0.94234,-0.16048 z m -14.15349,-0.22851 c 0.74338,-0.0593 1.28613,-0.1553 1.76189,-0.31155 0.37816,-0.12418 1.19034,-0.33082 1.80486,-0.45918 0.6145,-0.12836 1.75543,-0.41031 2.53538,-0.62657 0.77996,-0.21625 1.86287,-0.47448 2.40648,-0.57382 0.82546,-0.15089 1.18669,-0.17275 2.19161,-0.13269 0.75216,0.0301 1.46086,0.11085 1.89043,0.2157 0.37795,0.0922 0.69857,0.15646 0.71246,0.1427 0.0139,-0.0138 0.13766,-0.28829 0.27501,-0.61008 l 0.24973,-0.58505 -0.31761,-0.0784 c -0.17467,-0.0431 -0.82038,-0.0791 -1.43489,-0.08 -1.71017,-0.003 -3.58172,0.32836 -5.71538,1.01046 -0.68541,0.21912 -1.45892,0.44953 -1.71891,0.51202 -0.25999,0.0625 -0.95614,0.27225 -1.54702,0.46612 -1.84735,0.60614 -2.8525,0.71865 -4.17777,0.46766 -0.80041,-0.1516 -1.34107,-0.47688 -2.17554,-1.30891 -0.50104,-0.49956 -0.58239,-0.62808 -0.7157,-1.13059 -0.2101,-0.79194 -0.20384,-2.13685 0.0128,-2.74693 0.30287,-0.853 1.47704,-2.14538 2.61797,-2.88155 0.959,-0.61878 2.66593,-1.23798 3.10915,-1.12787 0.17741,0.0441 0.29061,0.20207 0.55943,0.78077 l 0.33701,0.72551 -0.26164,0.51304 -0.26163,0.51305 0.28458,-0.0613 c 0.15653,-0.0337 0.36937,-0.0928 0.47298,-0.13153 0.20246,-0.0755 0.8,-0.89016 0.8,-1.0907 0,-0.0668 -0.18097,-0.44057 -0.40214,-0.8306 -0.40137,-0.70784 -0.40279,-0.70918 -0.75202,-0.70861 -0.43236,8.5e-4 -2.13529,0.28662 -2.78839,0.46817 -0.72976,0.20287 -2.69087,0.98093 -3.55747,1.41141 -0.85178,0.42312 -2.0776,1.51868 -2.50234,2.23645 -0.12251,0.20703 -0.24853,0.62105 -0.30869,1.01418 -0.0793,0.5178 -0.0785,0.76175 0.003,1.10598 0.11617,0.48781 0.76351,1.87407 1.0023,2.14639 0.43973,0.50146 2.17582,1.43164 3.08851,1.65476 0.65597,0.16037 1.18697,0.23728 1.3608,0.1971 0.0473,-0.011 0.56939,-0.0585 1.16027,-0.10562 z m 2.83621,-0.0905 c 0,-0.0946 -0.0573,-0.17015 -0.12892,-0.17015 -0.14465,0 -0.15047,0.0156 -0.0767,0.20573 0.0737,0.19009 0.20567,0.16725 0.20567,-0.0356 z m 9.5879,-0.69442 c -0.003,-0.54409 -0.0374,-0.7903 -0.11241,-0.8153 -0.08,-0.0266 -0.10743,0.13795 -0.10743,0.64491 0,0.37441 -0.0235,0.74129 -0.0522,0.81531 -0.0363,0.0938 -0.002,0.13457 0.11241,0.13457 0.15052,0 0.16414,-0.0665 0.1596,-0.77949 z m -2.3115,0.43919 h 1.66193 v -0.67222 -0.67219 l -1.00955,-0.0624 c -1.22062,-0.0755 -1.8242,0.006 -3.78631,0.50907 -0.78936,0.20252 -1.84128,0.47114 -2.33762,0.59692 -0.49633,0.12579 -1.01845,0.26349 -1.16026,0.30601 -0.16101,0.0482 0.7238,0.0618 2.35602,0.0361 1.43762,-0.0227 3.36172,-0.0412 4.27579,-0.0412 z m -9.21018,-0.56991 c 0.31257,-0.0523 0.32429,-0.0631 0.12892,-0.11819 -0.11818,-0.0334 -0.36957,-0.0639 -0.55864,-0.068 -0.34148,-0.007 -1.2327,-0.18008 -2.07019,-0.40127 -0.27448,-0.0724 -0.58215,-0.24174 -0.82661,-0.45474 -0.29734,-0.25908 -0.46541,-0.51444 -0.71094,-1.0802 -0.31074,-0.71601 -0.32039,-0.76827 -0.28727,-1.55528 0.0306,-0.7255 0.0655,-0.87209 0.32056,-1.34311 0.15745,-0.29081 0.43577,-0.69279 0.61848,-0.89329 0.18271,-0.2005 0.33275,-0.38729 0.33342,-0.41506 0.002,-0.0873 1.3135,-1.14718 1.76309,-1.42487 0.62764,-0.38767 0.36875,-0.32801 -0.31084,0.0716 -0.31826,0.18717 -0.61842,0.34031 -0.667,0.34031 -0.13785,0 -1.37257,1.18565 -1.72764,1.65896 -0.57516,0.76675 -0.63664,0.94196 -0.64175,1.82911 -0.009,1.54337 0.11172,1.85554 1.05413,2.7288 0.41034,0.38024 0.85703,0.74825 0.99263,0.81779 0.56241,0.28845 1.8151,0.43716 2.58965,0.30741 z m 1.5156,-0.83383 c 0.0337,-0.14037 0.0869,-0.3365 0.11801,-0.43585 0.0488,-0.15557 0.0134,-0.18865 -0.25541,-0.23857 -0.22465,-0.0417 -0.35899,-0.13411 -0.47956,-0.32983 -0.0921,-0.14953 -0.1676,-0.38836 -0.16778,-0.53074 0,-0.17708 0.31435,-0.79069 0.99563,-1.94213 0.54777,-0.92581 0.97955,-1.69951 0.95951,-1.71935 -0.02,-0.0198 -0.24585,0.0345 -0.50177,0.12076 -0.32704,0.11023 -0.59036,0.14191 -0.88608,0.10656 -0.62511,-0.0747 -0.66021,-0.20241 -0.26464,-0.96306 l 0.33118,-0.63681 -0.18164,-0.41626 c -0.0999,-0.22894 -0.24164,-0.42844 -0.31493,-0.44335 -0.22167,-0.045 -1.75403,0.66615 -2.31714,1.07547 -0.29025,0.21098 -0.73424,0.57823 -0.98664,0.81613 -0.41002,0.38645 -0.99665,1.17314 -1.30135,1.74516 -0.0605,0.11366 -0.14354,0.5026 -0.18441,0.86431 -0.0737,0.65155 -0.0713,0.66424 0.25812,1.36723 0.18284,0.39026 0.48243,0.8677 0.66572,1.06093 0.27425,0.28913 0.42461,0.37021 0.84894,0.45778 0.28362,0.0586 0.70905,0.15591 0.94541,0.21637 0.26266,0.0672 0.8628,0.10422 1.54361,0.0953 l 1.11388,-0.0148 z m 0.71121,-0.0847 c 0.0279,-0.10999 0.15221,-0.31939 0.27628,-0.46536 0.12406,-0.14595 0.20941,-0.28137 0.18965,-0.30094 -0.0198,-0.0196 -0.1116,-0.0159 -0.20408,0.008 -0.0949,0.0246 -0.26833,0.24217 -0.39808,0.49922 -0.12648,0.25054 -0.20972,0.47557 -0.18498,0.50007 0.0905,0.0896 0.27185,-0.0464 0.32121,-0.24111 z m 1.37223,-0.26879 c 0.1832,-0.063 0.45393,-0.11526 0.60161,-0.11624 0.14768,-10e-4 0.53925,-0.0999 0.87013,-0.21977 0.92312,-0.33445 1.26887,-0.43809 2.70729,-0.81145 1.12946,-0.29317 2.8736,-0.65058 3.2428,-0.6645 0.0582,-0.002 0.13008,-0.0997 0.15974,-0.21668 0.0296,-0.11698 0.0909,-0.21268 0.13604,-0.21268 0.0452,0 -0.003,-0.14956 -0.10656,-0.33235 -0.14988,-0.26396 -0.18071,-0.42769 -0.14988,-0.7957 l 0.0388,-0.46336 -0.30683,0.36911 c -0.16876,0.203 -0.48088,0.57951 -0.69359,0.83668 -0.58432,0.70645 -0.96586,0.98053 -1.48431,1.06627 -0.37473,0.062 -0.48519,0.049 -0.66432,-0.0778 -0.167,-0.11822 -0.22071,-0.24024 -0.24107,-0.54765 -0.0144,-0.21755 -0.0541,-0.39555 -0.0883,-0.39555 -0.0342,0 -0.26667,0.23005 -0.5167,0.51121 -0.25001,0.28116 -0.57769,0.57265 -0.72817,0.64777 -0.15047,0.0752 -0.37028,0.22434 -0.48845,0.33162 -0.3748,0.34024 -1.25947,0.4847 -1.77778,0.29031 -0.13306,-0.0499 -0.33516,-0.17433 -0.44908,-0.2765 -0.16061,-0.14403 -0.19545,-0.15348 -0.15513,-0.0421 0.0333,0.0919 -0.0655,0.29084 -0.27461,0.553 -0.17964,0.22513 -0.37183,0.49469 -0.4271,0.59904 -0.0961,0.18159 -0.0884,0.18739 0.18094,0.13573 0.15478,-0.0297 0.43132,-0.10548 0.61452,-0.16845 z m -1.47881,-0.71256 c 0.17344,-0.0477 0.50218,-0.25203 0.73053,-0.4541 0.22834,-0.20208 0.51513,-0.39169 0.63729,-0.42136 0.17397,-0.0423 0.27363,-8.5e-4 0.45965,0.19145 0.13064,0.13498 0.37047,0.2701 0.53294,0.30027 0.38,0.0705 0.79246,-0.0718 1.49257,-0.51529 0.50494,-0.31984 0.84954,-0.64575 1.69611,-1.60413 0.16954,-0.19193 0.33719,-0.30285 0.42972,-0.2843 0.16571,0.0333 0.16716,0.0899 0.0223,0.87392 -0.0828,0.44862 -0.0766,0.52105 0.0531,0.61496 0.18261,0.13218 0.49924,0.0656 0.89278,-0.18767 0.48838,-0.31432 0.83576,-0.70319 1.20522,-1.34919 0.19111,-0.33414 0.38461,-0.66494 0.43001,-0.73513 0.12974,-0.20059 0.58987,-1.2288 0.56217,-1.25623 -0.0137,-0.0136 -0.12766,0.014 -0.25324,0.0613 -0.12558,0.0472 -0.268,0.18919 -0.31648,0.31542 -0.1655,0.4309 -0.78193,1.59174 -1.05023,1.97773 -0.30045,0.43229 -0.59679,0.71807 -0.93406,0.90082 -0.1945,0.10538 -0.24222,0.10607 -0.32719,0.005 -0.0774,-0.0922 -0.0518,-0.21183 0.11467,-0.53699 0.2888,-0.56412 0.56913,-1.40588 0.56913,-1.70888 0,-0.13612 -0.058,-0.29507 -0.1287,-0.35323 -0.10558,-0.0867 -0.18245,-0.0652 -0.42744,0.11978 -0.1643,0.12405 -0.77933,0.75077 -1.36675,1.39273 -0.86747,0.948 -1.14129,1.19402 -1.45817,1.31009 -0.63359,0.23206 -1.09275,0.0133 -0.97195,-0.46317 0.0435,-0.17138 0.15305,-0.25104 0.50418,-0.36649 0.74587,-0.24522 1.17747,-0.45991 1.2705,-0.63196 0.0485,-0.0898 0.11101,-0.32759 0.13882,-0.52847 0.0414,-0.29899 0.0189,-0.39364 -0.12433,-0.5219 -0.17086,-0.15308 -0.1874,-0.15018 -0.71781,0.12557 -0.59456,0.3091 -1.67518,1.31068 -1.92024,1.77978 -0.20719,0.39663 -1.06506,1.27195 -1.24658,1.27195 -0.20259,0 -0.3707,-0.21957 -0.31872,-0.4163 0.0236,-0.0891 0.62954,-1.14652 1.34669,-2.34986 0.71714,-1.20334 1.28821,-2.20339 1.26907,-2.22234 -0.0192,-0.019 -0.23342,0.008 -0.47616,0.0592 -0.31683,0.0672 -0.48642,0.15776 -0.60112,0.3208 -0.0879,0.12491 -0.72644,1.18711 -1.41903,2.36045 -1.08052,1.83057 -1.25924,2.18412 -1.25924,2.49119 0,0.29158 0.0358,0.37208 0.19337,0.43478 0.25848,0.10284 0.39273,0.10286 0.76659,8e-5 z m 3.16791,-2.4191 c -0.13022,-0.1553 0.0334,-0.47023 0.50718,-0.97633 0.32319,-0.34521 0.36553,-0.36616 0.49026,-0.2427 0.11356,0.11242 0.12005,0.18458 0.0385,0.42914 -0.1,0.30005 -0.30149,0.51852 -0.70826,0.76808 -0.19394,0.11899 -0.24345,0.12228 -0.32768,0.0218 z m 6.20708,1.68474 c -0.0591,-0.0236 -0.15578,-0.0236 -0.21487,0 -0.0591,0.0236 -0.0108,0.0429 0.10743,0.0429 0.11818,0 0.16652,-0.0193 0.10744,-0.0429 z m 0.29263,-0.50031 c 0.0696,-0.17955 -0.0466,-0.27647 -0.14559,-0.12148 -0.10522,0.16467 -0.1031,0.25276 0.006,0.25276 0.0487,0 0.11154,-0.0591 0.13953,-0.13128 z m -7.53,-2.38427 c 0.6691,-1.10279 1.19784,-2.02362 1.17496,-2.04627 -0.0472,-0.0467 -0.027,-0.0788 -1.39487,2.22226 -1.20521,2.02741 -1.09248,1.82911 -1.03982,1.82911 0.0238,0 0.5906,-0.90229 1.25973,-2.0051 z m 1.47693,1.8259 c 0.15478,-0.0986 0.20406,-0.15015 0.10951,-0.11465 -0.0945,0.0355 -0.29758,0.0821 -0.45121,0.10343 -0.15363,0.0214 -0.27932,0.0729 -0.27932,0.11465 0,0.13549 0.3329,0.0801 0.62102,-0.10343 z m 6.96779,-0.27808 c 0.2459,-0.15793 0.58246,-0.43467 0.7479,-0.61498 0.16545,-0.18032 0.21537,-0.25715 0.11092,-0.17072 -0.10443,0.0864 -0.35592,0.17565 -0.55886,0.19829 -0.297,0.0332 -0.4003,0.007 -0.52958,-0.1345 -0.0883,-0.0967 -0.1406,-0.22728 -0.11616,-0.29034 0.0245,-0.0631 0.19693,-0.15989 0.3833,-0.21515 0.73667,-0.21849 1.45714,-0.96862 1.50467,-1.56664 l 0.0222,-0.2793 -0.42973,0.0238 c -1.13382,0.0628 -2.10765,1.04995 -2.34559,2.37772 -0.0628,0.35045 -0.053,0.48255 0.0464,0.62291 0.12444,0.17586 0.38888,0.32016 0.60595,0.33065 0.0614,0.003 0.31276,-0.12381 0.55865,-0.28173 z m -0.028,-1.62996 c -0.0887,-0.10579 -0.0882,-0.16981 0.003,-0.33798 0.23616,-0.43679 0.55609,-0.72982 0.81617,-0.74753 0.22911,-0.0156 0.26018,0.0109 0.27885,0.23766 0.0124,0.15008 -0.0442,0.33132 -0.13724,0.43996 -0.15197,0.17743 -0.6853,0.53742 -0.79717,0.53808 -0.0296,0 -0.10316,-0.0584 -0.16335,-0.13019 z m 2.79527,1.06648 c 0.12213,-0.0459 0.45587,-0.31574 0.74166,-0.59951 0.28578,-0.28377 0.56365,-0.50141 0.61749,-0.48364 0.0538,0.0178 0.12296,0.15361 0.15359,0.3019 0.0307,0.14829 0.10749,0.33137 0.17078,0.40684 0.18106,0.21597 0.8093,0.0905 1.33341,-0.26625 0.42908,-0.29206 0.44715,-0.29622 0.86853,-0.19994 0.4826,0.11027 0.98638,0.0486 1.14463,-0.14016 0.11705,-0.13961 0.0222,-0.16478 -0.16915,-0.0449 -0.0759,0.0475 -0.18459,0.0459 -0.27933,-0.004 -0.28484,-0.1509 -0.18026,-0.54592 0.44659,-1.68668 0.33089,-0.60217 0.60162,-1.11783 0.60162,-1.1459 0,-0.10812 -0.3808,-0.0442 -0.5293,0.0888 -0.11195,0.10028 -0.33261,0.14261 -0.78029,0.14965 -0.56202,0.009 -0.67126,0.0401 -1.09689,0.3141 -0.53605,0.34502 -1.28918,1.06903 -1.28918,1.23931 0,0.17354 -0.59895,0.79423 -1.02669,1.06394 -0.38931,0.2455 -0.64368,0.30244 -0.73044,0.16351 -0.0266,-0.0426 0.43757,-1.06119 1.03145,-2.26356 0.59389,-1.20235 1.0678,-2.19457 1.05315,-2.20493 -0.0146,-0.0104 -0.18866,0.0147 -0.38666,0.0556 l -0.36,0.0744 -0.99364,1.79459 c -0.5465,0.98704 -0.99365,1.87019 -0.99365,1.96255 0,0.0923 -0.14131,0.29608 -0.31404,0.45269 -0.22681,0.20564 -0.29071,0.31516 -0.23006,0.3943 0.0462,0.0603 0.089,0.20455 0.0953,0.32062 0.006,0.11607 0.0808,0.26135 0.16561,0.32283 0.15285,0.11077 0.3265,0.0957 0.75549,-0.0658 z m 2.28603,-1.05394 c -0.0759,-0.0905 -0.0577,-0.22703 0.0785,-0.58723 0.23334,-0.61732 0.7001,-1.21131 1.11753,-1.4221 0.3931,-0.19851 0.59462,-0.21261 0.81009,-0.0567 0.14141,0.10236 0.14528,0.14468 0.0407,0.44664 -0.2041,0.58939 -0.60262,1.11117 -1.09268,1.43062 -0.4978,0.32451 -0.79153,0.38261 -0.9541,0.18872 z m 1.33428,-1.17823 c 0.34439,-0.67696 0.24238,-0.75385 -0.28378,-0.21389 -0.33709,0.34593 -0.62886,0.80714 -0.62886,0.99405 0,0.0497 0.13466,0.0243 0.30993,-0.0584 0.24051,-0.11353 0.37554,-0.27525 0.60271,-0.72178 z m 2.28805,1.29737 c 0.1035,-8.6e-4 0.28478,-0.26999 0.58809,-0.87319 0.67634,-1.34506 1.48062,-1.98137 1.72056,-1.3612 0.072,0.18611 0.0517,0.3496 -0.0996,0.79942 -0.11789,0.3506 -0.1688,0.64961 -0.13398,0.78694 0.0483,0.19038 0.1024,0.22148 0.38541,0.22148 0.22535,0 0.43501,-0.0761 0.66444,-0.24104 0.18436,-0.13257 0.38827,-0.30485 0.45314,-0.38283 0.14836,-0.17836 0.32772,-0.1807 0.50363,-0.007 0.10497,0.10391 0.22792,0.1219 0.53102,0.0777 0.21693,-0.0317 0.57486,-0.14673 0.79538,-0.25571 0.29892,-0.14772 0.48891,-0.18647 0.74654,-0.15226 0.58865,0.0782 1.09859,-0.0421 1.3863,-0.32688 0.24892,-0.24641 0.35768,-0.48401 0.1686,-0.36834 -0.13566,0.083 -0.48491,-0.0262 -0.54023,-0.16889 -0.0266,-0.0686 0.41792,-1.06676 0.98785,-2.21801 0.56993,-1.15124 1.01374,-2.11544 0.98624,-2.14266 -0.0275,-0.0272 -0.1959,0.004 -0.37422,0.0697 -0.29724,0.10931 -0.37172,0.21122 -0.89506,1.22459 -0.31397,0.60795 -0.61271,1.15055 -0.66388,1.20578 -0.0603,0.065 -0.25273,0.0843 -0.54645,0.0548 -0.36323,-0.0366 -0.54743,-0.004 -0.92612,0.16303 -0.25998,0.11481 -0.6407,0.37585 -0.84605,0.58009 -0.20533,0.20423 -0.50072,0.62164 -0.65641,0.92758 -0.31396,0.61695 -1.12644,1.44954 -1.41453,1.44954 -0.26958,0 -0.22643,-0.31918 0.16674,-1.23359 0.343,-0.79772 0.40424,-1.09259 0.27034,-1.30155 -0.0564,-0.0881 -0.16316,-0.0745 -0.52705,0.0675 -0.25095,0.0979 -0.55244,0.25292 -0.67001,0.34446 -0.27446,0.2137 -0.5081,0.2122 -0.57733,-0.004 -0.0624,-0.19481 -0.20638,-0.2174 -0.40655,-0.0638 -0.0762,0.0585 -0.39973,0.60403 -0.71887,1.21232 -0.31914,0.60828 -0.69357,1.25044 -0.83206,1.42702 -0.21094,0.26894 -0.23391,0.34239 -0.14153,0.45255 0.0655,0.0781 0.18259,0.11229 0.28814,0.0842 0.0979,-0.026 0.24523,-0.0478 0.32753,-0.0484 z m 4.76938,-1.83873 c -0.11409,-0.11294 -0.0663,-0.37392 0.14328,-0.78132 0.20878,-0.40602 0.434,-0.64677 0.82498,-0.88194 0.32284,-0.19419 0.76234,-0.32646 0.90486,-0.27233 0.21408,0.0813 0.14114,0.47991 -0.1812,0.99 -0.19576,0.30981 -0.43806,0.56185 -0.66608,0.69288 -0.38572,0.22165 -0.9234,0.35411 -1.02584,0.25271 z m 0.90017,-0.60835 c 0.0718,-0.0819 0.15401,-0.28288 0.18281,-0.44664 l 0.0524,-0.29776 -0.34114,0.38284 c -0.18763,0.21056 -0.34125,0.41154 -0.34138,0.44664 -8.6e-4,0.12295 0.31819,0.0624 0.44735,-0.0851 z m -23.9526,0.96226 c 0.13908,-0.25451 0.22209,-0.49321 0.18448,-0.53045 -0.0752,-0.0745 -0.29312,0.18172 -0.57353,0.67417 -0.17211,0.30223 -0.1733,0.31903 -0.0227,0.31903 0.10412,0 0.24611,-0.15956 0.4118,-0.46275 z m -0.12611,-1.57247 c -0.19539,-0.33116 -0.39577,-0.60211 -0.44529,-0.60211 -0.0495,0 0.0532,0.25842 0.22831,0.57426 0.29547,0.53297 0.46307,0.738 0.54058,0.66128 0.0175,-0.0172 -0.12821,-0.30227 -0.3236,-0.63343 z m -3.51591,0.35177 c -0.062,-0.0205 -0.15359,0.003 -0.20354,0.0526 -0.0637,0.0631 -0.0303,0.0742 0.11274,0.0372 0.11622,-0.03 0.15518,-0.0686 0.0907,-0.0899 z m 29.40573,-2.58641 c 0.22596,-0.47181 0.39271,-0.87578 0.37056,-0.89771 -0.0363,-0.036 -0.91033,1.6157 -0.91033,1.72048 0,0.0242 0.029,0.0421 0.0644,0.0396 0.0354,-0.002 0.24934,-0.39053 0.47532,-0.86235 z m 12.40743,13.4367 c 0.0174,-0.10528 0.88203,-8.00131 1.92156,-17.54674 1.03951,-9.54542 1.94792,-17.853 2.0187,-18.46129 0.0708,-0.60828 0.18663,-2.42676 0.25748,-4.04106 0.0708,-1.6143 0.16901,-3.81562 0.21817,-4.89183 0.326,-7.13896 0.42964,-9.64623 0.4345,-10.51145 0.003,-0.54066 -0.0944,-2.18687 -0.21663,-3.65822 -1.70121,-20.48555 -2.45458,-29.57975 -2.45458,-29.62989 0,-0.0335 0.087,-0.0987 0.19338,-0.14494 0.10635,-0.0462 0.42543,-0.25417 0.70905,-0.46205 0.70104,-0.51383 1.46089,-0.85925 2.07044,-0.94121 0.27937,-0.0376 0.5466,-0.0752 0.59388,-0.0836 0.0473,-0.008 0.20196,-0.0212 0.34377,-0.0283 l 0.25784,-0.0131 0.0245,-1.08462 c 0.0241,-1.06526 0.10374,-2.64443 0.26925,-5.33293 0.0459,-0.74566 0.0662,-1.38342 0.0451,-1.41725 -0.0211,-0.0339 -0.001,-0.34255 0.0437,-0.68606 0.0452,-0.3435 0.1008,-1.12224 0.12351,-1.73053 0.0227,-0.60829 0.1232,-2.55862 0.22331,-4.33407 0.14167,-2.51243 0.16237,-3.3872 0.0934,-3.94568 -0.0487,-0.39466 -0.0678,-0.75092 -0.0424,-0.7917 0.0712,-0.11392 0.30784,-0.0881 0.46255,0.0506 0.11253,0.10079 0.12875,0.22694 0.0848,0.65932 -0.0643,0.63368 -0.0573,0.80395 0.18591,4.49069 0.13487,2.04403 0.22088,2.88799 0.30411,2.98433 0.14016,0.16218 0.14957,0.30836 0.0225,0.35028 -0.0672,0.0221 -0.0649,0.38988 0.008,1.30448 0.056,0.70049 0.11783,1.56075 0.13736,1.91169 0.0195,0.35093 0.0759,1.15489 0.12539,1.78657 0.0494,0.63169 0.10685,1.43565 0.12762,1.78658 0.0729,1.23188 0.13378,1.73761 0.2218,1.84261 0.0516,0.0615 0.0605,0.18792 0.0211,0.30145 -0.0703,0.20307 -0.0637,0.70114 0.0202,1.53038 0.046,0.45443 0.065,0.48759 0.30833,0.5405 0.36334,0.079 1.31191,0.52644 1.87651,0.88516 0.26158,0.16619 0.6508,0.49358 0.86496,0.72755 0.64584,0.70555 1.21498,1.47283 1.15899,1.56251 -0.069,0.11059 -2.02825,23.89847 -2.02733,24.61511 0,0.26668 -0.0422,0.42357 -0.12789,0.471 -0.1007,0.0558 -0.1471,0.39201 -0.21503,1.55685 -0.17162,2.94332 -0.2565,6.67437 -0.25633,11.26936 0,3.55574 0.0407,5.41444 0.16917,7.74183 0.20356,3.68885 0.43271,7.11525 0.77594,11.60265 0.14095,1.84269 0.2564,3.60375 0.25655,3.91344 0,0.72345 0.90609,10.11007 1.41878,14.7039 0.069,0.61837 0.10455,1.28834 0.079,1.48881 -0.0262,0.2051 0.1811,2.37037 0.47395,4.95125 0.28624,2.52271 0.52044,4.65703 0.52044,4.74294 0,0.0995 -0.0624,0.15619 -0.1719,0.15619 -0.0945,0 -0.17157,-0.0287 -0.17117,-0.0638 8.6e-4,-0.0698 -9.9463,-88.57027 -10.02129,-89.16057 l -0.0462,-0.36344 -0.25099,0.17691 c -0.24363,0.17172 -0.2829,0.34226 -0.13344,0.57949 0.0397,0.063 2.38738,20.02801 5.21705,44.36666 2.82969,24.33864 5.14562,44.29993 5.14652,44.35842 9.4e-4,0.0585 -0.0714,0.10634 -0.16068,0.10634 -0.11621,0 -0.17566,-0.0786 -0.20926,-0.2765 -0.0258,-0.15207 -2.01224,-17.21706 -4.41427,-37.92221 -2.40204,-20.70515 -4.37843,-37.56916 -4.39198,-37.47558 -0.0225,0.15527 0.9108,8.78067 6.37468,58.9145 1.73095,15.88218 1.8139,16.71865 1.66058,16.74539 -0.0887,0.0155 -0.17846,0.0112 -0.19936,-0.009 -0.0209,-0.0207 -0.86586,-7.67097 -1.87768,-17.00063 -1.01184,-9.32965 -2.97353,-27.41448 -4.35934,-40.1885 -1.38581,-12.77402 -2.53024,-23.12979 -2.54319,-23.01282 -0.019,0.17128 4.70907,49.31985 7.15701,74.39816 0.30602,3.13502 0.5569,5.72876 0.55753,5.76384 8.5e-4,0.0351 -0.0865,0.0638 -0.19367,0.0638 h -0.19481 l -0.57632,-6.01907 c -2.73202,-28.53318 -5.95745,-61.79524 -5.9783,-61.65084 -0.0238,0.16488 0.18999,2.80611 0.71555,8.84049 0.11818,1.35695 0.23589,2.83087 0.26156,3.27539 0.0257,0.44452 1.01129,13.09731 2.19025,28.11732 1.17896,15.02 2.14365,27.33782 2.14375,27.3729 8e-5,0.0351 -0.0744,0.0638 -0.16555,0.0638 -0.13615,0 -0.17477,-0.0797 -0.21649,-0.44664 -0.0279,-0.24565 -0.93895,-11.81693 -2.02449,-25.71395 -1.08555,-13.89701 -2.0014,-25.47786 -2.03521,-25.73521 -0.0535,-0.40742 -0.0694,-0.31943 -0.12293,0.6806 -0.15844,2.96152 -0.15905,2.78844 0.0102,2.83219 0.12506,0.0324 0.1655,0.16146 0.209,0.66705 0.0296,0.3448 0.65137,10.9061 1.38157,23.46956 0.73022,12.56346 1.35239,23.15851 1.38263,23.54453 0.052,0.6638 0.0457,0.70187 -0.11733,0.70187 -0.138,0 -0.18168,-0.072 -0.21947,-0.36157 -0.026,-0.19886 -0.65882,-10.88275 -1.40638,-23.74197 -0.74755,-12.85923 -1.38336,-23.23413 -1.41289,-23.05534 -0.18452,1.11675 -0.1343,3.64855 0.47561,23.97592 0.3538,11.7914 0.6605,21.83133 0.68155,22.31094 L 161.98868,297 h -0.20561 c -0.19928,0 -0.20561,-0.0204 -0.20561,-0.66415 0,-0.64862 -1.09323,-37.24555 -1.13777,-38.08755 -0.0125,-0.23612 -0.0784,0.21809 -0.14806,1.0209 -0.10408,1.19848 -0.13,4.55468 -0.15139,19.58854 -0.0257,18.04251 -0.0267,18.14226 -0.19671,18.14226 -0.16982,0 -0.171,-0.0865 -0.18379,-13.4206 -0.007,-7.38132 -0.0259,-13.32488 -0.0418,-13.2079 -0.0159,0.11698 -0.24244,5.87869 -0.50341,12.8038 -0.26095,6.92511 -0.49682,12.86867 -0.52415,13.20791 -0.044,0.54643 -0.0695,0.61679 -0.22376,0.61679 -0.168,0 -0.17215,-0.0347 -0.11923,-0.99963 0.0301,-0.5498 0.26585,-6.58907 0.52378,-13.4206 0.25793,-6.83152 0.49298,-12.81799 0.52232,-13.30326 0.0465,-0.76963 0.0741,-0.8877 0.21624,-0.92449 0.1532,-0.0397 0.16232,-0.13914 0.15294,-1.66994 -0.005,-0.89527 -0.0251,-1.57034 -0.0436,-1.50016 -0.0185,0.0701 -0.24537,2.05779 -0.50426,4.41691 -0.323,2.94325 -0.44339,4.32188 -0.3836,4.39319 0.0595,0.0709 -0.14549,3.67906 -0.64603,11.37252 -0.40323,6.19775 -0.73315,11.35117 -0.73315,11.45205 0,0.12669 -0.0532,0.18341 -0.17189,0.18341 -0.14504,0 -0.17177,-0.0565 -0.17117,-0.36157 0,-0.19886 0.13576,-2.40865 0.30081,-4.91064 0.16505,-2.502 0.29612,-4.70332 0.29126,-4.89182 -0.005,-0.18851 -0.22724,2.01171 -0.4942,4.88938 l -0.48539,5.23212 -0.1985,0.0278 c -0.18054,0.0253 -0.19433,0.002 -0.1524,-0.25523 0.0852,-0.52336 0.32301,-3.38618 0.28954,-3.48559 -0.0183,-0.0541 -0.12365,0.76875 -0.23428,1.82857 -0.19566,1.87432 -0.20637,1.92693 -0.39203,1.92693 -0.15,0 -0.18412,-0.041 -0.15934,-0.19142 z m 0.86279,-4.24844 c -0.0274,-0.0678 -0.0478,-0.0477 -0.052,0.0514 -0.004,0.0896 0.0165,0.13993 0.0452,0.11167 0.0285,-0.0282 0.0316,-0.10165 0.007,-0.16307 z m 1.03342,-6.55511 c -0.0206,-0.10582 -0.0382,-0.0393 -0.0391,0.14789 -9.5e-4,0.18717 0.0158,0.27375 0.0374,0.19242 0.0215,-0.0813 0.0223,-0.23448 0.002,-0.34031 z m 7.39009,-36.53912 c -0.0218,-0.0828 -0.041,-0.0357 -0.0428,0.10473 -0.002,0.14037 0.016,0.20811 0.0396,0.1505 0.0236,-0.0576 0.025,-0.17245 0.003,-0.25523 z m -0.0839,-0.8512 c -0.0198,-0.12931 -0.0364,-0.0437 -0.0371,0.19025 -8.6e-4,0.23396 0.0155,0.33977 0.0359,0.23513 0.0204,-0.10463 0.0209,-0.29605 0.001,-0.42538 z m -0.3615,-3.93589 c -1.55256,-16.74879 -3.30989,-36.43221 -3.30989,-37.07326 v -0.79286 l -0.3223,0.0531 c -0.17726,0.0291 -0.37064,0.0679 -0.42972,0.0862 -0.1231,0.0381 -0.1431,0.52807 -0.0335,0.81999 0.0407,0.10833 1.03656,9.28935 2.21309,20.40229 1.17653,11.11293 2.14966,20.10962 2.16252,19.99264 0.0129,-0.11697 -0.11324,-1.68661 -0.28023,-3.48808 z m 0.70052,3.12651 c -0.0239,-0.0585 -0.0433,-0.0106 -0.0433,0.10634 0,0.11698 0.0195,0.16484 0.0433,0.10635 0.0239,-0.0585 0.0239,-0.1542 0,-0.21269 z m -0.94276,-0.80659 c -0.0218,-0.0828 -0.041,-0.0357 -0.0428,0.10472 -0.002,0.14038 0.016,0.2081 0.0396,0.1505 0.0236,-0.0576 0.025,-0.17244 0.003,-0.25522 z m -0.61678,-19.94744 c -0.82914,-10.98189 -1.53055,-20.02643 -1.55868,-20.09898 -0.0344,-0.0888 -0.16372,-0.1319 -0.39573,-0.1319 -0.31868,0 -0.33989,0.0144 -0.28187,0.19142 0.0345,0.10527 0.079,0.32541 0.0989,0.48917 0.0423,0.34884 2.89368,31.87977 3.31206,36.62483 0.15677,1.77806 0.29581,3.15628 0.30898,3.0627 0.0132,-0.0936 -0.65444,-9.15534 -1.4836,-20.13724 z m 0.53206,19.22367 c -0.0206,-0.10582 -0.0382,-0.0393 -0.0391,0.14789 -9.4e-4,0.18716 0.0158,0.27375 0.0374,0.19242 0.0215,-0.0814 0.0223,-0.23448 0.002,-0.34031 z m -0.0861,-0.85174 c -0.0205,-0.10528 -0.0373,-0.0191 -0.0373,0.19141 0,0.21057 0.0168,0.29671 0.0373,0.19142 0.0205,-0.10527 0.0205,-0.27755 0,-0.38283 z m -0.086,-0.76568 c -0.0205,-0.10528 -0.0373,-0.0192 -0.0373,0.19142 0,0.21056 0.0168,0.2967 0.0373,0.19142 0.0205,-0.10528 0.0205,-0.27755 0,-0.38284 z M 162.2261,225.834 c -1.06489,-10.05995 -1.9566,-18.37695 -1.98159,-18.48224 -0.0467,-0.19674 -0.24802,-0.25841 -0.34364,-0.10526 -0.0295,0.0474 0.006,0.20517 0.0795,0.35064 0.0733,0.14546 0.11065,0.30072 0.0829,0.34502 -0.0277,0.0443 0.87216,8.28026 1.99962,18.30209 1.12744,10.02184 2.06103,18.1448 2.0746,18.05104 0.0136,-0.0937 -0.84658,-8.40134 -1.91147,-18.46129 z m 3.1917,16.53148 c -0.0274,-0.0678 -0.0478,-0.0477 -0.052,0.0515 -0.004,0.0896 0.0165,0.13993 0.0452,0.11166 0.0285,-0.0282 0.0316,-0.10165 0.007,-0.16306 z m -0.91549,-17.34542 c -0.47417,-8.91708 -0.86213,-16.65997 -0.86213,-17.20644 v -0.99357 h -0.38676 c -0.21271,0 -0.41575,0.01 -0.45121,0.0213 -0.0354,0.0117 -0.0572,0.23183 -0.0482,0.48919 0.0329,0.94714 2.56295,34.32057 2.58629,34.1151 0.0133,-0.11698 -0.3638,-7.50847 -0.83797,-16.42554 z m 1.4597,-1.06008 0.004,-16.58065 -0.31149,-0.15819 c -0.17132,-0.087 -0.32675,-0.14305 -0.34542,-0.12457 -0.0187,0.0185 0.1008,7.22815 0.26549,16.02153 0.16468,8.79336 0.29963,16.3293 0.29988,16.74652 0,0.41723 0.0192,0.74002 0.0421,0.71731 0.0229,-0.0227 0.0435,-7.50259 0.0456,-16.62195 z m -0.54213,10.4892 c -0.0206,-0.10584 -0.0382,-0.0393 -0.0391,0.14788 -9.5e-4,0.18716 0.0158,0.27374 0.0374,0.19241 0.0215,-0.0813 0.0223,-0.23448 0.002,-0.34029 z m -0.2407,-13.4216 c -0.13364,-7.22925 -0.26623,-13.3419 -0.29466,-13.58365 -0.0285,-0.24264 -0.10214,-0.45872 -0.16432,-0.48233 -0.0619,-0.0235 -0.29752,-0.0702 -0.52347,-0.10378 -0.40326,-0.0599 -0.40974,-0.0573 -0.3513,0.14204 0.0328,0.11166 0.3856,6.271 0.7841,13.68742 0.84931,15.80612 0.72301,13.56266 0.76109,13.51985 0.0174,-0.0195 -0.0779,-5.95029 -0.21144,-13.17955 z m -5.00352,7.59295 c -0.0216,-0.0819 -0.0393,-0.0149 -0.0393,0.14888 0,0.16377 0.0177,0.23077 0.0393,0.14888 0.0216,-0.0819 0.0216,-0.21587 0,-0.29776 z m -0.0865,-0.97305 c -0.0274,-0.0678 -0.0478,-0.0477 -0.052,0.0514 -0.004,0.0896 0.0165,0.13993 0.0452,0.11166 0.0285,-0.0282 0.0316,-0.10165 0.007,-0.16307 z m 6.51325,-10.55738 c 0.11606,-4.57537 0.23452,-8.35647 0.26322,-8.40245 0.0287,-0.0459 0.0662,-0.23469 0.0832,-0.41937 0.0279,-0.30249 0.003,-0.35298 -0.25236,-0.50917 -0.15588,-0.0954 -0.30786,-0.17339 -0.33773,-0.17339 -0.0298,0 -0.0469,4.23993 -0.0378,9.42207 0.009,5.18213 0.0286,9.19235 0.0435,8.91161 0.0148,-0.28075 0.12185,-4.25393 0.23794,-8.8293 z m 0.19135,8.04397 c -0.0218,-0.0828 -0.0411,-0.0357 -0.0428,0.10473 -0.002,0.14037 0.016,0.2081 0.0396,0.15049 0.0236,-0.0576 0.025,-0.17245 0.003,-0.25522 z m 0.57994,-1.5117 c 0.0726,-0.79545 0.34625,-4.03043 0.60818,-7.18884 0.26193,-3.15841 0.49703,-5.97227 0.52246,-6.25302 0.0411,-0.45467 0.0229,-0.53834 -0.16669,-0.76568 -0.11711,-0.14037 -0.23394,-0.23465 -0.25964,-0.20952 -0.0257,0.0251 -0.22157,3.31754 -0.43531,7.31645 -0.21374,3.99892 -0.40808,7.59617 -0.43187,7.9939 -0.0696,1.16439 0.02,0.67274 0.16287,-0.89329 z m -0.57994,0.8311 c -0.0218,-0.0828 -0.0411,-0.0357 -0.0428,0.10472 -0.002,0.14038 0.016,0.20811 0.0396,0.1505 0.0236,-0.0576 0.025,-0.17244 0.003,-0.25522 z m 0.91319,-15.44946 c 0.0366,-0.27122 0.004,-0.37025 -0.19603,-0.59172 l -0.24008,-0.26597 -0.0558,0.50665 c -0.0659,0.59713 -0.39819,13.26556 -0.38377,14.6291 0.005,0.51471 0.1948,-2.414 0.4208,-6.50825 0.22601,-4.09423 0.43074,-7.59065 0.45495,-7.76981 z m -7.35801,11.57693 c -0.0205,-0.10529 -0.0373,-0.0191 -0.0373,0.19142 0,0.21056 0.0168,0.29669 0.0373,0.19142 0.0205,-0.10529 0.0205,-0.27757 0,-0.38284 z m -0.0858,-0.6796 c -0.0206,-0.10584 -0.0382,-0.0393 -0.0391,0.14788 -9.5e-4,0.18716 0.0158,0.27374 0.0374,0.19241 0.0215,-0.0813 0.0223,-0.23448 0.002,-0.34029 z m -0.0872,-0.63745 c -0.0218,-0.0828 -0.041,-0.0357 -0.0428,0.10473 -0.002,0.14037 0.016,0.2081 0.0396,0.15049 0.0236,-0.0576 0.025,-0.17245 0.003,-0.25522 z m -0.086,-0.76568 c -0.0218,-0.0828 -0.041,-0.0357 -0.0428,0.10473 -0.002,0.14038 0.016,0.2081 0.0396,0.1505 0.0236,-0.0576 0.025,-0.17245 0.003,-0.25523 z m -0.68545,-2.5527 c -0.0198,-0.12932 -0.0364,-0.0437 -0.037,0.19025 -8.5e-4,0.23396 0.0155,0.33977 0.0359,0.23513 0.0204,-0.10463 0.0209,-0.29605 0.001,-0.42538 z m -0.087,-0.80938 c -0.0205,-0.10528 -0.0373,-0.0191 -0.0373,0.19142 0,0.21056 0.0168,0.2967 0.0373,0.19142 0.0205,-0.10528 0.0205,-0.27755 0,-0.38284 z m 5.05012,-8.9315 c -0.0196,-0.15283 -0.0597,-0.61637 -0.0891,-1.03008 l -0.0535,-0.75221 -0.28968,-0.11982 c -0.4003,-0.16555 -0.92634,-0.1521 -1.13609,0.029 -0.1466,0.12662 -0.17981,0.29135 -0.22214,1.10197 l -0.0497,0.9531 0.53361,0.0252 c 0.29348,0.0139 0.71557,0.0355 0.93798,0.0479 l 0.40436,0.0226 z m -0.23649,-3.08535 c -0.0261,-0.42112 -0.0737,-0.83163 -0.10566,-0.91225 -0.0735,-0.18491 -0.5707,-0.28147 -0.92762,-0.18014 -0.22992,0.0653 -0.28171,0.12981 -0.33279,0.41469 -0.0333,0.18557 -0.0626,0.58624 -0.0653,0.89038 l -0.005,0.553 h 0.74178 0.74178 l -0.0474,-0.76568 z m -0.0969,-1.51964 c 0.004,-0.006 -0.0426,-0.67818 -0.10385,-1.49274 -0.0612,-0.81456 -0.14884,-1.51821 -0.19475,-1.56366 -0.0459,-0.0454 -0.23114,-0.0872 -0.41162,-0.0928 l -0.32814,-0.0103 -0.0545,0.63806 c -0.03,0.35094 -0.0781,1.07956 -0.10694,1.61916 l -0.0525,0.98111 0.62241,-0.0336 c 0.34232,-0.0185 0.62575,-0.0389 0.62982,-0.0453 z m -0.25952,-3.73375 c -0.0223,-0.10528 -0.0656,-0.64195 -0.0961,-1.1926 -0.0482,-0.8675 -0.0777,-1.01287 -0.22072,-1.08864 -0.0908,-0.0481 -0.1997,-0.0663 -0.24199,-0.0404 -0.0743,0.0454 -0.13513,0.6046 -0.20637,1.89629 l -0.034,0.61679 h 0.4199 c 0.39015,0 0.41701,-0.0136 0.37936,-0.19142 z m -0.26251,-3.61569 c -0.0334,-0.50301 -0.088,-1.22083 -0.12131,-1.59515 l -0.0606,-0.68061 -0.0628,1.10598 c -0.0345,0.60829 -0.0847,1.3261 -0.11139,1.59516 -0.0483,0.4869 -0.0475,0.48917 0.18415,0.48917 h 0.2327 z M 56.143932,296.17753 c -0.08115,-0.0324 -0.107432,-0.47926 -0.107432,-1.82663 0,-1.43246 0.02582,-1.83314 0.131125,-2.03471 0.106231,-0.20334 0.18665,-0.251 0.423588,-0.251 0.160856,0 0.357243,0.0641 0.436416,0.14249 0.128105,0.12682 0.140607,0.35624 0.113571,2.08407 l -0.03038,1.94155 -0.429727,-0.006 c -0.236351,-0.004 -0.478073,-0.0257 -0.53716,-0.0493 z m 0.752023,-1.86343 c 0,-0.98474 -0.03634,-1.73178 -0.08897,-1.82913 -0.120925,-0.22365 -0.293051,-0.20676 -0.459793,0.0451 -0.114379,0.1728 -0.138802,0.47096 -0.138802,1.69455 0,0.81667 0.02348,1.5454 0.05217,1.61941 0.03339,0.0861 0.157152,0.13458 0.343781,0.13458 h 0.291615 z m -7.283883,1.51793 -0.279322,-0.0344 v -2.02699 c 0,-1.80729 0.0163,-2.04589 0.150404,-2.20144 0.08272,-0.096 0.231561,-0.18634 0.330753,-0.20085 0.251379,-0.0368 0.612069,0.17203 0.670694,0.38826 0.02697,0.0995 0.04957,1.07098 0.05021,2.15887 l 0.0012,1.978 -0.322296,-0.0136 c -0.177262,-0.007 -0.447991,-0.029 -0.601619,-0.0479 z m 0.62723,-2.0866 c -0.05155,-1.49455 -0.08674,-1.83482 -0.203121,-1.96347 -0.135874,-0.1502 -0.146079,-0.14914 -0.293185,0.0307 -0.135045,0.16508 -0.15241,0.38878 -0.15241,1.96346 v 1.77716 h 0.355531 0.355533 z m -3.451768,-0.11003 c 0.03293,-1.10161 0.0953,-2.09516 0.138588,-2.20788 0.09603,-0.25002 0.548626,-0.49646 0.778901,-0.42413 0.0927,0.0291 0.228623,0.16798 0.302061,0.30854 0.116962,0.2239 0.122808,0.493 0.04713,2.16961 -0.04751,1.05271 -0.06521,1.96864 -0.03932,2.03541 0.03827,0.0988 -0.07755,0.12139 -0.620089,0.12139 h -0.667143 z m 0.944927,1.76421 c 0.02355,-0.0377 0.05042,-0.93984 0.05972,-2.00473 0.01085,-1.24347 -0.01493,-1.96764 -0.07207,-2.02419 -0.116437,-0.11527 -0.419619,-0.0172 -0.487413,0.15772 -0.02929,0.0756 -0.09061,0.84932 -0.136273,1.71953 -0.04567,0.87021 -0.09985,1.70447 -0.120403,1.85392 -0.03556,0.25854 -0.02204,0.27332 0.278738,0.30472 0.17386,0.0182 0.342834,0.0395 0.375497,0.0473 0.03267,0.008 0.07866,-0.0166 0.102208,-0.0543 z m -6.822372,-0.36664 c -0.496335,-0.0387 -1.05713,-0.0829 -1.24621,-0.0983 l -0.343783,-0.028 -0.0033,-2.16513 c -0.0018,-1.19083 0.01752,-4.11761 0.04297,-6.50397 0.04043,-3.79009 0.06258,-4.33667 0.175198,-4.32171 0.0709,0.009 0.718719,0.12339 1.439587,0.25327 l 1.310669,0.23618 v 6.36129 6.36131 l -0.23635,-0.0124 c -0.129992,-0.007 -0.642442,-0.0439 -1.138778,-0.0826 z m 1.117291,-1.39688 c 0,-1.07101 -0.01052,-1.14581 -0.150404,-1.06999 -0.08272,0.0448 -0.322829,0.25676 -0.533568,0.47092 -0.210739,0.21415 -0.433123,0.38937 -0.494187,0.38937 -0.235319,0 -0.09162,-0.22981 0.372929,-0.59643 l 0.483952,-0.38193 -0.462465,-0.0571 c -0.254357,-0.0314 -0.733195,-0.0695 -1.064085,-0.0847 l -0.601619,-0.0276 -0.02383,1.2089 -0.02382,1.2089 0.840309,0.0278 c 0.46217,0.0153 1.024019,0.0359 1.248552,0.0456 l 0.40824,0.0178 z m 0,-3.28081 v -1.79501 l -0.503339,0.43165 c -0.276837,0.23739 -0.551948,0.48961 -0.611357,0.56046 -0.0594,0.0708 -0.146211,0.10547 -0.192892,0.0769 -0.04668,-0.0285 0.154696,-0.29119 0.447505,-0.58364 l 0.53238,-0.53171 -0.71709,-0.10111 c -0.3944,-0.0556 -0.856286,-0.12193 -1.026415,-0.14739 l -0.309324,-0.0462 -0.04868,1.81666 c -0.02678,0.99916 -0.02294,1.84269 0.0085,1.87451 0.03146,0.0319 0.521303,0.0932 1.088544,0.13662 0.56724,0.0433 1.099028,0.0843 1.18175,0.091 0.138882,0.0113 0.150405,-0.12526 0.150405,-1.78273 z m -0.01951,-3.77691 0.02346,-1.6159 -0.541445,0.53119 c -0.486874,0.47767 -0.751685,0.64308 -0.751685,0.46954 0,-0.034 0.257716,-0.31876 0.572702,-0.63296 0.543356,-0.542 0.562072,-0.57376 0.365268,-0.61962 -0.937886,-0.21855 -1.927791,-0.37732 -1.987014,-0.3187 -0.03955,0.0392 -0.06141,0.85325 -0.04859,1.80911 l 0.02332,1.73793 0.9454,0.1402 c 0.519971,0.0771 1.04209,0.13456 1.160264,0.12766 l 0.214865,-0.0126 z m 0.01951,-2.98317 c 0,-0.44176 -0.03046,-0.80319 -0.06771,-0.80319 -0.03724,0 -0.201609,0.1133 -0.365269,0.25177 -0.291771,0.24687 -0.598372,0.33791 -0.598372,0.17768 0,-0.0445 0.176757,-0.20135 0.392795,-0.34849 0.216037,-0.14714 0.376771,-0.28337 0.357186,-0.30276 -0.05046,-0.0499 -1.964287,-0.39112 -1.99935,-0.35642 -0.01592,0.0158 -0.0367,0.40927 -0.04618,0.87446 -0.01314,0.64505 0.01107,0.86236 0.101997,0.91548 0.157101,0.0917 2.077307,0.47296 2.160437,0.42886 0.03546,-0.0188 0.06446,-0.39563 0.06446,-0.83739 z m -10.076181,10.93495 c -0.36583,-0.0343 -1.187022,-0.0899 -1.824873,-0.12372 l -1.159725,-0.0615 0.05028,-7.41416 c 0.03283,-4.84091 0.08072,-7.45107 0.137973,-7.5205 0.04823,-0.0585 0.162519,-0.10635 0.253976,-0.10635 0.15381,0 3.241607,0.89328 3.291181,0.95211 0.01217,0.0145 0.037,3.23884 0.05517,7.16533 0.02184,4.71795 0.0039,7.14448 -0.0529,7.15505 -0.04727,0.009 -0.38526,-0.0121 -0.751092,-0.0462 z m 0.622174,-1.52913 c 0,-0.74866 -0.0213,-1.3612 -0.04733,-1.3612 -0.02604,0 -0.346704,0.2297 -0.7126,0.51045 -0.365894,0.28075 -0.71201,0.51045 -0.769146,0.51045 -0.270175,0 -0.04231,-0.27016 0.580864,-0.68866 0.37661,-0.25292 0.686014,-0.48856 0.687564,-0.52366 0.0015,-0.0351 -0.06487,-0.0659 -0.147587,-0.0684 -0.08272,-0.003 -0.749874,-0.054 -1.482561,-0.11415 -0.732685,-0.0603 -1.361162,-0.0942 -1.396614,-0.0755 -0.05642,0.0298 -0.09867,2.90511 -0.04297,2.92383 0.01182,0.004 0.736982,0.0562 1.611478,0.11589 0.874495,0.0598 1.618998,0.11396 1.654451,0.12039 0.03546,0.006 0.06446,-0.60082 0.06446,-1.34948 z m -0.01983,-3.87681 -0.02314,-1.95083 -0.703609,0.65933 c -0.634694,0.59475 -0.972329,0.7968 -0.972329,0.58184 0,-0.0426 0.306527,-0.33931 0.681172,-0.65933 0.374642,-0.32002 0.684046,-0.60983 0.687563,-0.64402 0.0036,-0.0342 -0.08063,-0.0806 -0.186985,-0.10302 -0.495349,-0.10457 -2.648475,-0.41007 -2.675334,-0.37959 -0.01665,0.0189 -0.05192,0.98416 -0.0784,2.14506 -0.03598,1.57739 -0.02262,2.11942 0.05288,2.14518 0.203218,0.0693 3.11112,0.26122 3.175216,0.20953 0.03636,-0.0293 0.0557,-0.93119 0.04297,-2.00415 z m -0.0013,-3.14876 c 0.01198,-0.41734 -0.0073,-1.25398 -0.04297,-1.85921 l -0.06475,-1.10042 -0.644591,0.56803 c -0.62363,0.54956 -0.859456,0.67831 -0.859456,0.46921 0,-0.11208 0.374487,-0.45299 0.923915,-0.84108 0.200897,-0.14189 0.365268,-0.29129 0.365268,-0.33201 0,-0.10793 -2.786909,-0.70392 -2.876585,-0.61516 -0.02506,0.0248 -0.04557,0.95338 -0.04557,2.06351 v 2.0184 l 0.193378,0.0458 c 0.106357,0.0252 0.773509,0.10982 1.48256,0.18804 0.70905,0.0783 1.306103,0.15826 1.326784,0.17785 0.02068,0.0196 0.07869,0.0222 0.128918,0.006 0.0531,-0.0174 0.100435,-0.34748 0.113094,-0.78871 z m -0.06474,-4.33195 c 0,-0.5381 -0.03046,-0.97837 -0.06769,-0.97837 -0.03723,0 -0.258161,0.19142 -0.490957,0.42537 -0.232796,0.23397 -0.495624,0.42539 -0.584063,0.42539 -0.09004,0 -0.145373,-0.0468 -0.125746,-0.10635 0.01928,-0.0585 0.264222,-0.2895 0.544321,-0.51337 0.280099,-0.22386 0.519845,-0.43712 0.532769,-0.47389 0.02231,-0.0635 -2.568999,-0.86386 -2.795241,-0.86336 -0.07881,0 -0.111521,0.26087 -0.122779,0.9786 -0.0084,0.5381 -0.01811,1.06212 -0.02149,1.16449 -0.0053,0.16155 0.07897,0.20784 0.638452,0.35062 0.913613,0.23315 2.257995,0.54872 2.384988,0.55983 0.08026,0.007 0.107432,-0.23797 0.107433,-0.96896 z m 3.157993,12.91032 -1.268201,-0.026 0.02199,-6.91008 c 0.01936,-6.08355 0.03741,-6.90832 0.150908,-6.8954 0.0709,0.008 0.873365,0.18035 1.783244,0.38283 l 1.654324,0.36817 8.6e-5,6.57205 8.5e-5,6.57205 -0.537159,-0.0188 c -0.295438,-0.0103 -1.107849,-0.0305 -1.80536,-0.0448 z m 2.084684,-1.35053 c 0,-0.9144 -0.02267,-1.14154 -0.107432,-1.0765 -0.580019,0.44503 -1.112472,0.78915 -1.221054,0.78915 -0.251008,0 -0.131528,-0.16559 0.330633,-0.45824 0.25477,-0.16132 0.486242,-0.33019 0.514381,-0.37526 0.03122,-0.05 -0.408765,-0.10468 -1.129299,-0.14031 -0.649251,-0.0321 -1.248141,-0.0776 -1.330863,-0.101 -0.138312,-0.0392 -0.150405,0.0567 -0.150405,1.19225 v 1.23488 l 0.451214,0.0312 c 0.248168,0.0172 0.944327,0.0383 1.54702,0.0469 l 1.095805,0.0158 z m 0,-3.40578 c 0,-1.82655 -0.0078,-1.92082 -0.150405,-1.80221 -0.892257,0.74249 -1.128455,0.92212 -1.212503,0.92212 -0.22752,0 -0.06104,-0.24151 0.463162,-0.67187 0.307612,-0.25254 0.548412,-0.46994 0.535111,-0.48312 -0.02326,-0.023 -2.521695,-0.37636 -2.661217,-0.37636 -0.0375,0 -0.06819,0.93426 -0.06819,2.07615 v 2.07615 l 0.923915,0.0551 c 0.508152,0.0302 1.001265,0.067 1.095805,0.0817 0.09454,0.0147 0.374937,0.0318 0.623105,0.0383 l 0.451214,0.0116 z m 0,-4.03123 v -1.78991 l -0.669627,0.51378 c -0.368295,0.2826 -0.697037,0.51381 -0.730537,0.51381 -0.0335,0 -0.05994,-0.0478 -0.05877,-0.10634 0.0012,-0.0585 0.250966,-0.29193 0.555085,-0.51876 0.30412,-0.22682 0.592709,-0.45984 0.64131,-0.51781 0.06815,-0.0813 -0.191488,-0.16703 -1.135218,-0.3749 -0.672971,-0.14823 -1.32994,-0.26934 -1.459933,-0.26913 h -0.23635 v 1.949 1.94901 l 0.580133,0.0982 c 0.654604,0.11073 2.135093,0.31967 2.363501,0.33355 0.13877,0.008 0.150405,-0.12933 0.150405,-1.78079 z m 0,-3.1103 v -0.90171 l -0.505857,0.4338 c -0.278222,0.23859 -0.54895,0.43379 -0.601619,0.43379 -0.215108,0 -0.07056,-0.24543 0.338574,-0.57487 0.238883,-0.19237 0.433972,-0.37918 0.43353,-0.41518 -6.88e-4,-0.0575 -2.37225,-0.61499 -2.651235,-0.62321 -0.07958,-0.002 -0.107432,0.23774 -0.107432,0.92622 v 0.92939 l 1.181752,0.27051 c 0.649962,0.14877 1.297776,0.30135 1.439586,0.33907 0.48461,0.12884 0.472701,0.14944 0.472701,-0.81781 z m -11.46769,11.46068 c -0.0259,-0.0415 -0.02845,-0.51044 -0.0057,-1.04218 0.03424,-0.79974 0.01222,-1.06167 -0.127432,-1.51621 -0.130282,-0.42405 -0.144853,-0.56595 -0.06384,-0.62168 0.106521,-0.0733 1.077218,-0.0284 1.587542,0.0732 0.153627,0.0306 0.279323,0.091 0.279323,0.13421 0,0.0432 0.135364,0.28799 0.30081,0.54401 0.165445,0.25601 0.300809,0.50301 0.300809,0.54889 0,0.0459 -0.212715,0.0834 -0.472701,0.0834 h -0.472757 l -9.46e-4,0.61681 c -5.15e-4,0.33923 -0.02492,0.76036 -0.05422,0.93582 l -0.05327,0.31903 h -0.585301 c -0.321915,0 -0.606487,-0.034 -0.632382,-0.0755 z m 1.021062,-0.87112 c 0.03351,-0.38023 0.0794,-0.73898 0.101983,-0.79724 0.05776,-0.14901 -0.197585,-0.22607 -0.539001,-0.16266 l -0.289272,0.0538 v 0.79874 0.79875 h 0.332684 0.332686 z m 0.728542,-1.49938 c -0.105685,-0.17546 -0.234535,-0.36332 -0.286333,-0.41746 -0.120522,-0.12594 -1.428857,-0.19357 -1.419796,-0.0734 0.0036,0.0477 0.05505,0.21973 0.114344,0.38227 0.06933,0.19006 0.182029,0.31607 0.315758,0.35308 0.114372,0.0317 0.491502,0.0614 0.838065,0.066 l 0.630115,0.008 -0.192153,-0.31903 z m -11.90772,0.70186 c -0.66756,-0.0573 -1.257361,-0.13081 -1.31067,-0.16343 -0.07027,-0.043 -0.09692,-1.53235 -0.09692,-5.41673 0,-5.31345 -0.0014,-5.35798 -0.175195,-5.42161 -0.205007,-0.0751 -0.609086,-0.88144 -0.516227,-1.03016 0.05916,-0.0948 0.408896,-0.0521 1.658309,0.20247 0.11015,0.0224 0.150405,-0.0241 0.150405,-0.17408 0,-0.1126 0.04834,-0.20415 0.107432,-0.20343 0.05909,8.5e-4 0.281472,0.0535 0.494187,0.11719 0.306429,0.0918 0.385292,0.15382 0.379716,0.29844 -0.0047,0.12016 0.05412,0.19452 0.171892,0.2176 0.09841,0.0193 0.536677,0.0997 0.973925,0.17873 0.437248,0.079 0.794996,0.1753 0.794996,0.21393 0,0.0387 -0.118767,0.24446 -0.263926,0.45737 -0.147249,0.21597 -0.331385,0.3871 -0.41652,0.3871 -0.134713,0 -0.159177,0.1212 -0.208774,1.03426 -0.0309,0.56884 -0.05629,2.20548 -0.05643,3.63696 -1.71e-4,1.43148 -0.02558,3.32052 -0.05656,4.19785 -0.05469,1.54912 -0.06151,1.59482 -0.236108,1.5834 -0.09888,-0.006 -0.725973,-0.0586 -1.393533,-0.11586 z m 1.371647,-3.79978 c 0.08582,-5.40382 0.07658,-6.62169 -0.05047,-6.65763 -0.226791,-0.0642 -2.178269,-0.39017 -2.333993,-0.38992 -0.160082,0 -0.162442,0.12068 -0.102153,5.20925 0.03394,2.86494 0.07177,5.21895 0.08405,5.2311 0.02602,0.0257 1.584276,0.16543 2.037292,0.18261 l 0.308307,0.0117 z m -2.251978,1.30317 c 0.01726,-0.0485 0.371468,-0.53073 0.787125,-1.07156 0.695439,-0.90488 0.920196,-1.12397 0.920196,-0.89701 0,0.14445 -1.468814,1.99593 -1.608383,2.0274 -0.07168,0.0162 -0.1162,-0.0104 -0.09894,-0.0588 z m 0.160302,-5.41287 c 0,-0.13154 1.534128,-1.74653 1.659089,-1.74653 0.177391,0 -0.03657,0.30607 -0.741206,1.06027 -0.416929,0.44625 -0.794015,0.81138 -0.837969,0.81138 -0.04395,0 -0.07991,-0.0563 -0.07991,-0.12512 z m 2.821885,-2.89791 c 0.114564,-0.2489 0.162175,-0.22241 -0.746537,-0.41525 -0.347566,-0.0737 -0.666639,-0.11288 -0.709051,-0.0869 -0.04241,0.0259 -0.07712,0.13214 -0.07712,0.23597 0,0.16295 0.07939,0.20734 0.580132,0.32444 0.319073,0.0747 0.641606,0.14055 0.716741,0.14651 0.07514,0.006 0.181258,-0.0862 0.235828,-0.20473 z m -1.750846,-0.60256 c 0.05042,-0.30744 0.03577,-0.3558 -0.120073,-0.39614 -0.141069,-0.0365 -0.177504,-0.006 -0.177504,0.14814 0,0.33318 0.10652,0.73969 0.174863,0.66733 0.0359,-0.038 0.09113,-0.22671 0.122714,-0.41933 z M 15.89997,281.188 c 0,-0.23724 -0.01625,-0.24569 -0.70905,-0.36858 -0.389978,-0.0691 -0.736599,-0.11168 -0.770269,-0.0944 -0.08722,0.0446 0.112897,0.44952 0.22542,0.45608 0.0515,0.003 0.325688,0.0572 0.609308,0.12048 0.28362,0.0633 0.54468,0.11822 0.580132,0.12215 0.03546,0.004 0.06446,-0.10214 0.06446,-0.23568 z m -5.801321,10.87352 c -0.5199714,-0.0329 -1.0130838,-0.0646 -1.0958057,-0.0705 -0.1416589,-0.0102 -0.150405,-0.34671 -0.150405,-5.78683 0,-4.98422 -0.017196,-5.78253 -0.1254243,-5.82363 -0.139853,-0.0532 -0.5621395,-0.82777 -0.5621395,-1.03118 0,-0.0718 0.00975,-0.13044 0.021652,-0.13044 0.011907,0 0.4275955,0.0766 0.9237431,0.17015 0.4961486,0.0935 0.9311714,0.17014 0.9667174,0.17014 0.03555,0 0.06463,-0.0893 0.06463,-0.1985 0,-0.10918 0.01888,-0.21719 0.04195,-0.24004 0.02307,-0.0228 0.264797,0.002 0.53716,0.0559 0.463964,0.0912 0.496856,0.11378 0.521372,0.35749 l 0.02617,0.26012 1.005178,0.19179 c 0.55285,0.10548 1.038211,0.22121 1.078579,0.25721 0.04037,0.036 -0.05632,0.23988 -0.214863,0.4531 -0.181773,0.24448 -0.355776,0.38892 -0.471014,0.39101 l -0.182752,0.003 -0.05457,3.89219 c -0.03001,2.1407 -0.07818,4.62915 -0.107048,5.52988 l -0.05248,1.6377 -0.612629,-0.0145 c -0.336945,-0.008 -1.038057,-0.0414 -1.558027,-0.0743 z m 1.88837,-0.27282 c 0.03526,-0.10666 0.220434,-10.72345 0.187609,-10.75593 -0.0096,-0.009 -0.616003,-0.13416 -1.347537,-0.27697 -0.731534,-0.14283 -1.4170811,-0.27981 -1.5234387,-0.3044 l -0.1933774,-0.0447 v 5.65912 5.65912 l 0.4082405,0.0109 c 0.4600302,0.0122 2.2629886,0.12255 2.3661996,0.14482 0.03694,0.008 0.08298,-0.0334 0.102304,-0.0918 z m -2.2726919,-2.37586 c 0.00132,-0.0619 0.4233469,-0.55285 0.9377959,-1.09095 0.681103,-0.71241 0.96158,-0.9533 1.031813,-0.88615 0.07045,0.0673 -0.148864,0.35406 -0.813371,1.06343 -0.870684,0.92945 -1.161548,1.1593 -1.1562379,0.91367 z m -0.174325,-5.67744 c 0,-0.0426 0.1256954,-0.18137 0.2793233,-0.30831 0.153628,-0.12694 0.5997546,-0.53231 0.9913936,-0.90085 0.391639,-0.36853 0.749387,-0.67006 0.794996,-0.67006 0.181783,0 0.0602,0.18132 -0.410375,0.61198 -0.271315,0.2483 -0.704388,0.65245 -0.962384,0.89811 -0.4371374,0.41623 -0.6929539,0.55249 -0.6929539,0.36913 z m 3.2676539,-3.11486 c 0.05979,-0.0713 0.08605,-0.15211 0.05834,-0.17953 -0.0277,-0.0274 -0.313615,-0.10293 -0.635352,-0.16776 -0.321738,-0.0648 -0.671998,-0.13792 -0.778355,-0.16239 -0.166914,-0.0384 -0.193378,-0.0102 -0.193378,0.20586 0,0.23496 0.02775,0.25537 0.451214,0.33181 0.680518,0.12286 0.977403,0.11529 1.097529,-0.028 z m -1.892525,-0.63601 c 0,-0.49268 -0.0077,-0.51045 -0.222929,-0.51045 -0.219361,0 -0.221955,0.007 -0.162065,0.44665 0.03348,0.24565 0.07806,0.47535 0.09909,0.51045 0.02102,0.0351 0.09395,0.0638 0.162065,0.0638 0.09407,0 0.123846,-0.12272 0.123846,-0.51046 z m -0.642089,0.19227 c -0.06348,-0.25034 -0.181667,-0.35905 -0.3926865,-0.36112 -0.1190261,-10e-4 -0.9139352,-0.18845 -1.3128499,-0.30932 -0.1453052,-0.044 -0.1438485,-0.0237 0.021226,0.29662 0.1463486,0.28397 0.2334477,0.35366 0.4997959,0.39995 0.1774088,0.0309 0.4579258,0.0862 0.6233706,0.12297 0.1654458,0.0368 0.3726839,0.0707 0.4605319,0.0755 0.132188,0.007 0.149533,-0.0317 0.100617,-0.22456 z M 3.7816529,291.698 c -0.824407,-0.043 -1.3700014,-0.10782 -1.4314497,-0.17015 -0.074417,-0.0755 -0.080924,-1.18768 -0.025987,-4.43955 0.04032,-2.38636 0.075331,-5.09493 0.077808,-6.01906 0.00386,-1.459 -0.012953,-1.68023 -0.1280159,-1.68023 -0.080285,0 -0.2327269,-0.2211 -0.3867548,-0.56092 -0.1398337,-0.30851 -0.2542421,-0.59154 -0.2542421,-0.62896 0,-0.14818 0.2620797,-0.14726 1.079918,0.004 1.0874419,0.2008 1.1877728,0.2032 1.1194045,0.0268 -0.029509,-0.0762 -0.013572,-0.18621 0.035427,-0.24463 0.071078,-0.0848 0.1538665,-0.0834 0.4097246,0.007 0.1763562,0.0623 0.4173359,0.11557 0.5355113,0.11834 0.313306,0.007 0.4484235,0.12185 0.4156488,0.35228 -0.027905,0.19619 0.00924,0.21049 1.0883982,0.41822 0.6145098,0.11829 1.1165369,0.25228 1.1156141,0.29776 -9.237e-4,0.0455 -0.1169492,0.28307 -0.2578365,0.52798 -0.2116981,0.36802 -0.2934536,0.44184 -0.4710228,0.42537 l -0.2148641,-0.0199 -0.056744,3.10524 c -0.031204,1.70787 -0.072286,4.33031 -0.091288,5.82764 l -0.034544,2.7224 h -0.596308 c -0.3279528,0 -1.1957485,-0.0312 -1.9284337,-0.0694 z m 2.3551238,-4.71604 c 0.030301,-2.51504 0.063911,-5.10843 0.074702,-5.7631 l 0.019622,-1.1903 -0.6875639,-0.11027 c -0.3781599,-0.0607 -1.1462764,-0.18756 -1.7069247,-0.28202 -0.5606484,-0.0945 -1.0393493,-0.15196 -1.0637789,-0.12777 -0.045121,0.0446 -0.1817037,7.405 -0.1899199,10.23454 l -0.00447,1.54877 0.2793233,0.0421 c 0.2774666,0.0419 2.1893857,0.17957 2.8689302,0.20664 l 0.3550247,0.0142 z m -2.7705279,1.77739 c 0.015754,-0.0402 0.4734173,-0.55332 1.0170221,-1.14035 0.9068416,-0.97931 1.2032379,-1.22536 1.2032379,-0.99886 0,0.0466 -0.3649412,0.4595 -0.8109792,0.91742 -0.446039,0.45794 -0.8936138,0.9366 -0.9946116,1.06369 -0.1010029,0.1271 -0.2420619,0.23109 -0.3134745,0.23109 -0.071413,0 -0.1169512,-0.0329 -0.1011957,-0.0729 z m -0.135751,-5.78519 c -0.070732,-0.11329 2.3293087,-2.3354 2.4455788,-2.26427 0.057688,0.0353 -0.2737544,0.40375 -0.8349195,0.92817 -1.3021812,1.21691 -1.5544296,1.42616 -1.6106593,1.3361 z m 3.6922967,-3.33784 c 0.075605,-0.14471 0.1208137,-0.27961 0.1004649,-0.29975 -0.087827,-0.0869 -1.8959433,-0.37764 -1.9578352,-0.31478 -0.03761,0.0382 -0.094222,0.17306 -0.125806,0.29971 -0.04838,0.19394 -0.025621,0.23801 0.1443235,0.27948 0.2332112,0.0569 1.4400964,0.27562 1.5961627,0.28927 0.057871,0.005 0.1670831,-0.1092 0.2426881,-0.25393 z M 4.74249,278.96339 c 0.086548,-0.25205 0.1281519,-0.48403 0.092446,-0.51552 -0.035701,-0.0315 -0.1961324,-0.0816 -0.3565119,-0.11136 l -0.2915989,-0.0541 0.054694,0.51799 c 0.030078,0.28491 0.077828,0.55504 0.1060977,0.60033 0.1026383,0.16439 0.2407798,0.0114 0.3948696,-0.43735 z m -0.7747024,0.0782 c -0.015805,-0.15983 -0.056348,-0.31926 -0.090101,-0.35427 -0.061424,-0.0637 -1.9097152,-0.42387 -1.9533962,-0.38063 -0.01274,0.0126 0.084467,0.1943 0.2160102,0.40377 0.2353398,0.37473 0.2507521,0.38307 0.9617507,0.52117 0.3974185,0.0772 0.7612533,0.1314 0.8085237,0.12046 0.047273,-0.011 0.073016,-0.15066 0.057221,-0.3105 z m 22.6040734,11.68456 -0.458056,-0.0315 0.02266,-1.46286 c 0.01655,-1.06807 -0.0072,-1.51745 -0.08798,-1.66511 -0.09116,-0.16663 -0.09016,-0.21598 0.0057,-0.28032 0.108316,-0.0727 0.855829,-0.0427 1.668065,0.067 0.343503,0.0464 0.351856,0.056 0.580132,0.66358 0.127386,0.33906 0.231611,0.647 0.231611,0.68429 0,0.0373 -0.149362,0.0441 -0.331915,0.0153 l -0.331916,-0.0525 -0.05409,0.44578 c -0.02975,0.24517 -0.05443,0.72332 -0.05484,1.06256 l -7.47e-4,0.61679 -0.365269,-0.0158 c -0.200897,-0.009 -0.571393,-0.03 -0.823322,-0.0472 z m 0.881068,-0.55384 c 0.02423,-0.15207 0.05607,-0.55096 0.07077,-0.88643 l 0.02672,-0.60993 -0.249512,-0.0494 c -0.137231,-0.0271 -0.374531,-0.0494 -0.527333,-0.0494 -0.277012,0 -0.277984,0.002 -0.333039,0.52293 -0.07128,0.67504 -0.0704,1.22026 0.002,1.29201 0.03151,0.0311 0.261814,0.0567 0.511778,0.0567 0.446417,0 0.455264,-0.005 0.498531,-0.2765 z m 0.73725,-1.70762 c 0,-0.0151 -0.06061,-0.20344 -0.134682,-0.41864 l -0.134683,-0.39127 -0.660313,-0.056 c -0.363172,-0.0308 -0.718327,-0.0625 -0.789232,-0.0705 -0.142784,-0.0162 -0.134219,0.0892 0.041,0.50431 0.09119,0.21603 0.182513,0.28976 0.403692,0.32596 0.522303,0.0854 1.274221,0.14808 1.274221,0.10612 z m -1.074318,-3.6734 c -0.04727,-0.016 -0.272442,-0.0541 -0.500384,-0.0845 l -0.414438,-0.0554 0.02204,-1.24872 c 0.01868,-1.0583 -0.0011,-1.29238 -0.130036,-1.53499 -0.236971,-0.44609 -0.117345,-0.48578 0.954406,-0.3167 0.510327,0.0805 0.99078,0.16406 1.067676,0.18567 0.08265,0.0232 0.161379,0.16871 0.192575,0.35589 0.02902,0.17415 0.112545,0.42896 0.185606,0.56626 0.07306,0.1373 0.111737,0.30406 0.08595,0.37059 -0.04505,0.11623 -0.179578,0.10929 -0.668397,-0.0345 -0.136873,-0.0403 -0.150404,0.0405 -0.150404,0.89732 v 0.94156 l -0.279323,-0.007 c -0.153628,-0.004 -0.317999,-0.0198 -0.365268,-0.0359 z m 0.345304,-0.92268 c 0.03253,-0.34372 0.0452,-0.69784 0.02815,-0.78694 -0.02251,-0.11761 -0.14267,-0.1834 -0.438514,-0.24006 -0.224129,-0.0429 -0.424846,-0.0609 -0.446037,-0.0399 -0.0212,0.021 -0.06519,0.38773 -0.09778,0.81501 -0.05884,0.77157 -0.05784,0.77714 0.145895,0.81528 0.112828,0.0211 0.327536,0.0436 0.477131,0.0499 l 0.271991,0.0115 z m 0.680357,-1.35305 c -0.147437,-0.46849 -0.215194,-0.57203 -0.399516,-0.6105 -0.67461,-0.14078 -1.128404,-0.21899 -1.270581,-0.21899 -0.154934,0 -0.156506,0.0163 -0.03077,0.31903 0.07287,0.17548 0.164647,0.35249 0.203932,0.39337 0.08328,0.0867 0.962376,0.28709 1.315034,0.29978 0.213028,0.008 0.234899,-0.0143 0.181902,-0.18269 z M 2.1317196e-5,278.58609 c 0,-0.0891 0.0632816228,-0.23125 0.140617362804,-0.31583 0.13019224,-0.14241 0.13019224,-0.15777 0,-0.20722 -0.2293913,-0.0871 -0.16035607,-0.20537 0.11991633,-0.20537 0.39909446,0 0.41879967,0.218 0.0524809,0.58061 -0.25552111,0.25294 -0.313015617908,0.28009 -0.313014592804,0.14781 z m 0,-10.34692 c 0,-0.0964 0.0369904128,-0.15254 0.0821930128,-0.12489 0.04520261,0.0276 0.06040888,0.10648 0.03378269,0.17517 -0.06817443,0.17586 -0.115969612204,0.15514 -0.115969612204,-0.0502 z"
       id="path690"
       inkscape:connector-curvature="0" />
  </g>
</svg>
