<?xml version="1.0" encoding="UTF-8" standalone="no"?>
<!-- Created with Inkscape (http://www.inkscape.org/) -->

<svg
   xmlns:dc="http://purl.org/dc/elements/1.1/"
   xmlns:cc="http://creativecommons.org/ns#"
   xmlns:rdf="http://www.w3.org/1999/02/22-rdf-syntax-ns#"
   xmlns:svg="http://www.w3.org/2000/svg"
   xmlns="http://www.w3.org/2000/svg"
   xmlns:sodipodi="http://sodipodi.sourceforge.net/DTD/sodipodi-0.dtd"
   xmlns:inkscape="http://www.inkscape.org/namespaces/inkscape"
   version="1.1"
   id="svg300"
   width="640"
   height="110"
   viewBox="0 0 640 110"
   sodipodi:docname="JustJames.svg"
   inkscape:version="0.92.5 (2060ec1f9f, 2020-04-08)">
  <metadata
     id="metadata306">
    <rdf:RDF>
      <cc:Work
         rdf:about="">
        <dc:format>image/svg+xml</dc:format>
        <dc:type
           rdf:resource="http://purl.org/dc/dcmitype/StillImage" />
        <dc:title></dc:title>
      </cc:Work>
    </rdf:RDF>
  </metadata>
  <defs
     id="defs304" />
  <sodipodi:namedview
     pagecolor="#ffffff"
     bordercolor="#666666"
     borderopacity="1"
     objecttolerance="10"
     gridtolerance="10"
     guidetolerance="10"
     inkscape:pageopacity="0"
     inkscape:pageshadow="2"
     inkscape:window-width="1920"
     inkscape:window-height="1030"
     id="namedview302"
     showgrid="false"
     inkscape:zoom="1.315625"
     inkscape:cx="344.20083"
     inkscape:cy="209.85908"
     inkscape:window-x="0"
     inkscape:window-y="0"
     inkscape:window-maximized="1"
     inkscape:current-layer="svg300" />
  <path
     style="fill:#000000;stroke-width:0.36493328"
     d="m 291.22533,109.08413 c 0,-0.46966 0.32914,-1.15053 0.73145,-1.51303 0.40229,-0.36251 0.73144,-0.92866 0.73144,-1.25813 0,-1.63118 1.54123,-1.85346 4.22466,-0.60928 l 1.84748,0.85659 0.44243,-4.22851 c 0.24332,-2.32568 0.44056,-5.221698 0.43828,-6.435591 l -0.004,-2.207081 -1.73718,-0.427317 c -0.95544,-0.235025 -4.48075,-0.535919 -7.83401,-0.668658 l -6.09683,-0.241343 -0.72984,-0.9829 c -0.40143,-0.540599 -1.32818,-1.265607 -2.05947,-1.611135 l -1.32962,-0.628232 -0.34673,-0.908013 c -0.19069,-0.499404 -0.34673,-2.552234 -0.34673,-4.561845 v -3.653836 l -16.00038,0.120966 -16.00027,0.120963 -0.11351,-1.359413 -0.11351,-1.359419 h -5.84091 -5.84093 l -0.1934,-0.501814 c -0.10637,-0.275998 -0.0499,-1.054364 0.12549,-1.7297 l 0.31888,-1.227889 1.4403,-0.283521 c 0.79217,-0.15594 8.4763,-1.671704 17.07584,-3.368367 l 15.63553,-3.084844 h 3.47337 3.47336 v -0.383869 c 0,-0.627456 -1.79353,-6.84286 -2.949,-10.219633 l -1.07393,-3.138472 -0.002,-1.777522 c -0.001,-0.977635 0.26978,-2.532074 0.60172,-3.454308 l 0.60353,-1.676794 1.68403,-0.600932 c 3.16516,-1.129459 6.97289,-0.546593 10.92032,1.671617 l 1.97537,1.110038 0.91737,1.380269 c 0.50455,0.759146 1.20631,2.310145 1.55947,3.446661 l 0.64212,2.066392 0.22894,-3.406451 0.22895,-3.406452 0.77187,-2.262002 c 0.84794,-2.484922 1.72416,-3.708032 5.49987,-7.67727 1.38974,-1.46098 2.76332,-3.11173 3.0524,-3.668337 l 0.52559,-1.012014 0.34847,-5.6426 0.34846,-5.642602 0.73703,-1.431419 c 1.00718,-1.956096 2.12803,-2.910415 4.264,-3.630485 l 1.81004,-0.610193 1.86573,0.154052 1.86573,0.154055 2.30424,1.416144 c 1.26733,0.778876 3.19272,2.393722 4.27864,3.588551 l 1.97442,2.172413 v 0.767287 c 0,0.422008 -0.28564,1.17245 -0.63472,1.667643 -1.0604,1.504202 -1.96799,4.444223 -1.92862,6.2475 l 0.0372,1.705664 -1.66272,1.727849 c -0.91449,0.950315 -1.66272,1.932626 -1.66272,2.182911 0,0.250286 -0.25862,0.712572 -0.5747,1.027298 l -0.57472,0.572232 h -2.1682 -2.1682 l -0.0551,0.637258 c -0.0303,0.350492 -0.0177,1.128858 0.0281,1.729701 l 0.0833,1.092443 1.40623,1.456591 c 1.4753,1.52815 3.29192,4.618701 3.29192,5.600449 0,0.316793 0.32636,1.398483 0.72528,2.403761 0.3989,1.005277 0.89003,2.491182 1.09141,3.302008 l 0.36613,1.474233 3.57153,0.430998 c 1.96433,0.237049 4.85037,0.630931 6.4134,0.87529 l 2.84187,0.444289 1.9125,-0.3966 1.91248,-0.396596 1.69999,0.259651 1.69999,0.259652 0.93993,1.064753 c 0.51697,0.585619 0.94512,1.351523 0.95148,1.702016 l 0.0115,0.637259 h 2.3426 2.34259 l 1.14501,-3.186292 c 0.62974,-1.752462 1.90884,-5.316557 2.84244,-7.920214 0.93358,-2.603654 1.87393,-4.915194 2.08964,-5.136756 0.47682,-0.489753 5.12143,-2.32827 5.88185,-2.32827 h 0.54473 v 0.766309 c 0,0.421472 -1.33641,4.443781 -2.9698,8.938463 -1.63338,4.494686 -2.85432,8.287135 -2.71317,8.427665 0.14114,0.140536 2.50614,0.361108 5.25554,0.490165 l 4.99895,0.234646 4.29854,0.949585 4.29858,0.949584 4.29586,7.34e-4 4.29588,7.33e-4 -0.11841,-2.677122 -0.1184,-2.67712 -4.63597,-0.235433 c -2.54978,-0.129487 -5.57648,-0.236094 -6.72601,-0.236907 l -2.09002,-0.0015 -0.40397,-0.751571 -0.40397,-0.751571 0.34377,-0.431909 0.34378,-0.431909 -1.54781,-16.713521 -1.54781,-16.713523 6.08577,-8.230594 c 3.34717,-4.526825 7.15076,-9.7376545 8.4524,-11.5796186 l 2.36665,-3.34902601 1.06029,-0.38348556 c 1.46746,-0.53074617 2.09445,-0.47202085 3.08848,0.28928159 l 0.85728,0.65657518 1.94436,29.2850974 1.94436,29.285095 -0.33006,0.2031 -0.33006,0.203099 1.47405,4.387492 1.47404,4.387487 6.11166,1.35589 c 3.36143,0.745738 6.85226,1.552934 7.75742,1.793762 l 1.64574,0.437873 0.10919,1.664381 0.10944,1.664381 -2.81588,0.237002 c -1.54871,0.130572 -5.01577,0.237224 -7.70454,0.237224 h -4.88869 l 0.0981,1.547626 0.0981,1.547628 -28.52619,0.182074 c -15.68942,0.10014 -28.24563,0.296991 -27.90272,0.437443 0.34292,0.140452 0.96008,0.912288 1.37146,1.715194 l 0.74796,1.459825 v 1.81154 c 0,0.996347 -0.15862,2.226933 -0.35249,2.734639 -0.19388,0.507705 -0.8496,3.017339 -1.45719,5.576958 -0.60759,2.559623 -1.68329,6.865233 -2.39043,9.568003 -0.70714,2.70279 -1.28571,5.36561 -1.28571,5.91741 v 1.00325 l -1.55431,-0.005 -1.55431,-0.005 0.9143,-0.45812 0.9143,-0.45812 0.12007,-1.24814 c 0.11416,-1.18682 2.68534,-11.544445 3.19238,-12.860092 0.13208,-0.342759 0.14546,-0.623173 0.0296,-0.623173 -0.38787,0 -5.35362,6.619595 -5.35362,7.136635 0,0.28076 -0.16456,0.51048 -0.36572,0.51048 h -0.36572 v 4.00561 4.00563 h -0.73136 -0.73144 V 98.706128 c 0,-6.177562 -0.10728,-12.978019 -0.23844,-15.112129 l -0.23852,-3.880197 h -2.70365 -2.70363 l 0.25703,15.112128 0.25707,15.11213 h -0.55861 -0.55861 l -0.22669,-1.36556 c -0.12469,-0.75105 -0.2285,-4.02838 -0.23072,-7.28295 l -0.004,-5.917398 h -0.4622 -0.46206 l -0.76826,3.186291 c -0.42255,1.752467 -1.57352,4.988817 -2.55772,7.191917 l -1.78928,4.00562 -1.07374,0.12201 -1.07374,0.12201 0.52774,-0.64537 0.52775,-0.64537 -0.66993,0.25025 c -0.36845,0.13764 -0.86217,0.25276 -1.09716,0.25583 l -0.42723,0.006 0.54857,0.353 0.54859,0.35299 -2.65148,0.006 -2.65147,0.006 v -2.73111 -2.7311 h -1.86858 -1.86857 l 0.13903,2.74109 0.13903,2.7411 -3.54111,-0.0495 -3.5411,-0.0495 -0.19051,-0.72546 -0.19055,-0.72544 -0.37437,0.23036 c -0.20592,0.1267 -0.28164,0.47093 -0.16834,0.76493 l 0.20604,0.53456 h -0.77057 -0.77057 z m 6.5525,0.37094 c -0.0838,-0.0654 -0.81068,-0.48888 -1.61527,-0.94116 l -1.46288,-0.82232 1.09716,0.93935 c 0.60344,0.51664 1.33031,0.94017 1.61527,0.94116 0.28497,9.9e-4 0.44953,-0.0517 0.36572,-0.11703 z m 0.94478,-1.33775 c -0.12432,-0.20028 -0.42204,-0.36164 -0.6616,-0.35857 l -0.43556,0.006 0.54858,0.35299 c 0.70259,0.4521 0.82919,0.4521 0.54858,0 z m 10.38241,-1.56845 2.70229,-0.79211 0.71047,-1.64187 c 0.78132,-1.80557 2.26145,-6.16789 2.62663,-7.741334 l 0.23242,-1.001404 h -0.49684 c -0.27326,0 -0.67365,-0.386357 -0.88973,-0.858569 l -0.39288,-0.85857 -1.17442,-0.233874 c -0.64593,-0.128631 -2.63502,-0.233874 -4.42019,-0.233874 H 304.757 v 2.309386 c 0,1.27016 0.10817,4.555129 0.24036,7.299939 l 0.24037,4.99055 0.58249,-0.22309 c 0.32038,-0.12269 1.79852,-0.57953 3.28478,-1.01518 z m -5.45018,-4.34895 c -0.003,-0.65092 -0.10625,-1.55984 -0.22998,-2.01983 l -0.22499,-0.836337 -1.14147,0.108046 -1.14146,0.10805 -0.21627,1.638661 -0.21627,1.63867 0.39914,0.26753 c 0.21952,0.14716 0.934,0.27005 1.58772,0.27311 l 1.18859,0.006 -0.005,-1.18348 z m 27.36961,-9.212149 0.84988,-1.189659 0.41104,-2.389348 0.41105,-2.389347 -0.30526,-0.28444 c -0.16789,-0.156446 -0.38997,-0.04602 -0.49352,0.245385 -0.37908,1.066876 -3.40264,3.926596 -4.82839,4.566757 l -1.46618,0.658314 v 3.981853 3.981854 l 2.28575,-2.995857 c 1.25717,-1.647716 2.6682,-3.531196 3.13563,-4.185512 z m -27.73034,3.658896 v -1.638663 h -1.09716 -1.09716 v 1.638663 1.638665 h 1.09716 1.09716 z m 1.09716,-4.551845 0.54859,-0.352993 -3.47435,0.03751 -3.47435,0.03751 1.09717,0.277978 c 1.60758,0.407303 4.66997,0.407303 5.30294,0 z m 8.41158,-0.32234 c 0,-0.177284 -0.22666,-0.859067 -0.50367,-1.515069 l -0.50367,-1.192729 -0.47769,1.31532 -0.47767,1.315319 -1.48727,0.136129 -1.48726,0.136134 2.46861,0.06362 2.46862,0.06362 z m -2.76262,-1.963553 c 0.30016,-0.456112 0.82024,-1.889944 1.15576,-3.186291 l 0.61003,-2.35699 -0.56891,-1.274517 -0.56892,-1.274518 -0.0299,2.28762 c -0.0163,1.258189 -0.2683,2.855887 -0.55975,3.55044 l -0.52992,1.262821 H 297.11405 284.6795 l -0.97619,-1.274339 -0.97618,-1.274341 0.25895,-3.095431 0.25896,-3.095434 h -0.91782 -0.91783 l 0.19332,3.55044 0.19332,3.55044 0.87974,1.365554 c 0.48386,0.751054 0.91854,1.388677 0.96598,1.416938 0.22806,0.135878 13.27669,0.550763 19.18671,0.610046 l 6.66596,0.06687 z m -14.60911,-2.485942 -2.19432,-0.31325 -0.61117,-0.739656 c -0.33615,-0.406815 -0.67335,-0.925441 -0.74937,-1.152506 l -0.13822,-0.412849 -1.99352,0.647415 c -1.09644,0.356082 -2.44276,0.905148 -2.99181,1.220146 l -0.99829,0.572731 0.44971,0.284439 c 0.24735,0.156442 2.91831,0.266968 5.93551,0.245614 l 5.4858,-0.03883 z m 38.4279,-3.51839 -0.58258,-1.216436 -0.40931,0.251878 -0.4093,0.251877 0.59554,0.331849 0.59555,0.33185 0.0329,1.893682 0.0329,1.89368 0.36335,-1.260971 0.36336,-1.26097 -0.58259,-1.216439 z m -28.27915,-0.975785 c 0.95544,-0.994306 1.73717,-2.020011 1.73717,-2.279346 v -0.471517 h -5.18795 -5.18794 l -0.81937,0.766447 -0.81937,0.766447 -0.41773,-0.257058 c -0.22976,-0.141384 -0.32939,-0.486283 -0.22141,-0.766448 l 0.19632,-0.509388 h -1.40877 -1.40877 l -0.16945,0.882498 -0.16941,0.882498 0.67538,0.175853 0.67537,0.175854 v 1.056936 c 0,0.581314 0.23246,1.375021 0.51662,1.763793 l 0.51662,0.706858 3.59773,0.550875 3.59774,0.550876 1.28003,-1.093678 c 0.70401,-0.601521 2.06175,-1.907197 3.01719,-2.9015 z m -25.07632,2.643075 -0.1921,-0.477944 -0.0288,0.69795 c -0.0159,0.383871 0.0705,0.598948 0.1921,0.477945 0.12151,-0.121002 0.13452,-0.435083 0.0288,-0.697951 z m 4.86466,-2.753866 0.006,-2.640072 h -0.54854 -0.54858 v 2.85249 c 0,1.568871 0.1122,2.964198 0.24931,3.100727 0.51424,0.512026 0.83683,-0.756946 0.84226,-3.313145 z m 3.82931,1.308844 2.0602,-0.785 -0.38191,-0.380272 c -0.21006,-0.209149 -0.38192,-0.921028 -0.38192,-1.581956 v -1.201688 h -1.8286 -1.8286 v 1.228999 c 0,0.675949 -0.10285,1.741081 -0.22858,2.36696 l -0.22857,1.137962 h 0.37889 c 0.2084,0 1.30598,-0.353253 2.43909,-0.785005 z m 42.93554,-2.246696 0.40231,-0.482668 -1.25243,-0.594671 c -0.68883,-0.32707 -2.12517,-0.697033 -3.19186,-0.822147 l -1.93944,-0.227479 2.37719,1.278158 c 2.68564,1.44401 3.0388,1.527181 3.60423,0.848807 z m 39.09363,-3.392535 17.2803,-0.216701 v -0.908342 -0.908345 l -9.23445,0.220189 c -5.07895,0.121103 -29.64165,0.31632 -54.58378,0.433815 -62.26089,0.293293 -76.26566,0.412172 -76.50393,0.649412 -0.11267,0.112197 -0.10812,0.455037 0.0101,0.761872 l 0.215,0.557879 52.76822,-0.18654 c 29.02252,-0.102599 60.54436,-0.284056 70.04851,-0.403239 z M 325.05448,75.70713 c 35.80404,-0.199918 68.10174,-0.467126 71.77266,-0.593798 l 6.6744,-0.230309 v -0.639129 -0.639135 l -12.34307,0.168742 c -16.75665,0.229082 -133.15414,1.200912 -141.7213,1.183266 -3.77403,-0.0078 -8.25867,0.09872 -9.96588,0.236641 l -3.10403,0.250778 v 0.446245 0.446247 l 11.79449,-0.133029 c 6.48697,-0.07317 41.0887,-0.296602 76.89273,-0.496519 z m -12.43449,-2.561707 c 24.94213,-0.194247 47.93621,-0.352557 51.09795,-0.3518 l 5.74863,0.0015 -0.19155,-0.496972 -0.19155,-0.49697 1.14538,-0.95962 c 0.62995,-0.527876 1.40702,-0.959704 1.72683,-0.959704 0.31982,0 0.48867,-0.0924 0.37524,-0.205343 -0.11341,-0.112937 -3.86269,-0.508678 -8.33171,-0.879421 -4.46904,-0.370741 -8.2864,-0.834278 -8.48305,-1.030078 l -0.3575,-0.356001 0.41245,-0.76739 0.41249,-0.767391 4.10148,-0.03731 4.10149,-0.03731 -2.19432,-0.50517 c -1.20688,-0.277841 -4.44469,-0.613429 -7.19511,-0.745746 l -5.00075,-0.240578 -0.54519,1.299188 -0.54517,1.299187 -1.95133,0.232645 c -1.07323,0.127954 -6.39483,0.09128 -11.82578,-0.0815 l -9.87445,-0.314175 -2.19433,0.482984 -2.19432,0.482988 -25.78329,0.528301 -25.7833,0.528297 -12.80021,2.526799 -12.80022,2.526797 11.88592,-0.161515 c 6.53726,-0.08883 32.29313,-0.320446 57.23527,-0.514694 z m 81.88892,-0.744315 2.95824,-0.02975 -4.63707,-1.086816 -4.63706,-1.086817 -6.15169,1.292928 -6.1517,1.292929 7.83053,-0.176372 c 4.30679,-0.09701 9.16173,-0.189754 10.78875,-0.206112 z m -6.83131,-3.392825 c 0.0485,-0.04823 -0.58248,-2.08362 -1.40205,-4.523078 l -1.49013,-4.435377 h -0.85381 -0.8538 l 0.8805,2.822144 c 1.04745,3.357264 1.07679,3.732515 0.29177,3.732515 -0.32984,0 -0.78242,0.221591 -1.00574,0.492422 -0.22332,0.270835 -1.96948,1.013631 -3.88037,1.65066 -5.72616,1.908912 -6.58298,2.266002 -6.58298,2.743546 v 0.456618 l 7.40426,-1.425879 c 4.07235,-0.784231 7.44389,-1.46534 7.49234,-1.513571 z m -8.84202,-1.498318 2.53985,-0.915259 -2.01145,0.1838 c -1.10631,0.101087 -6.12583,0.208867 -11.15447,0.239509 l -9.14301,0.05572 6.94869,0.623198 c 3.82176,0.342762 7.69836,0.646848 8.61461,0.675749 l 1.66593,0.05255 z m -94.7861,-1.178589 c -0.1326,-0.550774 -0.64201,-2.066539 -1.13201,-3.368366 l -0.89091,-2.366961 -0.30145,-3.19491 -0.30145,-3.194908 -0.58497,-0.88894 c -0.77638,-1.179816 -0.73775,-1.64286 0.13707,-1.64286 h 0.72205 l 0.5964,1.148358 0.5964,1.148362 0.19668,2.857263 0.19669,2.857266 h 2.30251 2.30252 l 0.23404,-1.7297 c 0.12872,-0.951337 0.27806,-1.893569 0.33184,-2.09385 0.0538,-0.200281 -0.034,-0.828855 -0.1951,-1.396834 l -0.29292,-1.032687 0.39836,-0.635128 0.39836,-0.635129 -0.66434,-1.009551 c -1.83852,-2.793868 -8.87057,-5.117732 -11.8835,-3.927106 -1.21573,0.480419 -1.64906,1.044746 -2.15778,2.810073 l -0.41975,1.45659 0.76233,2.549033 c 0.41929,1.401969 1.43898,4.966065 2.26599,7.920212 l 1.50365,5.371178 h 3.06019 3.06018 z m 5.71297,0.499898 c 0,-0.375189 -1.62899,-4.586385 -1.99181,-5.149151 l -0.47366,-0.734664 -1.65919,0.131394 -1.6592,0.131393 0.49658,1.513643 c 0.27311,0.832499 0.66438,2.169103 0.86945,2.970228 l 0.37287,1.45659 2.02248,-0.124738 c 1.11237,-0.0686 2.02248,-0.156219 2.02248,-0.194695 z m 12.80022,-0.170349 c 0,-0.16924 -0.288,-0.572141 -0.64001,-0.895336 -0.35201,-0.323193 -1.29831,-1.722034 -2.10289,-3.108537 l -1.46288,-2.52091 -1.15371,-0.418315 c -1.24169,-0.450217 -1.83677,-1.38789 -1.25097,-1.971174 l 0.36222,-0.360652 0.63255,0.512581 0.63255,0.512582 -0.19964,-0.546222 c -0.10979,-0.300422 -0.4205,-1.160615 -0.69044,-1.911538 l -0.49078,-1.365318 0.40798,-0.406225 0.40798,-0.406224 0.66304,1.22532 c 0.36469,0.673925 1.01015,2.044653 1.43437,3.046059 0.42423,1.001407 1.53639,3.006795 2.47148,4.456425 l 1.70016,2.635686 1.67492,-1.667713 1.67491,-1.667713 2.9325,-1.372472 2.9325,-1.372476 -0.57927,-0.221328 c -0.3186,-0.121732 -0.57927,-0.519428 -0.57927,-0.883773 0,-0.364345 -0.48703,-1.229784 -1.0823,-1.923202 -0.59526,-0.693421 -1.08899,-1.442032 -1.09716,-1.663583 -0.008,-0.221551 -0.60511,-1.17252 -1.32653,-2.113269 l -1.31166,-1.710446 0.20303,-0.526804 c 0.42842,-1.111645 1.29643,-0.494054 2.78603,1.982281 0.50287,0.835974 1.54464,2.374983 2.31506,3.42002 l 1.40076,1.900071 -0.26206,-1.78516 -0.26206,-1.785158 0.73446,0.191239 0.73446,0.19124 -0.52627,-2.006637 c -0.61012,-2.326392 -1.14626,-3.249383 -3.29836,-5.678299 -0.8621,-0.972999 -1.56746,-2.089374 -1.56746,-2.480836 v -0.711748 l -2.28575,-1.082178 c -1.25716,-0.5952 -2.94405,-1.562677 -3.74864,-2.149953 -0.80458,-0.587272 -1.71662,-1.073216 -2.02674,-1.079869 -0.60366,-0.01297 -2.7117,2.054946 -4.81349,4.721822 l -1.29145,1.638665 -0.84657,2.549034 -0.84657,2.549033 -0.0248,8.28432 -0.0248,8.284318 4.84579,4.1e-5 c 2.66519,2.2e-5 4.8458,-0.138431 4.8458,-0.307669 z m 13.03651,-0.193042 1.42541,-0.500754 1.82062,0.170021 1.82063,0.170021 2.54501,-0.592039 c 1.39975,-0.325621 2.79863,-0.815225 3.10862,-1.088012 l 0.56362,-0.495976 3.29148,-0.236347 c 1.81032,-0.129993 4.03207,-0.351857 4.93722,-0.49303 l 1.64575,-0.256684 v -0.546222 c 0,-0.300422 -0.39142,-0.861427 -0.86982,-1.246681 l -0.86983,-0.70046 -2.2388,0.518386 -2.2388,0.518387 h -5.33872 -5.33872 l -0.51281,-0.418814 c -0.28205,-0.230349 -1.78862,-0.536401 -3.34794,-0.680115 l -2.83514,-0.261305 -2.92496,1.382993 c -1.60873,0.760643 -2.92496,1.486672 -2.92496,1.613393 0,0.233549 1.47934,1.641224 2.65373,2.52517 0.62568,0.470945 2.41269,1.00648 3.60897,1.081544 0.32673,0.0205 1.23546,-0.188063 2.01944,-0.463476 z m -8.3678,-0.927921 -1.19436,-1.06452 -0.64074,0.575397 -0.64075,0.575394 0.82361,0.453421 c 0.45298,0.249384 1.27877,0.469493 1.8351,0.489128 l 1.0115,0.03572 -1.19436,-1.064523 z m -15.98484,-5.282618 c -0.2071,-0.248457 -0.59952,-1.420954 -0.87208,-2.605552 l -0.49556,-2.15381 -0.37799,2.913182 -0.378,2.913181 0.31979,0.34594 c 0.17588,0.190268 0.31979,0.538138 0.31979,0.773042 0,0.234908 0.37028,1.226301 0.82286,2.203093 l 0.82287,1.775993 0.10744,-2.856666 0.10743,-2.856663 z m 92.14036,5.110985 c 0,-0.654188 -1.56023,-4.954354 -1.79759,-4.954354 -0.16793,0 -0.8196,-0.102416 -1.44818,-0.227592 l -1.14287,-0.227592 0.005,2.139367 c 0.007,2.479398 0.208,2.914322 1.45729,3.145508 1.23914,0.229307 2.92576,0.301172 2.92576,0.124663 z m -67.79474,-7.048202 c -0.10214,-0.350492 -0.36646,-1.333691 -0.58732,-2.184886 -0.53621,-2.066444 -0.84019,-1.966059 -0.55136,0.182074 0.3029,2.25273 0.43825,2.64007 0.92258,2.64007 h 0.40184 z m 69.54083,0.331594 0.46607,-0.294513 -1.84134,-28.012392 C 382.74499,14.938 381.84099,2.1275911 381.74882,1.8772384 c -0.22018,-0.5981101 -1.99068,-0.5885401 -2.22214,0.012027 -0.0991,0.2569636 0.71101,12.8337146 1.80008,27.9483376 1.08908,15.114618 1.90615,27.604028 1.8157,27.754238 -0.0904,0.150212 -2.02173,0.27311 -4.29176,0.27311 -2.27002,0 -5.92209,0.122901 -8.11568,0.273111 l -3.9884,0.273113 4.5715,0.199299 c 7.66885,0.334331 13.32435,0.351219 13.81487,0.04126 z m -76.3628,-20.905678 c -0.91795,-2.013599 -0.90122,-2.431877 0.22758,-5.688227 l 0.94928,-2.738505 -0.45924,-1.385533 -0.45924,-1.385534 h -0.68075 -0.68074 l -0.32278,0.819331 c -0.17754,0.450633 -0.61307,1.638666 -0.96787,2.640072 l -0.64511,1.820739 -1.24152,1.242711 c -0.68284,0.683491 -1.5737,1.891018 -1.97969,2.683396 l -0.73815,1.440686 0.30393,0.298645 c 0.7878,0.774134 3.03744,2.244215 4.67708,3.05636 l 1.81312,0.898071 0.45487,-1.077163 0.45487,-1.077164 z m 6.65132,-3.186552 0.48565,-1.092442 h 0.61535 c 0.33845,0 0.69061,0.286766 0.7826,0.637258 0.092,0.350492 0.18633,-0.142495 0.20969,-1.095528 l 0.0424,-1.732788 -0.68299,0.424707 c -0.87039,0.541224 -1.87705,0.166657 -1.87705,-0.698428 0,-0.956698 0.72097,-1.540846 1.90175,-1.540846 h 1.02401 l 0.0129,0.455184 c 0.0284,0.999221 1.05916,-1.445297 1.07124,-2.54064 l 0.0129,-1.175082 -0.90258,-0.588852 -0.90258,-0.588852 -1.01746,0.341194 -1.01744,0.341198 0.11109,0.766 0.11109,0.766003 -1.08335,0.55781 -1.08335,0.557816 -0.24849,1.464478 c -0.31565,1.860305 0.054,4.069588 0.84625,5.057415 0.81531,1.01659 1.01349,0.977211 1.58821,-0.315605 z"
     id="path538"
     inkscape:connector-curvature="0" />
</svg>
