<?xml version="1.0" encoding="UTF-8" standalone="no"?>
<!-- Created with Inkscape (http://www.inkscape.org/) -->

<svg
   xmlns:dc="http://purl.org/dc/elements/1.1/"
   xmlns:cc="http://creativecommons.org/ns#"
   xmlns:rdf="http://www.w3.org/1999/02/22-rdf-syntax-ns#"
   xmlns:svg="http://www.w3.org/2000/svg"
   xmlns="http://www.w3.org/2000/svg"
   xmlns:sodipodi="http://sodipodi.sourceforge.net/DTD/sodipodi-0.dtd"
   xmlns:inkscape="http://www.inkscape.org/namespaces/inkscape"
   version="1.1"
   id="svg300"
   width="640"
   height="110"
   viewBox="0 0 640 110"
   sodipodi:docname="QuillAndQuigley.svg"
   inkscape:version="0.92.5 (2060ec1f9f, 2020-04-08)">
  <metadata
     id="metadata306">
    <rdf:RDF>
      <cc:Work
         rdf:about="">
        <dc:format>image/svg+xml</dc:format>
        <dc:type
           rdf:resource="http://purl.org/dc/dcmitype/StillImage" />
        <dc:title></dc:title>
      </cc:Work>
    </rdf:RDF>
  </metadata>
  <defs
     id="defs304" />
  <sodipodi:namedview
     pagecolor="#ffffff"
     bordercolor="#666666"
     borderopacity="1"
     objecttolerance="10"
     gridtolerance="10"
     guidetolerance="10"
     inkscape:pageopacity="0"
     inkscape:pageshadow="2"
     inkscape:window-width="1920"
     inkscape:window-height="1030"
     id="namedview302"
     showgrid="false"
     inkscape:zoom="1.315625"
     inkscape:cx="344.20083"
     inkscape:cy="209.85908"
     inkscape:window-x="0"
     inkscape:window-y="0"
     inkscape:window-maximized="1"
     inkscape:current-layer="svg300" />
  <path
     style="fill:#000000;stroke-width:0.32266429"
     d="m 1.6168138,109.68905 c 0,-0.40171 0.7296443,-1.0315 1.1950461,-1.0315 0.2309346,0 0.4198811,0.29011 0.4198811,0.64469 v 0.64468 H 2.4242774 c -0.444105,0 -0.8074636,-0.11604 -0.8074636,-0.25787 z m 27.3891652,-0.12894 0.387583,-0.38681 0.387582,0.38681 0.387583,0.38681 h -0.775165 -0.775165 z m 2.749323,-0.58543 c 0.202249,-0.53475 0.687474,-1.36882 1.078287,-1.85348 l 0.710568,-0.88123 0.398816,0.39008 0.398806,0.39008 -0.77788,1.4634 -0.77788,1.46339 h -0.699213 -0.699213 z m 5.571832,-0.58575 c 0.117385,-0.82735 0.401218,-1.70275 0.63073,-1.94534 l 0.417307,-0.44107 0.376773,0.2324 0.376762,0.23239 -0.21859,1.33688 -0.218591,1.33688 1.233805,-1.85348 1.233804,-1.85347 h 0.576923 c 0.802074,0 0.723558,0.47366 -0.337651,2.03715 -0.50302,0.74109 -1.002517,1.58921 -1.10999,1.88469 l -0.195396,0.53724 h -1.48966 -1.489649 z m 4.23008,-0.0914 c 0.987366,-1.8105 1.628613,-2.25789 2.175165,-1.51758 0.196365,0.26598 0.538629,0.42254 0.760581,0.34792 0.668065,-0.22461 0.807372,0.76164 0.25749,1.82289 l -0.516141,0.99613 h -0.659446 -0.659445 l 0.227584,-0.72527 c 0.125177,-0.3989 0.292523,-0.94285 0.371897,-1.20879 0.07933,-0.26593 -0.18716,0.0604 -0.592285,0.72528 l -0.736598,1.20878 H 41.421873 40.65774 Z m 4.046492,0.28298 c 0.41538,-0.75151 1.007644,-1.41489 1.316146,-1.47418 l 0.560894,-0.1078 v 0.48103 c 0,0.26456 -0.254351,0.92703 -0.565224,1.47214 l -0.565225,0.99111 -0.75091,0.002 -0.750921,0.002 0.75524,-1.36637 z m 3.010013,0.3453 c 0.124864,-0.59078 0.35706,-1.21196 0.515989,-1.38038 l 0.288951,-0.30623 0.348239,0.34755 c 0.19153,0.19115 0.300538,0.76411 0.242239,1.27325 l -0.106,0.92572 -0.758218,0.10713 L 48.3867,110 Z m 4.03974,0.77932 c 0.003,-0.13297 0.133403,-0.44421 0.290394,-0.69166 l 0.285439,-0.4499 0.517079,0.19803 c 0.284389,0.10891 0.51707,0.42015 0.51707,0.69166 v 0.49363 h -0.807464 c -0.444105,0 -0.805233,-0.10879 -0.802518,-0.24175 z m 3.547894,-0.24175 v -0.48352 h 0.645971 0.645971 v 0.48352 0.48351 h -0.645971 -0.645971 z m 1.937913,-0.17129 c 0,-0.36014 0.232691,-0.74391 0.51708,-0.85283 l 0.517079,-0.19803 0.285438,0.4499 c 0.156992,0.24745 0.287669,0.63122 0.290385,0.85283 l 0.005,0.40293 h -0.807463 -0.807464 z m 2.260898,-0.55054 c 0,-0.6876 0.208235,-1.53175 0.462737,-1.8759 l 0.462738,-0.62571 0.365448,0.35914 0.365437,0.35914 -0.101457,1.41374 -0.101468,1.41376 -0.726718,0.10301 -0.726717,0.103 z m 4.075229,-0.51908 c -0.952303,-1.94256 -1.039529,-2.46604 -0.410949,-2.46604 0.635353,0 1.368944,0.92245 2.114899,2.65933 l 0.657578,1.53113 h -0.758087 -0.758077 z m 4.331608,0.1237 c -0.738577,-0.88041 -1.381772,-1.96483 -1.429312,-2.40982 l -0.0864,-0.80909 -1.20198,-0.95332 c -1.401404,-1.11148 -2.143766,-2.01148 -2.948827,-3.57501 l -0.58091,-1.1282 0.08034,-1.77289 c 0.04421,-0.97509 0.103365,-2.48442 0.131505,-3.35406 L 62.822587,92.7626 59.592733,91.07508 56.362879,89.38756 54.738393,87.7446 53.113907,86.10165 52.59815,84.71282 52.082383,83.324 52.666552,82.1876 c 0.3213,-0.62502 0.813742,-1.32654 1.094315,-1.55894 0.280574,-0.23239 0.804678,-1.08709 1.164676,-1.8993 0.734872,-1.658 1.555498,-2.69331 1.944574,-2.45332 0.142679,0.088 0.728958,-0.4231 1.302843,-1.1358 1.066679,-1.3247 1.904251,-1.68007 1.904251,-0.80793 0,0.26834 -0.178036,0.77242 -0.395637,1.12017 l -0.395647,0.63226 0.3538,0.35309 0.353791,0.3531 -0.158546,2.7978 -0.158556,2.7978 1.95708,3.88976 1.95708,3.88977 0.383576,2.19828 c 0.21097,1.20905 0.305796,3.05438 0.210727,4.10073 -0.09508,1.04635 -0.02554,2.43515 0.15466,3.08623 l 0.327507,1.18378 1.913578,1.83993 1.913578,1.83993 2.331965,0.95388 2.331955,0.95388 1.825967,-0.0765 1.825958,-0.0765 1.080911,-0.66764 c 1.366623,-0.84412 2.410804,-1.97817 4.069506,-4.41975 l 1.313905,-1.93406 0.217964,-1.36512 0.217955,-1.36511 -0.521248,-1.56624 -0.521258,-1.56622 -1.928708,-2.53032 c -1.060785,-1.39162 -1.928707,-2.74385 -1.928707,-3.00491 0,-0.26105 -0.222628,-0.7044 -0.494733,-0.98521 -0.272105,-0.2808 -1.212558,-1.59846 -2.089877,-2.92813 l -1.595135,-2.41757 -0.96509,-3.13906 C 73.134735,76.55387 72.542965,74.84764 72.350496,74.48873 L 72.000552,73.83615 71.2874,74.20401 c -0.392236,0.20232 -0.962093,0.5844 -1.266355,0.84905 -0.304253,0.26466 -0.758915,0.40241 -1.010339,0.30612 -0.251434,-0.0963 -0.595908,-0.0366 -0.765486,0.13264 -0.169587,0.16924 -0.55066,0.21492 -0.846827,0.10149 l -0.538488,-0.20622 v -0.77138 -0.77136 h 0.611422 c 0.336278,0 0.700858,-0.23264 0.810179,-0.51696 l 0.198777,-0.51696 0.471407,0.18053 c 0.259277,0.0993 0.563448,0.0319 0.675928,-0.1497 0.11247,-0.18163 0.377863,-0.26384 0.589741,-0.1827 0.211879,0.0812 0.912495,-0.10841 1.556901,-0.42124 0.644427,-0.31282 1.963802,-0.66755 2.931961,-0.78827 l 1.760281,-0.21949 0.192842,0.50153 c 0.106061,0.27585 0.119606,0.692 0.03008,0.92481 -0.175593,0.45667 0.822372,1.51829 1.527378,1.62481 0.237637,0.036 0.626794,0.1866 0.864794,0.33488 l 0.43273,0.26961 -0.09932,5.36234 -0.09932,5.36234 1.563552,2.57875 c 0.859949,1.41831 1.749208,2.79633 1.976136,3.06226 0.226938,0.26594 0.790416,1.16418 1.252194,1.99609 l 0.839581,1.51258 v 1.73403 c 0,2.21653 -0.805718,4.64432 -1.950782,5.87815 l -0.897465,0.96703 -0.02867,2.09524 c -0.01575,1.15237 -0.143325,2.60292 -0.283511,3.22343 l -0.254876,1.1282 -0.714756,0.10301 -0.714757,0.103 v -0.49006 c 0,-0.26954 0.159534,-1.23249 0.354527,-2.1399 0.194992,-0.90741 0.280583,-1.72362 0.190208,-1.81382 -0.09033,-0.0901 -0.920266,0.35498 -1.844207,0.98928 l -1.679877,1.15326 -0.851965,0.005 c -0.468591,0.003 -1.061724,0.13738 -1.318083,0.29925 l -0.466119,0.29432 0.378448,0.82895 0.378438,0.82884 H 74.28167 73.319638 l -0.0103,-0.5641 c -0.0061,-0.31025 -0.187331,-0.79529 -0.403731,-1.07785 -0.394769,-0.51547 -3.784804,-2.27699 -3.784804,-1.96665 0,0.091 0.586087,0.94013 1.302408,1.88701 l 1.302409,1.72159 h -0.787853 -0.787852 z m -6.557846,-17.6593 c -0.06985,-0.13296 -0.457983,-0.96703 -0.862442,-1.85347 -0.404468,-0.88645 -1.24633,-2.48205 -1.870812,-3.54578 l -1.135415,-1.93406 -0.03987,-2.96061 -0.03987,-2.96059 -0.625926,1.18771 c -0.344252,0.65323 -0.796371,1.84046 -1.004697,2.63826 l -0.378781,1.45054 h -0.61023 -0.610231 l 0.08024,-0.744 0.08024,-0.744 -0.324793,0.20034 c -0.178641,0.11019 -0.545128,0.62555 -0.814407,1.14525 l -0.489606,0.94491 0.626027,1.21047 c 0.894467,1.72952 2.957386,3.60534 5.460311,4.96508 2.215175,1.20343 2.783852,1.42554 2.560184,0.99995 z M 77.841378,79.32426 v -3.86812 l -0.403732,-0.0102 c -0.519875,-0.0131 -2.180151,-1.46645 -2.180151,-1.90842 0,-0.18579 -0.356395,-0.3378 -0.791991,-0.3378 h -0.792001 l 0.441521,1.36996 c 0.242845,0.75348 0.821746,2.62533 1.286461,4.15965 0.717987,2.37057 1.797192,4.46304 2.301847,4.46304 0.0759,0 0.138046,-1.74066 0.138046,-3.86813 z m 8.39642,29.59448 c -0.002,-1.45454 -1.050934,-3.05862 -2.430112,-3.71499 l -1.143802,-0.54436 0.09558,-0.4954 c 0.245722,-1.27338 2.650934,-0.13959 4.078297,1.92246 l 0.77564,1.12052 -0.194922,-1.98736 c -0.107201,-1.09306 -0.43707,-2.49415 -0.733026,-3.11355 l -0.538114,-1.12619 0.214049,-0.55668 0.214048,-0.5567 0.599441,0.54141 c 0.329698,0.29777 0.84162,1.30982 1.137615,2.24899 l 0.538165,1.70756 -0.09468,2.71064 -0.09467,2.71063 -1.211196,0.10003 -1.211195,0.10003 -0.001,-1.06707 z m 5.127142,-0.34238 c -0.998459,-1.60987 -2.026289,-4.5951 -1.791964,-5.20452 0.227231,-0.59096 -1.435286,-3.39204 -2.6517,-4.4677 -0.55289,-0.48891 -1.005262,-1.11548 -1.005262,-1.39238 v -0.50344 l 0.714626,0.103 0.714625,0.10301 1.521373,1.88723 1.521382,1.88722 0.534904,2.39953 c 0.2942,1.31975 0.959449,3.205 1.478335,4.18945 1.097606,2.08242 1.143409,2.36934 0.378196,2.36856 l -0.565225,-6.4e-4 -0.84929,-1.36939 z m 4.000942,0.27565 c -0.312267,-0.60218 -1.048138,-1.7641 -1.635265,-2.58205 l -1.067487,-1.48717 0.518704,-0.19864 0.518705,-0.19866 0.827478,0.76606 0.827479,0.76605 -1.005403,-1.49729 c -0.552982,-0.82351 -1.005414,-1.7301 -1.005414,-2.01465 v -0.51735 h 0.586158 0.586148 l 0.501324,1.04761 c 0.275729,0.57619 1.029405,1.67788 1.674851,2.4482 1.112289,1.3275 1.260651,1.98403 0.448352,1.98403 -0.200117,0 -0.716854,-0.32638 -1.148312,-0.72528 l -0.784451,-0.72527 1.005878,1.59424 c 1.169215,1.85311 1.255836,2.43505 0.36245,2.43505 H 95.93365 Z m 3.87328,-0.57204 c -0.577337,-0.89615 -1.049703,-1.75803 -1.049703,-1.91528 0,-0.43508 0.77031,-0.34163 1.47245,0.17864 l 0.626951,0.46457 0.69187,-0.16844 0.69187,-0.16843 1.1945,1.55734 1.19449,1.55735 -0.7018,0.1065 -0.7018,0.10648 -0.63324,-0.57194 -0.63323,-0.57193 0.20994,0.54603 0.20995,0.54603 -0.76127,-0.0188 -0.76128,-0.0187 -1.049698,-1.62936 z m 1.857168,-0.26714 c -0.19014,-0.35457 -0.41838,-0.64468 -0.5072,-0.64468 -0.0888,0 -0.006,0.29011 0.18421,0.64468 0.19014,0.35458 0.41839,0.64469 0.50721,0.64469 0.0888,0 0.006,-0.29011 -0.18422,-0.64469 z m 3.4624,0.77678 c -0.81861,-0.63652 -1.72806,-1.52235 -2.02099,-1.96852 l -0.53259,-0.81124 0.34252,-0.34183 0.3425,-0.34183 1.58579,1.4239 c 0.87218,0.78316 1.967,1.68453 2.43293,2.00307 0.46594,0.31853 0.84715,0.71743 0.84715,0.88644 0,0.68954 -1.60136,0.23541 -2.99731,-0.84999 z m 3.1588,-0.17908 c -0.71057,-0.69998 -1.82712,-1.55391 -2.48122,-1.89762 -1.38429,-0.7274 -1.7589,-1.20536 -1.30208,-1.66127 l 0.32692,-0.32628 0.69971,0.22163 c 0.38485,0.1219 1.20375,0.66331 1.81978,1.20312 0.61605,0.53982 1.2154,0.88637 1.33189,0.7701 0.46026,-0.45934 -1.85167,-6.20753 -3.20932,-7.97938 -0.49501,-0.64603 -0.90001,-1.33504 -0.90001,-1.53113 0,-0.65443 0.9901,-0.36696 1.82506,0.5299 1.50958,1.62152 2.68337,4.58724 3.34893,8.46152 0.19796,1.15237 0.43865,2.4216 0.53486,2.8205 l 0.17492,0.72527 -0.43875,-0.0318 c -0.24131,-0.0175 -1.02012,-0.60454 -1.73069,-1.30451 z m 3.5739,0.61109 c -0.084,-0.3989 -0.32075,-1.52307 -0.5261,-2.49816 -0.20533,-0.97509 -0.50306,-2.41457 -0.6616,-3.19886 -0.15854,-0.78428 -0.52018,-1.68173 -0.80364,-1.99434 -0.55717,-0.61444 -0.37006,-1.25367 0.36697,-1.25367 1.02417,0 1.78297,1.97369 2.41659,6.2857 0.18237,1.24102 0.4108,2.51025 0.50762,2.8205 l 0.17607,0.5641 h -0.66159 -0.66158 z m 6.92313,0.31209 c 0.26646,-0.21597 0.48448,-0.75333 0.48448,-1.19412 v -0.80145 l 0.64597,-0.12415 c 0.35528,-0.0683 1.03865,-0.45391 1.51859,-0.85695 0.47993,-0.40304 1.31566,-0.92852 1.85716,-1.16773 l 0.98455,-0.43494 v -0.61591 c 0,-0.33875 0.58138,-1.16786 1.29194,-1.84246 0.71057,-0.67461 1.29195,-1.38053 1.29195,-1.56872 0,-0.1882 0.36335,-0.5074 0.80746,-0.70934 0.4441,-0.20194 0.80746,-0.51305 0.80746,-0.69132 0,-0.31489 0.34195,-0.73567 1.86206,-2.29127 l 0.73162,-0.74869 -0.20195,-0.52522 c -0.11108,-0.28887 0.0313,-1.01583 0.31643,-1.61546 l 0.51838,-1.09023 0.75004,-0.18787 0.75004,-0.18787 0.30259,-1.21744 0.3026,-1.21746 0.88693,0.0127 0.88694,0.0127 v -0.39963 c 0,-0.21978 0.19264,-0.51561 0.42809,-0.65739 0.23545,-0.14178 0.52157,-0.51162 0.63584,-0.82187 0.11425,-0.31026 0.47392,-0.5641 0.79925,-0.5641 0.7573,1e-5 1.36668,-0.60871 1.36668,-1.36518 0,-0.80471 0.94051,-2.18059 1.49057,-2.18059 h 0.44734 v -0.67487 -0.67486 l 0.6136,-0.16014 0.61359,-0.16014 0.13611,-0.92552 0.13611,-0.92551 -0.42672,-0.16343 c -0.23469,-0.0899 -0.42672,-0.46261 -0.42672,-0.82832 v -0.66492 l 0.56276,-0.21552 c 0.30952,-0.11854 1.03624,-0.21553 1.61493,-0.21553 1.04084,0 1.35453,-0.29119 0.72918,-0.67692 -0.47672,-0.29403 -0.3923,-1.3791 0.13041,-1.67628 0.24938,-0.14177 0.50373,-0.62041 0.56523,-1.06364 l 0.11182,-0.80586 0.87585,0.0118 0.87584,0.0118 -0.50042,-0.55188 c -1.109,-1.22299 0.26845,-2.51268 1.49778,-1.40236 0.55508,0.50133 1.28827,0.43644 1.28827,-0.11402 0,-0.12861 -0.43603,-0.49088 -0.96896,-0.80506 l -0.96895,-0.57124 v -0.63444 -0.63444 l 0.80746,-0.30639 0.80747,-0.30639 v -1.11715 c 0,-0.61443 -0.15773,-1.21445 -0.35051,-1.33335 l -0.35051,-0.2162 0.2248,-1.9331 0.22481,-1.9331 -0.42402,-0.79071 -0.42402,-0.79071 0.42225,-0.67477 0.42224,-0.67478 -0.0265,-1.87231 -0.0264,-1.87231 0.39613,-0.25353 c 0.52353,-0.33507 1.43294,-2.24592 1.69309,-3.55755 l 0.2078,-1.04762 h 0.43705 c 0.24037,0 0.5293,-0.29011 0.64207,-0.64468 0.11277,-0.35458 0.32635,-0.64469 0.47464,-0.64469 0.44092,0 0.97851,-1.92201 0.98269,-3.51329 l 0.004,-1.48303 0.99665,-2.9011 c 0.54814,-1.5956 1.12566,-3.40878 1.28336,-4.02929 l 0.28673,-1.1282 -0.33287,-4.67398 -0.33287,-4.67398 0.32815,-2.86533 0.32814,-2.86534 0.49389,-0.54465 c 0.27168,-0.29959 0.49392,-0.64095 0.49392,-0.75861 0,-0.41275 1.45532,-1.87874 2.51223,-2.53065 l 1.06751,-0.65844 1.4172,0.21209 1.41719,0.2121 1.14616,1.26616 c 0.6304,0.69637 1.73236,2.42967 2.44879,3.85177 0.71644,1.4221 1.43655,2.58564 1.60024,2.58564 0.16368,0 0.38987,0.29011 0.50264,0.64468 l 0.20502,0.64469 h 1.45954 c 0.80276,0 2.50075,0.2794 3.77332,0.62089 1.27257,0.34151 3.54919,0.87429 5.05914,1.18397 l 2.74538,0.56308 3.06836,-0.033 c 1.6876,-0.0181 5.0305,-0.15411 7.42867,-0.30207 l 4.3603,-0.26904 1.45343,-1.41187 c 1.57613,-1.53108 7.9586,-5.81424 9.52808,-6.39414 1.32538,-0.4897 3.80989,-0.79387 4.45778,-0.54574 0.29294,0.11219 0.74486,0.62858 1.00427,1.14756 l 0.47166,0.94358 -0.15517,2.78004 c -0.0854,1.52903 -0.2749,3.01224 -0.42123,3.29602 -0.14632,0.28379 -0.4482,1.53136 -0.67084,2.77239 -0.22263,1.24102 -0.59764,2.90915 -0.83334,3.70695 -0.74607,2.52527 -1.10776,5.18587 -1.10776,8.14861 v 2.87271 l 0.64861,0.90908 c 0.35673,0.5 0.73826,1.35645 0.84783,1.90324 0.10959,0.54678 0.32641,0.99416 0.48185,0.99416 0.15543,0 0.28261,0.72527 0.28261,1.61171 v 1.61172 h 0.32299 c 0.17764,0 0.32298,0.43516 0.32298,0.96703 v 0.96703 h -0.36499 -0.36499 l 0.24247,1.53113 c 0.30434,1.92171 0.31269,3.42615 0.0371,6.68863 l -0.2178,2.57875 -0.47339,0.35788 c -0.26037,0.19683 -0.4734,0.6505 -0.4734,1.00815 0,0.35764 -0.21801,0.83084 -0.48447,1.05154 -0.26647,0.22071 -0.48448,0.81012 -0.48448,1.30983 0,0.49969 -0.14535,0.99818 -0.32299,1.10775 -0.17764,0.10957 -0.32298,0.55785 -0.32298,0.99617 v 0.79696 l -0.48448,0.18553 c -0.26647,0.10206 -0.48448,0.38761 -0.48448,0.63458 0,0.24695 -0.21802,0.44902 -0.48448,0.44902 h -0.48448 v 0.7795 c 0,0.42872 -0.0751,0.97481 -0.16688,1.21353 l -0.16689,0.43404 2.83152,0.76482 c 4.61372,1.2462 9.45271,3.66627 9.45271,4.72748 0,0.73635 -0.95168,0.53983 -2.64863,-0.54693 -2.33276,-1.49396 -2.14246,-0.98941 0.32868,0.87142 l 2.15846,1.62537 0.10322,0.7064 0.1032,0.70639 h -0.46739 c -0.25707,0 -0.63695,-0.20388 -0.84416,-0.45307 -0.8933,-1.07423 -5.46635,-3.90338 -8.18144,-5.06153 l -2.94719,-1.25714 -0.24369,0.39351 -0.24369,0.39352 2.00027,1.25514 c 1.10015,0.69033 2.61797,1.75649 3.37295,2.36925 l 1.37269,1.11411 v 0.6231 c 0,0.92068 -0.54408,0.76764 -2.21607,-0.62329 -3.21189,-2.67196 -5.85856,-4.01524 -5.85856,-2.97341 0,0.14022 2.51862,2.30488 5.59694,4.81035 6.15009,5.00561 6.83932,5.65498 6.5308,6.15318 l -0.20899,0.33747 -2.04401,-1.73055 -2.04401,-1.73055 -0.77613,0.14808 -0.77612,0.14807 -1.35442,-1.60308 -1.35442,-1.60307 -2.31143,-1.32999 -2.31144,-1.32999 1.76166,1.89902 c 0.96892,1.04447 2.32792,2.60737 3.02001,3.47311 0.69209,0.86575 1.80776,2.18733 2.47927,2.93685 0.67152,0.74951 1.22095,1.58358 1.22095,1.85347 v 0.49069 h -0.56827 c -0.31256,0 -0.75684,-0.30132 -0.98729,-0.66959 -0.39644,-0.63355 -6.53204,-7.71134 -6.68481,-7.71134 -0.15717,0 1.43322,4.15792 2.38494,6.23516 0.55586,1.21323 1.01065,2.34707 1.01065,2.51967 0,0.17259 0.36336,0.78923 0.80746,1.37034 0.44411,0.58109 0.80747,1.22416 0.80747,1.42903 0,0.57702 -1.20531,0.43934 -1.67737,-0.1916 -0.23211,-0.31025 -0.64005,-0.5641 -0.90652,-0.5641 h -0.48448 l -0.80462,-1.57951 -0.80463,-1.5795 -0.3022,1.05159 -0.3022,1.0516 0.40782,1.01143 c 0.2243,0.55628 0.49053,1.28647 0.59161,1.62265 l 0.18381,0.61122 -0.85748,-0.1636 -0.85748,-0.16359 -0.0375,0.84174 c -0.0206,0.46297 -0.0747,1.92966 -0.12028,3.25933 -0.1079,3.14996 -0.49748,5.80218 -0.85228,5.80218 -0.15504,0 -0.28189,0.21758 -0.28189,0.48352 0,0.26593 -0.14535,0.48351 -0.32299,0.48351 -0.17764,0 -0.32298,0.29011 -0.32298,0.64469 v 0.64468 h -0.96896 -0.96896 v -0.80585 c 0,-0.44323 0.14535,-0.80586 0.32299,-0.80586 0.17764,0 0.32298,-0.36264 0.32298,-0.80586 0,-0.9757 -0.13198,-0.99649 -0.97635,-0.15379 l -0.65338,0.65208 0.33039,0.61611 c 0.18171,0.33885 0.33039,0.77069 0.33039,0.95964 0,0.48371 -1.8491,0.43005 -2.04699,-0.0594 l -0.16292,-0.40292 -0.0254,0.40292 -0.0255,0.40293 h -1.41888 -1.41888 l -0.19604,-0.50987 c -0.34351,-0.89338 -0.21205,-1.70556 0.32456,-2.00526 l 0.52061,-0.29078 -0.22573,-1.0257 -0.22573,-1.02571 -0.94085,-0.69422 c -1.10859,-0.81798 -1.16676,-1.35844 -0.28719,-2.66821 1.176,-1.75119 2.17058,-4.12321 3.87469,-9.2409 l 1.68173,-5.05042 -0.83667,-1.09474 c -0.46016,-0.6021 -1.43057,-1.57106 -2.15647,-2.15326 l -1.31981,-1.05852 -0.70633,0.59564 c -0.38848,0.32761 -0.82015,0.77267 -0.95927,0.98903 -0.1391,0.21636 -0.82948,0.54831 -1.53418,0.73769 l -1.28124,0.34432 v 0.4149 c 0,0.49029 -1.34365,1.81666 -1.84031,1.81666 -0.18989,0 -0.41655,0.2721 -0.50369,0.60467 l -0.15844,0.60468 -1.25191,0.23679 c -0.68856,0.13023 -3.2504,0.30093 -5.69297,0.37934 l -4.44105,0.14256 v -0.33929 -0.33934 h -1.2524 -1.2524 L 173.78185,88.85 c -0.21359,-0.25687 -0.88544,-0.63076 -1.49298,-0.83086 -0.60753,-0.20011 -1.10461,-0.49764 -1.10461,-0.66118 0,-0.16354 -0.43603,-0.29734 -0.96895,-0.29734 -0.53293,0 -0.96896,-0.14506 -0.96896,-0.32235 0,-0.17728 -0.47237,-0.32447 -1.0497,-0.32709 -0.57734,-0.003 -1.36482,-0.18393 -1.74997,-0.40293 -0.38514,-0.21899 -1.14886,-0.64123 -1.69715,-0.93831 l -0.99691,-0.54014 -0.32888,0.6133 -0.32888,0.6133 0.32353,0.57152 c 0.17795,0.31434 0.68997,1.50313 1.13784,2.64175 l 0.8143,2.07022 -0.005,1.7979 c -0.006,2.36219 -0.53899,3.97699 -2.04656,6.20558 l -1.23721,1.82895 0.4356,0.90703 c 0.23958,0.49888 0.72518,0.96005 1.07911,1.02485 0.76069,0.13926 1.76947,0.97081 1.7847,1.47117 0.0154,0.50728 1.0223,1.63648 1.68493,1.88966 0.79497,0.30375 0.70491,0.99347 -0.32299,2.47368 l -0.88821,1.27905 -10.58204,-0.009 -10.58205,-0.009 0.172,-0.27774 0.172,-0.27775 -1.0538,0.30162 -1.0538,0.30164 -9.5302,-0.0516 c -5.24162,-0.0284 -9.05785,-0.11009 -8.48051,-0.18159 1.11674,-0.1383 1.3088,-0.44031 0.63495,-0.99845 l -0.41477,-0.34353 -2.24986,0.78617 -2.24988,0.78619 -1.45343,-0.009 -1.45344,-0.009 0.48448,-0.39267 z m 20.16127,-3.2998 c 1.79034,-0.27478 4.84373,-0.83258 6.78529,-1.23958 l 3.53012,-0.73998 -0.38389,-0.2368 c -0.21116,-0.13024 -0.63706,-0.15661 -0.94648,-0.0586 -0.30941,0.098 -1.36185,0.2523 -2.33875,0.34285 -1.72575,0.15998 -4.10947,0.63459 -11.46575,2.28285 -3.09613,0.69372 -6.94419,2.08369 -6.94419,2.50832 0,0.0785 1.91441,-0.42024 4.25423,-1.10836 2.33983,-0.68811 5.71907,-1.47593 7.50942,-1.7507 z m 9.2304,2.73123 0.48448,-0.3272 -0.96895,0.21631 c -1.1876,0.26512 -1.4454,0.44961 -0.61906,0.44302 0.34048,-0.003 0.83707,-0.15218 1.10353,-0.33213 z m 8.31015,0.14232 c -0.10732,-0.10712 -0.3859,-0.11856 -0.61905,-0.0255 l -0.42392,0.1693 0.61905,0.0255 c 0.34049,0.014 0.53125,-0.0622 0.42392,-0.1693 z m -5.72626,-0.44994 0.80746,-0.25808 -1.21119,-0.0321 -1.2112,-0.0321 v 0.32234 c 0,0.36901 0.4604,0.36901 1.61493,0 z m 9.36658,-0.32234 0.80746,-0.25808 -0.64597,0.006 c -0.35529,0.003 -1.082,0.11674 -1.61493,0.25208 l -0.96895,0.24607 0.80746,0.006 c 0.4441,0.003 1.17082,-0.11013 1.61493,-0.25207 z m 4.19386,-1.2515 c -0.003,-0.10948 -0.13699,-0.4073 -0.29837,-0.66183 l -0.29342,-0.4628 -0.50909,0.42168 -0.5091,0.42166 -0.54648,-0.44239 -0.54647,-0.4424 0.25513,0.42324 0.25512,0.42324 -0.52586,0.57992 -0.52586,0.57992 1.62468,-0.3206 c 0.89356,-0.17634 1.62245,-0.41017 1.61972,-0.51964 z m -35.52345,-3.74483 c 0.4441,-0.25337 0.67593,-0.46581 0.51516,-0.47209 -0.44121,-0.0172 0.81613,-1.3008 1.27424,-1.3008 0.21853,0 0.88638,-0.21584 1.48412,-0.47964 l 1.08678,-0.47965 -1.45343,0.20214 c -1.85586,0.2581 -2.9953,0.83538 -3.66637,1.85753 -0.84893,1.29306 -0.64488,1.47374 0.7595,0.67251 z m 6.25007,-4.71302 c 0.68409,-0.17912 1.18317,-0.38619 1.10906,-0.46015 -0.0741,-0.0739 -0.63286,0.008 -1.24167,0.18236 -0.6088,0.17426 -1.50758,0.31683 -1.99727,0.31683 -0.48968,0 -0.89034,0.16078 -0.89034,0.35729 v 0.35729 l 0.88821,-0.21398 c 0.48852,-0.11768 1.44792,-0.36052 2.13201,-0.53964 z m -1.1918,-2.43409 c -0.28171,-0.28115 -1.52551,0.24587 -1.32903,0.56315 l 0.18579,0.30001 0.65403,-0.34933 c 0.35972,-0.19214 0.57986,-0.42335 0.48921,-0.51383 z m 8.02264,-3.95697 c 0.88821,-0.34721 1.45914,-0.63808 1.26873,-0.64637 -0.55875,-0.0244 -3.50034,1.009 -3.85261,1.35337 l -0.32299,0.31572 0.64597,-0.19571 c 0.35528,-0.10764 1.37269,-0.4798 2.2609,-0.82701 z m 17.60271,-3.56254 c 0,-0.17729 -0.0641,-0.32235 -0.14243,-0.32235 -0.0783,0 -0.23227,0.14506 -0.34205,0.32235 -0.10979,0.17728 -0.0457,0.32234 0.14242,0.32234 0.18813,0 0.34206,-0.14506 0.34206,-0.32234 z m -17.5837,-1.14599 0.62696,-0.5013 -0.80746,0.38379 c -0.98867,0.46992 -1.17191,0.61881 -0.76154,0.61881 0.1733,0 0.59722,-0.22558 0.94204,-0.5013 z m 15.80405,-1.4294 c 0.5088,-0.53002 0.85308,-1.03554 0.76507,-1.12337 -0.088,-0.0878 -0.65097,0.34581 -1.25102,0.96366 -0.60003,0.61786 -0.94431,1.12338 -0.76506,1.12338 0.17925,0 0.7422,-0.43365 1.25101,-0.96367 z m 2.10263,-0.18 c 0,-0.38082 -0.61068,-0.38009 -0.75717,9.7e-4 l -0.17888,0.46524 0.46802,-0.17924 c 0.25741,-0.0986 0.46803,-0.22776 0.46803,-0.28697 z M 149.22116,84.2979 c 0,-0.0886 -0.29069,-0.006 -0.64597,0.18386 -0.35528,0.18976 -0.64597,0.41756 -0.64597,0.5062 0,0.0886 0.29069,0.006 0.64597,-0.18386 0.35528,-0.18976 0.64597,-0.41755 0.64597,-0.5062 z m 12.59643,-1.54023 c 0,-0.17729 -0.36335,0.0183 -0.80746,0.43472 -0.4441,0.41638 -0.80746,0.90211 -0.80746,1.0794 0,0.17729 0.36336,-0.0183 0.80746,-0.43472 0.44411,-0.41638 0.80746,-0.90212 0.80746,-1.0794 z m 39.40423,1.42058 c 0,-0.16692 -0.9084,-0.98368 -2.01866,-1.81502 l -2.01866,-1.51152 1.93791,1.80022 c 2.13406,1.98242 2.09941,1.95724 2.09941,1.52632 z m -46.97537,-1.45912 0.62696,-0.47326 h -0.48448 c -0.26646,0 -0.76661,0.21296 -1.11143,0.47326 l -0.62696,0.47326 h 0.48448 c 0.26646,0 0.7666,-0.21297 1.11143,-0.47326 z m 47.90278,-0.38256 c -0.21773,-0.26183 -0.84251,-0.70047 -1.38836,-0.97473 l -0.99249,-0.49867 1.13024,1.13397 c 1.0712,1.07473 2.09261,1.35197 1.25061,0.33943 z m -42.56809,-0.31613 0.78302,-0.84961 -0.64597,0.34247 c -0.35529,0.18836 -0.93666,0.56607 -1.29194,0.83935 l -0.64597,0.49688 0.50892,0.0103 c 0.27991,0.006 0.86128,-0.37208 1.29194,-0.83935 z m -7.59611,-1.43667 0.22095,-0.35679 -0.60419,0.33088 c -0.33231,0.18199 -0.8949,0.56612 -1.25018,0.85362 l -0.64597,0.52274 1.02922,-0.49682 c 0.56608,-0.27326 1.12866,-0.65739 1.25017,-0.85363 z m 21.54079,1.10576 c -0.22206,-0.0894 -0.40374,-0.33366 -0.40374,-0.54273 0,-0.20909 -0.36335,-0.65247 -0.80746,-0.98532 l -0.80746,-0.60518 v -0.77082 c 0,-1.09955 -0.7696,-1.24848 -2.1265,-0.41153 l -1.17395,0.72409 0.51977,0.2903 c 0.28589,0.15967 0.51978,0.55959 0.51978,0.88872 v 0.59842 l 1.61456,0.22162 c 0.88802,0.12189 1.69599,0.35309 1.79549,0.51377 0.0995,0.16068 0.42668,0.28069 0.72708,0.2667 l 0.54616,-0.0255 -0.40373,-0.16259 z m 8.03509,-1.31765 0.44327,-0.5641 -0.56522,0.4424 c -0.31087,0.24332 -0.56522,0.49716 -0.56522,0.5641 0,0.2653 0.26523,0.0946 0.68717,-0.4424 z m -23.77373,-1.95402 c -0.20143,-0.20105 -2.10631,0.92037 -2.10631,1.23999 0,0.17437 0.49831,-0.009 1.10734,-0.40741 0.60904,-0.39844 1.05857,-0.7731 0.99897,-0.83258 z m -10.02174,0.91009 0.19733,-0.31864 -0.50125,0.19196 c -0.55954,0.21429 -0.66192,0.44534 -0.19734,0.44534 0.16717,0 0.39273,-0.14339 0.50126,-0.31866 z m 56.48839,0.055 c 0.14564,-0.23517 -3.02812,-1.99275 -3.59842,-1.99275 -0.27898,0 2.89703,2.21359 3.21197,2.23865 0.12276,0.0101 0.29665,-0.10088 0.38645,-0.2459 z m -25.31801,-0.86454 c 0.41722,-0.44323 0.6859,-0.80586 0.59708,-0.80586 -0.0888,0 -0.50285,0.36263 -0.92006,0.80586 -0.41722,0.44322 -0.6859,0.80585 -0.59708,0.80585 0.0888,0 0.50285,-0.36263 0.92006,-0.80585 z m -23.41873,-0.15749 0.19733,-0.31865 -0.50125,0.19197 c -0.55954,0.21429 -0.66192,0.44534 -0.19734,0.44534 0.16717,0 0.39273,-0.14339 0.50126,-0.31866 z m -8.3045,-1.46943 c -0.05,-0.049 -0.48022,-0.0144 -0.95614,0.0769 l -0.8653,0.1659 0.16848,0.43819 0.16848,0.43819 0.78766,-0.51506 c 0.4332,-0.28328 0.74677,-0.55513 0.69682,-0.6041 z m 8.46828,-0.16579 c 0,-0.13126 0.6535,-0.50688 1.45222,-0.8347 0.79873,-0.32782 1.45277,-0.7128 1.45344,-0.85553 6.4e-4,-0.14271 -0.79818,-0.61232 -1.77521,-1.04354 -0.97703,-0.43124 -1.77642,-0.97435 -1.77642,-1.20692 v -0.42285 l -1.1349,0.13223 -1.1349,0.13223 -0.45596,-0.37766 -0.45595,-0.37766 0.41114,1.55066 c 0.22613,0.85286 0.72511,2.16353 1.10884,2.9126 l 0.69769,1.36193 0.80501,-0.36605 c 0.44275,-0.20133 0.805,-0.47346 0.805,-0.60474 z m 22.7438,-0.9903 c -0.32263,-0.52098 -0.70489,-0.28239 -0.86204,0.5381 l -0.15656,0.81735 0.59577,-0.53809 c 0.32767,-0.29596 0.51794,-0.66376 0.42283,-0.81736 z m -2.39572,-0.65531 c 0,-0.25408 -1.52601,0.28912 -2.05511,0.73154 -0.15328,0.12816 -0.18188,0.38936 -0.0636,0.58043 l 0.21513,0.34739 0.95178,-0.70227 c 0.52346,-0.38625 0.95176,-0.81694 0.95176,-0.95709 z m -13.68558,-1.43514 c 0.68785,-0.28701 1.614,-0.65985 2.05811,-0.82853 l 0.80746,-0.3067 -0.56522,-0.31569 c -0.66091,-0.36915 -0.73569,-1.25036 -0.1615,-1.90295 0.22206,-0.25236 0.072,-0.18212 -0.33341,0.15609 -0.40543,0.33821 -1.03499,1.09589 -1.39903,1.68375 l -0.66189,1.06882 h -0.78112 c -0.76112,0 -1.00054,0.31826 -0.5658,0.75214 0.27518,0.27462 0.15211,0.2982 1.6024,-0.30693 z m 23.76273,-0.39699 c 0.2469,-0.22867 -0.10951,-0.26496 -4.4249,-0.45057 -1.59878,-0.0688 -3.30656,-0.23967 -3.79508,-0.3798 l -0.88821,-0.25477 v 0.46161 0.46161 l 1.2112,0.35324 1.21119,0.35323 3.22986,-0.16758 c 1.77642,-0.0922 3.33159,-0.26181 3.45594,-0.37697 z m -12.74539,-3.68835 c 0.26809,-0.67239 0.41908,-1.29076 0.33554,-1.37413 -0.16672,-0.16638 -3.30542,1.22799 -4.20775,1.86931 l -0.56523,0.40174 -0.56522,-0.36066 -0.56523,-0.36065 -0.88821,0.62601 c -0.48851,0.34431 -0.88821,0.72803 -0.88821,0.85273 0,0.1247 1.5428,0.0786 3.42844,-0.10254 l 3.42843,-0.32926 z m -17.67984,-4.86653 c 0,-0.41782 -1.89841,1.39312 -2.32822,2.22096 l -0.33472,0.64469 1.33147,-1.27421 c 0.73231,-0.70081 1.33147,-1.41696 1.33147,-1.59144 z m 22.75847,-1.18303 c -0.27558,-0.44502 -0.98436,-0.3691 -1.41757,0.15186 l -0.37822,0.45481 0.33867,0.2089 c 0.18628,0.11489 0.33922,0.5267 0.33989,0.91515 l 0.001,0.70624 0.65182,-1.067 c 0.3585,-0.58684 0.5674,-1.20332 0.4642,-1.36996 z m 17.46975,-1.14326 c 0.60714,-0.46217 1.41719,-1.34622 1.80011,-1.96458 l 0.69623,-1.12427 -0.52449,-1.09768 c -0.69041,-1.44494 -1.06462,-1.39204 -0.91919,0.1299 l 0.11731,1.2276 -0.6208,1.10939 c -0.34144,0.61017 -0.88948,1.16143 -1.21787,1.22504 l -0.59708,0.11563 -0.42508,-0.58017 c -0.53644,-0.73217 -0.54634,-2.32791 -0.0214,-3.44025 l 0.40374,-0.85542 0.96895,-0.12429 0.96896,-0.1243 -1.21812,-0.0516 -1.21812,-0.0516 -1.31751,0.87015 c -0.72463,0.47858 -1.4428,1.19909 -1.59596,1.60111 l -0.27846,0.73095 0.45378,1.08389 c 0.56324,1.34534 1.03149,1.74241 2.26752,1.92278 0.53293,0.0778 1.01499,0.16313 1.07125,0.18969 0.0562,0.0266 0.59905,-0.32984 1.20618,-0.792 z m -42.64796,-1.66177 c 0.85285,-0.75562 1.47938,-1.44496 1.3923,-1.53186 -0.0871,-0.0869 -1.01793,0.6484 -2.06858,1.63399 -2.18319,2.04803 -1.66159,1.96926 0.67628,-0.10213 z m 18.9615,1.2171 c 0.3047,-0.003 1.05177,-0.44058 1.66016,-0.9737 l 1.10617,-0.9693 0.2108,-1.12142 0.2108,-1.12141 -0.34635,-0.64587 c -0.19049,-0.35523 -0.79509,-0.87746 -1.34355,-1.16051 l -0.99721,-0.51466 0.5223,0.74421 c 0.28727,0.40932 0.52231,1.22176 0.52231,1.80542 v 1.06122 l -1.04971,1.09856 c -0.57733,0.60421 -1.39272,1.19715 -1.81197,1.31762 l -0.76226,0.21905 0.237,-2.04762 c 0.13035,-1.1262 0.36843,-2.39412 0.52906,-2.81761 0.41373,-1.09073 0.13399,-1.19546 -1.31473,-0.49219 l -1.26827,0.61567 -0.13534,0.92028 c -0.21259,1.44562 0.0886,2.40138 1.09619,3.4778 l 0.93246,0.99622 0.72408,-0.19368 c 0.39824,-0.10652 0.97337,-0.19566 1.27806,-0.19808 z m 25.30517,-16.49888 0.94864,-1.02199 -1.0497,0.7216 c -0.57734,0.39687 -1.0497,0.85678 -1.0497,1.02199 0,0.46059 0.12785,0.38041 1.15076,-0.7216 z m -19.877,-3.96313 c 0.85125,-1.24719 2.43652,-3.10167 3.52282,-4.12108 1.0863,-1.01941 1.89149,-1.85348 1.78932,-1.85348 -0.10218,0 -1.17196,0.78529 -2.37729,1.7451 -2.3787,1.89416 -3.91073,3.54088 -3.91073,4.20352 0,0.23063 -0.21801,0.59989 -0.48447,0.8206 l -0.48448,0.40127 0.0374,1.16932 0.0374,1.16933 0.1611,-0.63349 c 0.0886,-0.34841 0.85757,-1.6539 1.7088,-2.90109 z m 6.95759,0.0694 0.94863,-1.04761 -1.0497,0.94675 c -0.57733,0.52072 -1.0497,0.99214 -1.0497,1.04762 0,0.24903 0.2665,0.0298 1.15077,-0.94676 z m 3.39971,-2.71869 c 0.25069,-0.31513 -0.16192,-0.0922 -0.91689,0.49555 -0.75498,0.58769 -1.37269,1.13874 -1.37269,1.22456 0,0.25171 1.79195,-1.09454 2.28958,-1.72011 z m -13.78261,-3.09951 c -0.64547,-0.36373 -0.56993,-0.86609 0.26928,-1.79079 l 0.72672,-0.80076 -0.87807,0.61881 -0.87805,0.6188 -0.007,1.28938 c -0.004,0.70915 0.0896,1.86959 0.20719,2.57874 l 0.21378,1.28938 0.4016,-1.77289 0.4016,-1.77289 -0.45744,-0.25778 z m -4.84957,2.22527 c -0.0952,-0.24754 -0.49031,-0.51899 -0.87808,-0.60322 -0.38775,-0.0842 -0.9957,-0.25748 -1.35099,-0.385 -0.35528,-0.12751 -0.0646,0.13028 0.64597,0.57285 1.51963,0.9465 1.81734,1.02461 1.5831,0.41537 z m 20.25962,-0.43636 0.44328,-0.5641 -0.56522,0.4424 c -0.31088,0.24331 -0.56523,0.49716 -0.56523,0.5641 0,0.2653 0.26523,0.0946 0.68717,-0.4424 z M 0.01216148,108.00955 c -0.00605598,-0.44504 0.49665068,-1.96811 1.11623772,-3.38461 0.6195769,-1.41649 1.128279,-2.81892 1.1304491,-3.1165 0.00505,-0.69485 0.9258983,-1.6212 1.3509269,-1.35903 l 0.3259529,0.20104 -0.2159965,1.14904 c -0.2216891,1.1794 -2.3018163,5.52288 -3.19647594,6.67455 l -0.5008192,0.64468 z M 114.13838,107.44876 c -0.29601,-0.48754 -0.8198,-1.29529 -1.16394,-1.79501 l -0.62572,-0.90855 0.19151,-0.49808 0.19152,-0.4981 0.72274,0.47355 c 0.83377,0.54627 2.16306,2.71916 2.17088,3.54854 l 0.005,0.5641 h -0.47703 c -0.26237,0 -0.71923,-0.3989 -1.01526,-0.88645 z m 1.30213,-1.85275 c -0.41092,-1.63397 0.55363,-2.42276 1.20851,-0.98831 0.42242,0.92527 0.17188,1.79345 -0.51758,1.79345 h -0.48846 z m 0.40814,-2.74695 c -0.87429,-0.2618 -2.15589,-1.42578 -2.15589,-1.95805 0,-0.1397 0.13987,-0.34027 0.31081,-0.4457 l 0.31081,-0.19171 -0.30968,-0.71377 c -0.17033,-0.39256 -0.51545,-1.93282 -0.76694,-3.42277 l -0.45725,-2.70903 0.35254,-0.56337 0.35254,-0.56339 -0.54239,-0.82613 c -0.58395,-0.88947 -0.72979,-2.62925 -0.24543,-2.92799 0.36299,-0.2239 1.31798,0.67952 1.31798,1.2468 0,0.22604 0.21785,0.8468 0.48411,1.37946 0.53106,1.06243 0.59688,1.89587 0.29341,3.71522 l -0.20017,1.20006 0.39115,1.62729 0.39116,1.62729 -0.369,0.44374 -0.36901,0.44373 0.86318,0.67763 c 0.47475,0.3727 1.13883,0.67762 1.47573,0.67762 0.33691,0 0.70184,0.23222 0.81097,0.51605 l 0.19842,0.51605 -0.45079,0.28488 c -0.5174,0.32695 -0.47857,0.32773 -1.68626,-0.034 z m -90.409631,-1.79833 c -0.186938,-0.30636 0.373876,-3.53731 1.015597,-5.85102 l 0.379962,-1.36996 h 0.633526 c 0.797159,0 0.79624,0.0161 -0.16553,2.91241 -0.439482,1.32345 -0.802841,2.63238 -0.807463,2.90875 -0.01131,0.67541 -0.833293,1.76493 -1.056092,1.39982 z M 0.00188651,99.97043 v -0.95087 l 0.99183783,-1.4667 C 2.0243305,96.02884 2.4838177,95.76826 2.7804193,96.53966 l 0.1743717,0.45351 -1.3433267,1.96407 c -0.73882923,1.08024 -1.40324056,1.96407 -1.47645732,1.96407 -0.07317639,0 -0.13312047,-0.42789 -0.13312047,-0.95088 z M 115.846,100.70641 c -0.50263,-0.50163 -0.13967,-1.04939 0.92845,-1.40121 1.27873,-0.42117 2.08608,-0.24847 2.08608,0.44625 0,0.69144 -2.48864,1.4798 -3.01453,0.95496 z M 17.042104,98.45123 c -0.259418,-0.46384 0.410423,-4.95656 1.26576,-8.4896 0.923506,-3.81463 1.822859,-6.12453 2.384581,-6.12453 h 0.378801 l -0.180347,0.72528 c -0.09922,0.3989 -0.620051,2.17252 -1.157469,3.94139 -0.537417,1.76887 -1.208197,4.66996 -1.490628,6.44687 -0.28242,1.77691 -0.634162,3.35218 -0.781635,3.50059 l -0.268138,0.26984 z M 0.00188651,95.96665 v -1.23 L 1.3206967,92.10738 c 0.7253344,-1.44609 1.5236838,-2.84063 1.7741085,-3.09896 l 0.4553086,-0.46971 0.3883597,0.38759 0.3883597,0.38759 -1.7263067,3.30555 C 1.6510502,94.43749 0.67793541,96.2111 0.43804807,96.56081 l -0.43616156,0.63582 z m 0.02270991,-3.90979 c -0.0337116,-1.96455 1.52523818,-5.64101 2.39203018,-5.64101 0.8882908,0 0.7663537,0.57468 -0.7921016,3.73295 L 0.04674111,93.34624 Z M 71.759996,90.52573 C 70.079927,87.78996 66.213943,79.43857 66.213943,78.54499 v -0.51007 h 0.595978 0.595979 l 2.353948,5.7216 c 1.294667,3.14688 2.552585,5.9506 2.795369,6.23049 0.500445,0.57695 0.592567,1.58634 0.144778,1.58634 -0.163148,0 -0.586148,-0.47143 -0.939999,-1.04762 z m -30.89167,0.41704 c -0.09538,-0.15404 0.470721,-1.03322 1.258028,-1.95374 1.381127,-1.61481 2.866335,-2.88855 2.993551,-2.56732 0.07348,0.1855 3.557038,-3.66084 5.561809,-6.14098 0.783472,-0.96927 1.707018,-2.01536 2.0523,-2.32466 0.67182,-0.60181 1.206482,-0.49149 1.206482,0.24895 0,0.62557 -8.675753,9.68126 -9.177198,9.5791 -0.222113,-0.0452 -0.973296,0.63624 -1.669289,1.51444 -1.319477,1.66486 -1.932463,2.1177 -2.225683,1.64421 z M 0.00192688,87.21467 V 86.30186 L 1.1860622,84.58597 C 2.3391808,82.91501 2.9762494,82.51899 3.4028627,83.2079 3.6196364,83.55793 1.642481,86.64575 0.59690644,87.59011 L 0.00192688,88.12748 Z M 113.21051,86.83742 c -0.62126,-0.67509 -1.13024,-1.48127 -1.13109,-1.79153 l -0.002,-0.5641 0.56523,0.0123 0.56522,0.0122 0.88821,1.28144 c 0.96,1.38502 1.06494,1.77047 0.56586,2.0783 -0.17729,0.10936 -0.83065,-0.35351 -1.45189,-1.02858 z m -13.10619,-2.72395 c -0.609586,-1.14111 -4.119699,-4.71254 -5.952137,-6.0561 -2.009676,-1.47351 -5.338727,-3.34388 -5.559518,-3.12352 -0.09074,0.0906 0.337237,0.78908 0.951051,1.55227 1.760745,2.18924 3.155033,4.35948 3.155033,4.9109 0,1.07543 -0.898303,0.41092 -2.538343,-1.87774 -0.939504,-1.31107 -2.060818,-2.71437 -2.491792,-3.11845 -0.761509,-0.71398 -1.073695,-1.91169 -0.498286,-1.91169 0.156921,0 0.36133,-0.29011 0.454239,-0.64468 l 0.168931,-0.64469 h 0.559734 c 0.632113,0 3.343848,1.59091 4.880149,2.86306 0.560511,0.46414 2.047061,1.69894 3.303444,2.74398 1.256381,1.04506 2.822417,2.67983 3.480075,3.63281 l 1.19575,1.73272 -0.3512,0.35051 -0.35121,0.3505 z m 12.47797,-1.74956 c -1.41756,-2.0238 -1.5976,-2.71727 -0.70544,-2.71727 0.53328,0 3.50638,4.13011 3.25977,4.52834 -0.43355,0.7001 -1.15243,0.19039 -2.55433,-1.81107 z m -68.654343,0.54563 c 0,-0.33287 0.218015,-0.78579 0.484478,-1.0065 0.266463,-0.2207 0.484478,-0.59605 0.484478,-0.83411 0,-0.51849 1.873265,-2.71167 2.316129,-2.71167 h 0.311287 l -0.218752,0.68787 c -0.436999,1.37412 -2.451399,4.46963 -2.908605,4.46963 h -0.469015 z m 69.477893,-2.83812 c -1.95768,-2.45594 -2.36385,-3.32587 -1.55281,-3.32587 0.46474,0 1.80638,1.35767 3.43051,3.47149 l 1.05742,1.37625 -0.18349,0.47722 c -0.32065,0.83391 -0.73103,0.53577 -2.75163,-1.99909 z M 0.00192688,80.33079 v -1.0065 h 0.48447816 0.48447817 v 0.60522 c 0,0.33287 -0.21801518,0.7858 -0.48447817,1.0065 L 0.00192688,81.33729 Z M 60.653102,80.24269 c -0.07449,-0.22315 -0.0071,-1.13754 0.15041,-2.032 0.157254,-0.89444 0.28129,-2.07982 0.275628,-2.63416 l -0.01029,-1.0079 0.663806,-0.59955 0.663816,-0.59954 0.414269,0.56542 0.414269,0.56542 0.492835,-0.18875 c 0.271066,-0.1038 0.576762,-0.0533 0.679309,0.11235 0.102548,0.16559 0.532735,0.23503 0.955967,0.15428 l 0.769512,-0.14682 0.193428,0.50306 0.193428,0.50306 -0.480107,0.47914 c -0.515051,0.51404 -1.427283,0.35308 -1.435116,-0.25322 -0.003,-0.20263 -0.188431,-0.006 -0.412896,0.43666 l -0.408133,0.80512 -0.618587,6.4e-4 -0.618588,6.5e-4 -0.341204,1.77041 -0.341214,1.77042 -0.532512,0.10043 c -0.292887,0.0552 -0.593496,-0.0822 -0.668025,-0.30531 z M 18.412097,78.3573 c 0,-0.17728 0.145343,-0.32234 0.322985,-0.32234 0.177642,0 0.322986,0.14506 0.322986,0.32234 0,0.17729 -0.145344,0.32235 -0.322986,0.32235 -0.177642,0 -0.322985,-0.14506 -0.322985,-0.32235 z m 24.546894,-0.19034 c 0,-0.56079 2.810791,-4.00012 3.269087,-4.00012 0.59185,0 0.249667,1.20878 -0.554395,1.95846 -0.460981,0.4298 -1.046089,1.18036 -1.300238,1.6679 -0.501152,0.96139 -1.414454,1.20273 -1.414454,0.37376 z M 0.00192688,77.28666 c 0,-1.45584 3.35569762,-6.02091 4.42585942,-6.02091 0.492684,0 0.5670313,1.15997 0.09306,1.45231 -0.1792165,0.11054 -1.146568,1.24328 -2.14967,2.51719 -1.0031019,1.27391 -1.94654242,2.454 -2.09653888,2.62242 L 0.00191659,78.1639 Z M 106.80056,77.34416 c -0.27097,-0.41788 -0.59095,-1.15866 -0.71106,-1.64621 l -0.21837,-0.88644 h 0.47049 0.4705 l 0.53304,1.35427 0.53304,1.35428 -0.29249,0.2919 -0.29248,0.2919 z M 84.506152,76.10871 c -1.002556,-1.51194 -2.029317,-2.24904 -4.052114,-2.90892 l -1.48217,-0.48352 v -0.48351 -0.48352 l 0.807463,-0.0777 c 0.444105,-0.0427 1.600847,0.31992 2.57055,0.80586 l 1.763077,0.88351 1.063046,1.56633 c 0.584664,0.86148 1.063036,1.76807 1.063036,2.01464 0,0.86461 -0.891228,0.43608 -1.732888,-0.83322 z m -66.171884,0.77407 c -0.567849,-0.56672 3.874997,-10.38199 4.841864,-10.69681 l 0.403732,-0.13146 -0.005,0.59096 c -0.003,0.32503 -0.184293,0.8964 -0.403731,1.2697 -1.063662,1.80951 -3.111299,5.93402 -3.628994,7.30979 -0.580597,1.54293 -0.893287,1.97202 -1.208117,1.65782 z m 94.168712,-1.18483 c -1.19364,-1.25858 -1.8181,-2.39654 -1.55142,-2.82716 0.36476,-0.58904 1.10791,-0.31919 1.57181,0.57076 0.25414,0.48754 0.83925,1.2381 1.30024,1.6679 0.46098,0.42981 0.83815,0.97376 0.83815,1.20879 0,0.77515 -1.14825,0.44522 -2.15878,-0.62029 z m 0.86684,-2.38186 c -0.79939,-0.62694 -1.45344,-1.38103 -1.45344,-1.67572 v -0.53581 l 0.6259,0.10862 c 0.34424,0.0597 1.25264,0.62117 2.01866,1.24762 2.50942,2.0522 1.37428,2.8673 -1.19112,0.85529 z m 2.97426,-0.6804 c -1.02506,-0.8894 -2.65128,-3.34108 -2.65128,-3.99707 v -0.59633 h 0.46722 c 0.25697,0 0.99854,0.79889 1.64794,1.77532 0.64941,0.97642 1.40634,1.90131 1.68209,2.05532 l 0.50136,0.28002 -0.20125,0.52342 c -0.25841,0.67206 -0.6369,0.66141 -1.44608,-0.0407 z M 0.00192688,70.83216 v -1.4006 l 0.58578457,-0.52907 0.58578455,-0.52907 0.3650644,0.36433 0.3650543,0.36434 -0.7947864,1.56532 c -0.43714064,0.86093 -0.8650156,1.56533 -0.95084898,1.56533 -0.08579301,0 -0.15605244,-0.63026 -0.15605244,-1.40058 z m 70.00709412,-2.05087 -1.53418,-0.5106 v -0.59772 -0.59773 h 0.786439 c 0.432548,0 1.140552,0.13437 1.573373,0.2986 l 0.786924,0.29859 1.367369,-0.34637 1.367369,-0.34639 0.610896,-0.99983 0.610897,-0.99983 0.001,-1.39705 10e-4,-1.39704 -1.240749,0.98074 -1.240748,0.98074 -0.374179,-0.37344 c -0.529414,-0.52836 -0.464393,-2.02489 0.108574,-2.49948 0.265524,-0.21992 0.774226,-0.32378 1.130449,-0.23081 0.729038,0.19027 0.839308,-0.0951 0.260114,-0.67317 L 73.835986,59.98369 H 72.08068 c -2.122922,0 -5.867303,0.65271 -5.867303,1.02274 0,0.14665 -0.207629,0.26663 -0.461405,0.26663 -0.785238,0 -1.476507,0.96377 -1.476507,2.05856 v 1.04548 l 1.130449,0.538 c 1.092841,0.5201 1.461902,1.27297 0.818546,1.6698 -0.470994,0.29051 -2.844896,-1.02753 -3.266413,-1.81358 l -0.37007,-0.6901 0.170405,-1.26793 c 0.186887,-1.39058 0.904793,-2.37719 1.963418,-2.69833 0.376268,-0.11414 0.902129,-0.3924 1.168592,-0.61836 0.266463,-0.22597 1.376645,-0.51128 2.467064,-0.63403 l 1.982585,-0.2232 0.225706,0.36447 0.225707,0.36446 1.50604,-0.0395 c 0.828327,-0.0217 1.942072,0.0865 2.474998,0.24048 l 0.968956,0.27996 0.747499,1.43716 0.747489,1.43716 -0.176228,1.37098 c -0.0969,0.75406 -0.487507,1.98702 -0.867943,2.73992 -0.847292,1.67683 -0.701747,1.52224 -1.594599,1.69384 -0.410687,0.079 -0.895457,0.29197 -1.077258,0.47341 -0.459669,0.45876 -1.70613,0.38051 -3.511952,-0.22047 z M 15.039897,68.39553 c -1.008583,-1.62868 8.61275,-11.64719 13.596859,-14.15816 l 1.987612,-1.00135 0.357555,0.42998 0.357565,0.42996 -0.407718,0.29942 c -0.224243,0.16468 -1.207108,0.71548 -2.184139,1.22403 -5.167504,2.68965 -10.238144,7.36063 -12.501495,11.51613 -0.872555,1.60202 -0.946559,1.67932 -1.206239,1.25999 z m 99.500853,-1.27891 c -1.96439,-2.00771 -1.38891,-2.71252 0.80125,-0.98132 1.30256,1.02959 1.58009,1.71451 0.81368,2.00804 l -0.44401,0.17003 z M 33.792179,66.49235 c -0.235688,-0.38059 0.530615,-2.13299 1.081245,-2.47262 0.174149,-0.10742 0.540536,-0.6662 0.814185,-1.24174 0.27366,-0.57553 0.942169,-1.58476 1.485592,-2.24271 L 38.161244,59.339 h 0.622453 c 0.923042,0 0.763356,0.57325 -0.588742,2.1135 -0.666157,0.75885 -1.615583,1.93551 -2.109841,2.6148 -0.494259,0.67927 -1.161476,1.58498 -1.482716,2.01266 L 34.01833,66.85755 Z M 0.00192688,64.98001 v -0.85313 l 0.56522453,0.10864 0.56522459,0.10863 v 0.63586 0.63586 L 0.56715141,65.7245 0.00192688,65.83314 Z m 68.25498912,-0.43972 -0.17525,-0.66882 -0.970975,0.50112 -0.970964,0.50111 -0.328759,-0.32811 c -0.544665,-0.54357 -0.0752,-1.15744 1.505647,-1.96889 l 1.49946,-0.76968 0.335895,0.33523 c 0.184747,0.18438 0.289647,0.88709 0.233114,1.56157 l -0.10278,1.22636 -0.425069,0.13946 -0.425069,0.13947 z m 43.893254,-1.48526 -1.76732,-1.76381 0.18385,-0.70165 0.18385,-0.70165 -1.11276,-1.35527 c -1.26332,-1.53866 -1.3916,-2.09474 -0.48321,-2.09474 h 0.62952 l 0.85842,1.12319 c 0.47212,0.61777 1.35158,1.42739 1.95434,1.79918 0.60278,0.3718 1.09594,0.89865 1.09594,1.17079 v 0.4948 l -0.80746,-0.15405 c -0.4441,-0.0847 -0.80746,-0.0459 -0.80746,0.0861 0,0.31373 2.36694,2.44566 2.91924,2.6294 l 0.42683,0.14199 -0.20947,0.54477 c -0.36445,0.94787 -1.24349,0.59817 -3.06431,-1.21904 z m -66.930281,0.83251 -0.807464,-0.22237 -0.07509,-1.11547 -0.07509,-1.11547 0.901684,-1.77289 0.901685,-1.77289 1.313935,-0.72763 c 0.72267,-0.40019 1.994193,-0.85445 2.825608,-1.00946 l 1.511663,-0.28185 1.160567,0.26123 c 1.407651,0.31684 2.262109,1.11639 2.655314,2.48467 l 0.294805,1.0259 -0.701292,1.02739 c -0.385706,0.56507 -0.991354,1.18605 -1.345881,1.37997 -0.354517,0.19393 -1.008562,0.58822 -1.453434,0.87621 -1.533959,0.99302 -5.195685,1.489 -7.107063,0.96266 z m 5.086072,-6.07681 0.121876,-0.36492 -0.989042,0.37257 c -0.543978,0.20492 -0.989052,0.4733 -0.989052,0.59638 0,0.35852 1.721866,-0.2018 1.856218,-0.60403 z M 0.00192688,62.5005 V 61.72492 L 1.0745616,61.33781 C 2.54898,60.80572 2.9087959,60.85007 2.9087959,61.56386 v 0.61316 l -0.88821,0.32091 c -0.4885155,0.1765 -1.14256101,0.4238 -1.45343449,0.54954 L 0.00192688,63.27609 Z M 5.8270198,61.91775 c -0.020388,-0.93526 6.2207202,-8.18804 6.8623002,-7.97461 0.853186,0.28384 0.359755,1.01079 -3.137521,4.62245 L 5.8375875,62.40126 Z M 104.49994,58.50546 c -3.05437,-3.27805 -3.69762,-4.30884 -1.99349,-3.19446 0.69948,0.4574 3.9853,3.97778 5.31239,5.6916 l 0.41458,0.53541 -0.28826,0.1778 c -0.15855,0.0978 -1.7089,-1.34686 -3.44522,-3.21035 z m -92.224566,2.27489 c 0,-0.41621 1.984836,-4.00041 2.986949,-5.39381 2.760667,-3.8386 9.26947,-10.0768 12.90128,-12.36491 l 1.304235,-0.82168 0.306635,0.30601 0.306634,0.30603 -0.585987,0.5858 c -0.322299,0.32219 -1.748744,1.35774 -3.16988,2.30121 -5.812496,3.85885 -10.7462,9.1873 -12.802648,13.827 -0.34731,0.7836 -0.770017,1.42472 -0.939343,1.42472 -0.169325,0 -0.307875,-0.0767 -0.307875,-0.17037 z m 44.024904,-1.3268 -0.203834,-0.53012 0.611502,-0.44626 c 0.336319,-0.24543 1.15976,-0.61018 1.829844,-0.81055 l 1.218351,-0.3643 0.829508,0.37721 0.829507,0.37719 -0.115164,0.56055 -0.115175,0.56056 -1.190908,-0.0935 -1.190908,-0.0935 -0.96178,0.49636 c -1.200829,0.61974 -1.290428,0.61778 -1.540943,-0.0337 z M 0.00192688,57.73677 V 57.05456 L 3.1166976,54.01592 c 1.7131249,-1.67126 3.2392311,-2.96188 3.3913471,-2.86805 0.1521161,0.0938 0.2765765,0.43476 0.2765765,0.75764 v 0.58705 L 3.3932741,55.45577 0.00192688,58.41898 Z M 111.06442,56.24433 c -0.95256,-0.63833 -1.98846,-1.4549 -2.30201,-1.81459 l -0.57009,-0.654 0.35504,-0.42694 0.35503,-0.42694 -1.05019,-1.30424 c -0.57761,-0.71733 -1.24389,-1.30424 -1.48063,-1.30424 -0.23673,0 -0.43042,-0.29011 -0.43042,-0.64468 v -0.64469 l 0.72672,0.003 0.72672,0.003 2.01866,2.22964 c 2.04487,2.2586 2.3231,2.7666 1.63975,2.99393 -0.20839,0.0693 0.37298,0.58776 1.29194,1.15208 0.91897,0.56433 1.67085,1.24497 1.67085,1.51254 v 0.48649 h -0.60973 c -0.33535,0 -1.38909,-0.52227 -2.34164,-1.1606 z M 72.189173,55.88129 c -0.532926,-0.0757 -1.099321,-0.26388 -1.258664,-0.41812 L 70.640801,55.18272 72.1315,54.27918 c 1.785797,-1.0824 1.92031,-1.44784 0.376319,-1.02238 -0.624129,0.17199 -1.272694,0.22765 -1.441252,0.12368 l -0.306463,-0.18902 0.358837,-0.786 0.358826,-0.78599 1.339179,-0.51042 1.339178,-0.51042 1.566954,0.26217 1.566954,0.26219 0.632759,0.84583 0.632768,0.84584 -0.217894,0.68516 c -0.119837,0.37684 -0.584129,1.11955 -1.031746,1.65046 l -0.813863,0.96529 -1.666958,-0.0484 c -0.916835,-0.0265 -2.102999,-0.1102 -2.635925,-0.18592 z M 0.01267624,53.9144 0.00197735,53.1638 1.927768,50.81171 c 1.0591904,-1.29366 2.6596135,-2.96527 3.5565138,-3.7147 l 1.6307131,-1.3626 0.4808143,0.18414 c 0.8093612,0.30997 0.5673139,0.67866 -1.849243,2.81677 -2.2049308,1.95087 -3.5215608,3.28623 -5.05195666,5.12384 L 0.02347607,54.66502 Z M 47.908066,53.34312 47.709652,52.82707 48.160439,52.54219 c 0.660445,-0.41736 1.696299,-0.35638 2.376325,0.13987 l 0.595555,0.43461 -0.229895,0.37125 c -0.126449,0.20418 -0.807262,0.37124 -1.512914,0.37124 H 48.10649 Z M 0.00192688,49.60157 V 48.84571 L 1.793941,46.27553 c 1.8411381,-2.64065 3.6184463,-4.66542 4.0952233,-4.66542 0.1483714,0 0.3502979,0.20945 0.4487277,0.46545 L 6.5168663,42.54102 4.470592,44.96347 C 3.3451391,46.29581 1.8792798,48.0545 1.2131223,48.87166 L 0.00192688,50.35742 Z M 79.940824,48.68987 c -0.710568,-0.15036 -1.83698,-0.28175 -2.503137,-0.29197 l -1.211196,-0.0185 v -0.69256 -0.69257 l 2.736,0.1927 c 2.83557,0.19972 4.176555,0.63811 3.960669,1.29484 -0.157869,0.48024 -1.314954,0.561 -2.982336,0.20814 z m 27.943686,-0.35272 c -0.61876,-0.37645 -1.98796,-1.46382 -3.04266,-2.41637 -1.05471,-0.95256 -2.03822,-1.73192 -2.18559,-1.73192 -0.14737,0 -0.26795,-0.29011 -0.26795,-0.64469 v -0.64469 h 0.50382 c 0.27709,0 1.25816,0.70756 2.18015,1.57233 0.92198,0.86479 2.43939,2.03767 3.37201,2.6064 1.68166,1.02552 2.2173,1.94691 1.13045,1.94459 -0.31087,-6.4e-4 -1.07147,-0.30921 -1.69023,-0.68565 z M 72.451609,47.85456 72.249844,47.3298 73.026967,46.73353 c 1.611264,-1.23628 2.614699,-0.41894 1.160053,0.94492 -0.890148,0.83459 -1.459985,0.89241 -1.735411,0.17611 z M 17.97425,47.80996 c -0.09871,-0.15947 0.201674,-0.85813 0.667621,-1.55257 1.238851,-1.84639 4.95496,-6.29229 6.010295,-7.19063 l 0.910798,-0.77531 -0.40574,-0.25026 c -0.419962,-0.25904 -3.990536,-0.80884 -7.804701,-1.20176 -1.204524,-0.12409 -2.221928,-0.37067 -2.260898,-0.54796 l -0.07085,-0.32234 2.745376,-0.10033 c 1.509957,-0.0552 3.908124,0.0658 5.32926,0.26886 l 2.583884,0.36921 0.560662,0.50225 0.560672,0.50226 1.249631,-0.82532 c 1.459612,-0.96401 4.378684,-1.89939 5.084235,-1.62917 0.269309,0.10314 0.446184,0.40846 0.393053,0.6785 l -0.09659,0.49097 -1.937912,0.54159 c -4.363412,1.21941 -7.838009,3.94661 -11.713491,9.19385 -1.735492,2.34978 -1.588099,2.19888 -1.805277,1.84818 z m 80.699727,-0.46297 c -0.532925,-0.37928 -2.061896,-1.49886 -3.397714,-2.48795 -1.335827,-0.98909 -3.403509,-2.4511 -4.594861,-3.2489 l -2.166082,-1.45055 -0.0081,-0.5641 c -0.004,-0.31025 0.173988,-0.56189 0.39604,-0.55919 0.364065,0.004 4.714377,3.28833 7.198215,5.43369 0.539406,0.46591 1.460004,1.20974 2.045758,1.65296 0.585764,0.44322 1.379854,1.05488 1.764641,1.35923 l 0.699606,0.55338 -0.48448,6.5e-4 c -0.266461,2.8e-4 -0.920506,-0.30981 -1.453432,-0.68909 z m -44.97572,-1.11518 c -0.48032,-0.19343 -0.534471,-0.9572 -0.08741,-1.23294 0.456651,-0.28167 1.621609,0.41824 1.621609,0.97425 v 0.47217 l -0.565225,-0.0255 c -0.310873,-0.014 -0.746904,-0.0986 -0.968956,-0.18804 z M 108.45508,44.057 c -2.18205,-1.13625 -4.52401,-2.16996 -5.20435,-2.29711 -0.68033,-0.12715 -1.31922,-0.44509 -1.41975,-0.70653 l -0.18277,-0.47534 0.4508,-0.28246 c 0.24794,-0.15535 0.66881,-0.22474 0.93527,-0.15422 0.26647,0.0705 0.84784,0.22858 1.29195,0.35122 l 0.80746,0.22298 -0.40373,-0.42305 c -0.22205,-0.23266 -0.40373,-0.68413 -0.40373,-1.00325 0,-0.31912 0.18168,-0.58603 0.40373,-0.59313 0.22205,-0.007 0.004,-0.22931 -0.48448,-0.49381 -0.48852,-0.2645 -0.88821,-0.62588 -0.88821,-0.80306 0,-0.69419 1.06907,-0.65673 3.48901,0.12227 1.38938,0.44726 3.09854,0.91114 3.79813,1.03085 0.69958,0.11972 1.81701,0.35459 2.48317,0.52192 l 1.21119,0.30428 v 0.47108 c 0,0.2591 -0.18167,0.46856 -0.40373,0.46546 -0.78804,-0.011 -5.912,-0.93671 -7.0228,-1.26877 -1.39224,-0.41622 -1.38119,-0.41643 -1.10996,0.0216 0.4209,0.67968 2.88924,1.5197 5.14515,1.75099 2.70786,0.27763 3.71433,0.61457 3.71433,1.24347 v 0.4682 l -1.85717,-0.15208 c -3.00113,-0.24578 -5.67765,-0.78326 -6.48772,-1.30284 -0.41511,-0.26623 -0.80919,-0.42974 -0.87574,-0.36333 -0.20075,0.20037 6.06171,3.69452 7.36346,4.10844 l 1.2112,0.38514 v 0.45851 0.45852 h -0.79667 c -0.43817,0 -2.58199,-0.92966 -4.76404,-2.06592 z M 0.01434163,44.66019 0.00192688,43.68098 0.91486542,42.58961 1.827804,41.49823 2.3682999,41.70522 c 0.7790712,0.29836 0.6889986,0.52897 -0.9071651,2.32247 L 0.02674629,45.6394 Z M 16.271208,42.10194 c -0.26617,-0.69224 -0.134665,-0.78961 2.028288,-1.50175 l 1.85649,-0.61125 0.458216,0.45731 c 0.658678,0.65738 0.280866,1.03294 -1.469897,1.46113 -0.846817,0.20712 -1.794739,0.45254 -2.106481,0.54539 l -0.566819,0.16882 z M 5.9771576,40.91819 C 5.2665896,40.74309 3.6314758,40.64864 2.3435714,40.7083 l -2.34164452,0.10848 v -0.41717 c 0,-0.22945 0.39969449,-0.57293 0.88820997,-0.76329 l 0.88820995,-0.34611 2.9179515,0.14436 c 2.9572547,0.14632 4.4910015,0.61794 4.2631958,1.31091 -0.1640867,0.49915 -1.3734552,0.56918 -2.9823365,0.17271 z m 56.2416674,0.11538 c -0.216138,-0.34903 0.806625,-3.13945 1.34915,-3.68089 l 0.385069,-0.38432 0.339266,0.33858 0.339256,0.33859 -0.602681,1.74019 -0.60268,1.74019 -0.513931,0.0988 c -0.282662,0.0543 -0.594707,-0.0317 -0.693449,-0.19112 z M 91.532247,37.44324 88.9123,34.90684 84.911045,32.95116 80.90978,30.99548 77.865249,30.50061 c -1.674488,-0.27218 -4.381883,-0.49487 -6.016422,-0.49487 h -2.9719 l -0.397645,-0.47817 -0.397636,-0.47817 0.863593,-0.32769 c 1.202989,-0.45646 1.666816,-0.42491 6.941593,0.47216 l 4.666614,0.79365 3.222002,1.54024 c 1.77211,0.84714 4.046867,2.12047 5.055025,2.82962 1.7883,1.25793 6.156769,5.6503 5.600982,5.63163 -0.15359,-0.005 -1.458239,-1.15075 -2.899208,-2.54577 z M 2.9895423,36.66901 0.00192688,36.34798 V 35.2721 34.19621 l 0.4037318,0.006 C 1.0111454,34.21231 6.8112877,35.72664 7.0127297,35.92768 7.3125611,36.22691 6.8261854,37.09961 6.3910332,37.04321 6.1633991,37.01411 4.6327307,36.84552 2.9895423,36.66897 Z M 110.46295,36.88119 c -3.86916,-0.27548 -6.7827,-1.22224 -6.7827,-2.20405 0,-0.63993 0.82633,-0.8025 1.54072,-0.30312 0.35525,0.24834 1.88299,0.5918 3.39498,0.76327 2.85078,0.32328 5.07685,1.03415 5.07685,1.62122 0,0.18633 -0.39969,0.31345 -0.88821,0.28247 -0.48851,-0.031 -1.54225,-0.10288 -2.34164,-0.15979 z m 0.96896,-1.87434 c -1.6876,-0.22062 -3.6134,-0.63092 -4.27956,-0.91179 l -1.2112,-0.51064 v -0.48094 c 0,-0.78283 0.54295,-0.89295 1.80597,-0.36627 0.65363,0.27256 2.4652,0.63991 4.02572,0.81634 3.38431,0.38262 3.9214,0.55889 3.78928,1.24362 -0.12981,0.67267 -0.46041,0.68946 -4.13021,0.20968 z M 26.486733,34.5224 c -1.724873,-0.94935 -5.221423,-2.24798 -6.757178,-2.50963 -1.528246,-0.26038 -1.92024,-0.82785 -0.671487,-0.97209 1.267597,-0.14642 6.548065,1.34532 8.216578,2.32119 l 1.510431,0.88342 -0.126237,0.37839 c -0.201411,0.60377 -0.954956,0.56863 -2.172107,-0.10128 z m 25.067698,-0.91223 c -0.101408,-0.16375 -0.635656,-0.3878 -1.187234,-0.49789 -0.551569,-0.1101 -1.412759,-0.49147 -1.91375,-0.8475 -0.50098,-0.35602 -1.054577,-0.64732 -1.230201,-0.64732 -0.175623,0 -0.409687,-0.23504 -0.520148,-0.52231 l -0.200826,-0.5223 -3.467309,0.16088 -3.467319,0.16089 -1.453435,0.5131 -1.453434,0.51311 -1.291942,-0.19701 c -1.889505,-0.28813 -3.557412,-1.22926 -4.312441,-2.43333 -0.580849,-0.9263 -1.996666,-2.23565 -3.176451,-2.9376 -0.438796,-0.26108 -5.950573,-1.9248 -9.313184,-2.81117 -1.247259,-0.32877 -3.094473,-0.96266 -4.104933,-1.40865 L 12.624632,21.32219 8.3986602,20.80679 4.1726884,20.29139 2.8140199,19.6758 C 2.0667628,19.33723 1.1283386,19.05704 0.72864413,19.05315 l -0.72671725,-0.007 V 18.20442 17.36268 L 1.1279349,17.5735 c 0.6193044,0.11595 1.7457161,0.49154 2.5031372,0.83466 l 1.3771292,0.62383 2.0322748,0.007 c 2.4853125,0.009 6.3371459,0.77395 8.3911719,1.66721 1.43776,0.62524 4.288601,1.50866 9.117172,2.82525 2.318188,0.63208 5.490753,2.12852 5.490753,2.58987 0,0.16235 0.263546,0.37868 0.585643,0.4807 0.322108,0.10203 1.023551,0.80554 1.558768,1.56334 l 0.973125,1.37785 1.366027,0.44993 1.366026,0.44993 2.162226,-0.5325 c 4.808941,-1.18431 8.42554,-1.07968 10.057706,0.29097 0.510883,0.42903 1.450579,0.99759 2.088202,1.26347 l 1.159316,0.48348 v -0.30188 c 0,-1.01156 -4.871014,-4.21959 -6.406931,-4.21959 -0.336399,0 -0.958257,-0.26838 -1.381903,-0.5964 -1.225215,-0.94865 -5.929205,-2.9489 -6.947649,-2.95432 -0.510569,-0.003 -1.131166,-0.13312 -1.379108,-0.2898 l -0.450786,-0.28489 0.214926,-0.55898 0.214927,-0.55899 1.527812,0.20062 c 0.840297,0.11034 2.545206,0.71053 3.7887,1.33376 1.243494,0.62322 2.398147,1.13249 2.565887,1.13169 0.423535,-0.002 -1.666423,-1.53204 -3.118243,-2.28283 l -1.198326,-0.6197 h -2.696515 -2.696504 l -0.626955,0.47326 c -0.344828,0.26029 -0.964647,0.47787 -1.377362,0.48351 l -0.750396,0.0103 0.105485,-0.54666 c 0.05804,-0.30065 0.58956,-0.8288 1.181218,-1.17366 l 1.075744,-0.62702 2.476047,-0.25181 2.476036,-0.2518 1.712631,0.77069 c 0.941946,0.4239 2.087959,1.06536 2.546689,1.42548 0.458741,0.36013 1.21816,0.65478 1.687609,0.65478 0.46944,0 1.181421,0.2292 1.582185,0.50935 0.400754,0.28015 1.632177,0.77131 2.736494,1.09147 3.148977,0.91294 5.246626,1.83462 6.216006,2.73124 1.037874,0.95995 1.557002,1.06253 1.322525,0.26133 -0.09084,-0.31025 -0.47495,-2.44981 -0.853681,-4.75456 C 54.199742,18.47243 53.26913,13.87505 52.594,11.3454 L 52.216339,9.93039 52.824278,9.48674 53.432228,9.04308 53.061551,8.06303 52.690885,7.08296 53.158316,6.90395 c 0.748377,-0.28661 1.302802,0.41398 1.89547,2.39514 0.304323,1.01728 0.68697,2.21225 0.85033,2.65547 0.16335,0.44322 0.426492,1.4586 0.584765,2.25641 0.158263,0.7978 0.667036,2.72196 1.13059,4.27592 0.463555,1.55395 0.842821,3.11797 0.842821,3.47559 0,0.35762 0.457357,1.83381 1.016344,3.28045 1.067013,2.76134 1.207098,3.95046 0.598967,5.08449 l -0.366952,0.6843 -0.543433,-0.11918 C 58.868335,30.82694 58.668871,30.57447 58.723971,30.33138 58.996288,29.13 58.853114,27.474 58.389247,26.46002 57.72317,25.00399 57.029801,22.71781 56.33624,19.6908 56.031584,18.36114 55.648594,17.05565 55.485153,16.78971 l -0.297156,-0.48351 0.196597,0.80586 c 0.108119,0.44322 0.323631,1.67618 0.478907,2.73992 0.155265,1.06373 0.464443,3.16702 0.68704,4.67398 0.222598,1.50695 0.42945,3.44254 0.459659,4.30131 l 0.05491,1.5614 -0.463302,0.17743 -0.463313,0.17744 -0.695276,-0.82913 c -0.69453,-0.82826 -2.941136,-2.16504 -3.638562,-2.16504 -0.202926,0 -0.534168,-0.19866 -0.736084,-0.44147 -0.617993,-0.74316 -5.388134,-2.28807 -6.36032,-2.05992 l -0.61883,0.14521 0.64597,0.25043 c 0.355284,0.13773 1.637082,0.69397 2.848429,1.23607 l 2.202448,0.98563 1.434762,1.59263 c 1.534706,1.70358 2.037109,2.92338 1.532737,3.72138 -0.391175,0.61892 -0.957026,0.8222 -1.199356,0.43087 z m 57.051719,-1.61117 -3.31025,-1.1874 -3.5e-4,-0.5641 -3.7e-4,-0.5641 0.72672,0.0101 c 0.39969,0.005 2.10621,0.55315 3.79225,1.21705 l 3.06553,1.20711 0.10726,0.55584 0.10726,0.55583 -0.58891,-0.0214 c -0.3239,-0.0118 -2.07852,-0.55572 -3.89914,-1.20878 z m 4.26082,-0.0889 c -0.35269,-0.56953 -5.36369,-2.87099 -6.26276,-2.87637 -0.4535,-0.003 -1.0274,-0.13313 -1.27535,-0.28981 l -0.45079,-0.28488 0.19842,-0.51605 0.19841,-0.51604 h 0.83532 c 1.85328,0 8.55154,3.43487 8.55154,4.38524 v 0.44991 h -0.7884 c -0.43363,0 -0.88649,-0.1584 -1.00639,-0.352 z M 0.00192688,30.48926 v -1.1282 h 0.94990019 c 1.18994903,0 1.50680783,0.4831 0.97153013,1.48128 l -0.415652,0.77512 H 0.75481604 0.00192688 Z M 60.93852,31.40257 c -0.494349,-0.49337 -0.140751,-1.09806 1.038025,-1.77514 l 1.253345,-0.71989 0.211455,-2.3289 c 0.228986,-2.5219 1.211508,-5.74406 2.56296,-8.40515 l 0.852409,-1.67843 2.86376,-2.99555 c 2.592675,-2.71198 4.750016,-5.57244 6.248759,-8.28532 l 0.550206,-0.99592 h 0.66099 c 0.856608,0 0.834069,0.25443 -0.183486,2.07142 -0.464463,0.82936 -0.791375,1.56091 -0.726475,1.62569 0.237364,0.23689 4.002334,-2.63016 6.387531,-4.86414 1.347829,-1.26237 2.779775,-2.46533 3.182103,-2.67323 L 86.571614,0 86.777901,0.5365 86.984177,1.073 85.723404,2.16502 84.46262,3.25705 86.077547,2.65496 c 0.88821,-0.33115 2.46658,-0.68625 3.507481,-0.78912 l 1.892553,-0.18703 0.160685,0.61321 0.160676,0.61322 1.149828,-0.77978 c 1.886225,-1.27917 2.444455,-0.16808 0.638189,1.27024 l -1.049703,0.83587 0.968956,-0.41674 c 0.532926,-0.2292 1.454444,-0.67785 2.047819,-0.997 0.593365,-0.31914 1.283746,-0.5018 1.534181,-0.4059 0.682093,0.26123 0.548387,1.08873 -0.214987,1.33053 -0.368678,0.11678 -0.602308,0.2802 -0.519199,0.36315 0.08317,0.0829 0.973889,-0.0879 1.979505,-0.37966 1.930589,-0.56011 2.762839,-0.47287 2.762839,0.28963 V 4.47781 L 98.866083,5.1539 C 97.639425,5.52574 96.198104,5.82998 95.66315,5.82998 H 94.690499 L 94.554936,5.42706 94.419383,5.02413 93.601523,5.45885 C 92.68483,5.94611 91.527624,5.8275 91.64517,5.25834 L 91.72208,4.88615 91.160732,5.08576 C 90.851988,5.19555 90.436124,5.41041 90.236589,5.56325 89.694953,5.97809 88.822963,5.52485 88.822963,4.82846 V 4.21827 h 0.61019 c 0.335602,0 0.953312,-0.30116 1.372688,-0.66925 0.419377,-0.36808 0.582928,-0.5784 0.36345,-0.46738 -0.219489,0.11103 -1.229455,0.33676 -2.244376,0.50161 -1.014931,0.16486 -2.593966,0.66529 -3.508964,1.11207 -0.915008,0.44677 -1.905745,0.81232 -2.201651,0.81232 -0.59941,0 -3.653348,1.90153 -5.331843,3.31986 l -1.08946,0.92058 -0.74533,-0.1867 -0.745339,-0.1867 -0.721852,1.04817 c -0.39702,0.57648 -1.986734,2.35364 -3.532704,3.94924 l -2.810841,2.90109 -0.896517,1.77289 c -0.493088,0.97509 -1.238942,2.77741 -1.65745,4.00516 l -0.760924,2.23228 v 2.01241 c 0,2.39804 -0.200756,3.03217 -0.959953,3.03217 -0.312317,0 -0.937405,0.29011 -1.38907,0.64468 -0.862704,0.67726 -1.277276,0.78627 -1.634457,0.4298 z m 20.320932,-2.64312 c -0.505644,-0.81652 3.760853,-2.29948 6.61564,-2.29948 h 0.947832 v 0.46891 0.4689 l -1.211196,0.2078 c -0.666157,0.11429 -2.134893,0.4835 -3.263879,0.82047 -2.287474,0.68274 -2.835428,0.7419 -3.088397,0.3334 z m -5.875852,-0.74497 -0.235042,-0.37955 1.104196,-0.9372 c 1.34474,-1.14134 3.982481,-2.86453 5.806198,-3.79307 l 1.350079,-0.68739 0.313004,0.31238 0.313003,0.31238 -1.885609,1.23516 c -1.037086,0.67935 -2.789848,1.92854 -3.895013,2.77601 -2.11827,1.6243 -2.490763,1.77499 -2.870816,1.16128 z m -2.575233,-1.02442 c -0.190309,-0.49494 0.814105,-2.34686 2.27303,-4.19098 0.981068,-1.2401 5.514865,-5.04239 6.012475,-5.04239 0.851934,0 0.327093,0.7482 -1.663072,2.37083 -2.204941,1.79775 -2.924159,2.65593 -4.834285,5.76835 -0.955048,1.55617 -1.485673,1.88087 -1.788148,1.09419 z m 24.768843,-0.18015 -0.450787,-0.28488 0.199948,-0.52003 0.199948,-0.52003 -0.879598,0.2405 c -0.483782,0.13228 -1.460984,0.24286 -2.171552,0.24574 l -1.291942,0.005 v -0.62674 -0.62674 l 2.214812,-0.36174 2.21482,-0.36173 0.55718,-0.73721 0.557191,-0.73721 3.20323,-0.24208 3.20323,-0.24207 -1.61493,-0.0518 c -0.88821,-0.0285 -1.81778,-0.18002 -2.06572,-0.3367 l -0.4508,-0.28488 0.21456,-0.55802 0.21457,-0.55804 3.30459,0.14956 3.3046,0.14956 1.0497,0.54539 c 0.57734,0.29997 1.0497,0.74917 1.0497,0.99821 0,0.24905 0.32703,0.49917 0.72672,0.55583 0.3997,0.0566 0.72672,0.29832 0.72672,0.53704 v 0.43405 l -5.92474,0.10168 -5.924723,0.10167 -0.628307,0.67307 c -0.345564,0.37018 -0.804325,0.69444 -1.019453,0.72055 -0.215139,0.0261 0.888129,0.14966 2.451693,0.27455 2.80697,0.22421 3.73477,0.57771 3.31127,1.26159 l -0.21701,0.35042 -2.80706,-0.005 c -1.543888,-0.003 -3.009918,-0.13313 -3.25786,-0.28981 z m 9.09066,-4.75389 c -0.22205,-0.0894 -0.58541,-0.0894 -0.80746,0 -0.22206,0.0894 -0.0404,0.16259 0.40373,0.16259 0.4441,0 0.62578,-0.0731 0.40373,-0.16259 z M 0.02743264,23.37084 0.05296867,22.75302 0.22260668,23.17609 c 0.093262,0.23269 0.0818566,0.51072 -0.025536,0.61782 -0.1073321,0.10712 -0.18366769,-0.0833 -0.16963804,-0.42307 z m 0.1898246,-1.96092 c -0.38052732,-0.37977 -0.22949125,-1.39682 0.20741721,-1.39682 0.23250915,0 0.69074475,0.19557 1.01830245,0.43462 l 0.5955549,0.43461 -0.229895,0.37125 C 1.5585452,21.65741 0.56322511,21.7552 0.21725724,21.40992 Z M 111.27041,19.85738 c -1.93161,-0.6198 -5.23669,-1.18549 -6.57185,-1.12481 -0.64889,0.0295 -1.37214,0.0396 -1.60721,0.0224 l -0.42742,-0.0312 0.10732,-0.5641 0.10731,-0.5641 1.45055,-0.21716 c 0.79781,-0.11943 0.0697,-0.1288 -1.61781,-0.0208 -1.6876,0.10798 -3.573687,0.2057 -4.191306,0.21716 l -1.12295,0.0208 -0.109704,-0.55259 -0.109714,-0.55257 0.748176,-0.15346 c 0.411504,-0.0844 2.128938,-0.32015 3.816538,-0.52389 l 3.06836,-0.37042 1.93792,0.46552 1.93791,0.46554 -0.0697,0.65112 -0.0697,0.65113 1.03872,0.17574 c 1.62611,0.27512 3.46111,1.15693 3.46111,1.66324 0,0.71684 -0.38094,0.79028 -1.77642,0.3425 z m -17.9765,-4.7127 -0.433668,-0.26941 0.403731,-0.65014 c 0.511942,-0.82442 0.507047,-0.98125 -0.03068,-0.98125 -0.238929,0 -0.697487,0.29011 -1.019009,0.64469 -0.321532,0.35458 -0.852763,0.64469 -1.180512,0.64469 h -0.595918 v -0.46712 c 0,-0.8476 2.052744,-2.04869 5.244072,-3.06836 l 3.144665,-1.00476 0.67293,0.35942 0.672929,0.35944 1.50929,-0.74865 1.50928,-0.74864 1.08915,-1.45054 c 1.12074,-1.49262 1.77065,-1.89464 2.12854,-1.3167 0.49982,0.80712 -2.14156,3.93195 -4.19305,4.9605 -0.53907,0.27026 -1.55647,0.59495 -2.260901,0.72153 -2.490672,0.44755 -2.181383,0.72661 0.612491,0.55266 l 2.83011,-0.17621 1.83712,0.39976 c 2.56517,0.5582 3.29056,0.88773 3.29056,1.49485 v 0.52569 l -1.2112,-0.21416 c -0.66616,-0.1178 -3.10066,-0.28917 -5.41001,-0.38084 l -4.198806,-0.16666 -1.98872,0.62481 -1.988722,0.62481 z m 6.079876,-6.6285 C 98.9014,8.04474 99.208993,7.49903 100.17133,7.10121 l 1.01286,-0.41872 -0.68988,-0.25469 c -1.256662,-0.46394 -0.778795,-1.12665 1.32689,-1.84015 1.28875,-0.43667 1.85905,-0.29694 1.85905,0.4555 v 0.46449 h 0.64598 0.64597 v 0.50449 0.50449 l -2.40123,1.10723 C 100.06864,8.77769 99.730412,8.8721 99.373786,8.51618 Z M 102.7113,6.15233 c 0.59041,-0.38079 0.0804,-0.38079 -0.80747,0 l -0.64597,0.27703 0.48448,0.0177 c 0.26647,0.0101 0.7025,-0.12289 0.96896,-0.29475 z"
     id="path474"
     inkscape:connector-curvature="0" />
</svg>
