<?xml version="1.0" encoding="UTF-8" standalone="no"?>
<!-- Created with Inkscape (http://www.inkscape.org/) -->

<svg
   xmlns:dc="http://purl.org/dc/elements/1.1/"
   xmlns:cc="http://creativecommons.org/ns#"
   xmlns:rdf="http://www.w3.org/1999/02/22-rdf-syntax-ns#"
   xmlns:svg="http://www.w3.org/2000/svg"
   xmlns="http://www.w3.org/2000/svg"
   xmlns:sodipodi="http://sodipodi.sourceforge.net/DTD/sodipodi-0.dtd"
   xmlns:inkscape="http://www.inkscape.org/namespaces/inkscape"
   width="160mm"
   height="32mm"
   viewBox="0 0 160 32"
   version="1.1"
   id="svg8"
   inkscape:version="0.92.5 (2060ec1f9f, 2020-04-08)"
   sodipodi:docname="background-projects.svg">
  <defs
     id="defs2" />
  <sodipodi:namedview
     id="base"
     pagecolor="#ffffff"
     bordercolor="#666666"
     borderopacity="1.0"
     inkscape:pageopacity="0.0"
     inkscape:pageshadow="2"
     inkscape:zoom="1.4"
     inkscape:cx="353.13196"
     inkscape:cy="45.769012"
     inkscape:document-units="mm"
     inkscape:current-layer="layer1"
     showgrid="false"
     inkscape:window-width="1920"
     inkscape:window-height="1030"
     inkscape:window-x="0"
     inkscape:window-y="0"
     inkscape:window-maximized="1" />
  <metadata
     id="metadata5">
    <rdf:RDF>
      <cc:Work
         rdf:about="">
        <dc:format>image/svg+xml</dc:format>
        <dc:type
           rdf:resource="http://purl.org/dc/dcmitype/StillImage" />
        <dc:title></dc:title>
      </cc:Work>
    </rdf:RDF>
  </metadata>
  <g
     inkscape:label="Layer 1"
     inkscape:groupmode="layer"
     id="layer1"
     transform="translate(0,-265)">
    <path
       style="fill:#000000;stroke-width:0.0839691"
       d="m 50.000909,296.88921 c 0.023,-0.0609 0.233145,-0.40865 0.466993,-0.77276 0.265429,-0.41329 0.428211,-0.7613 0.433248,-0.92628 0.01899,-0.62162 -0.03271,-0.91942 -0.23272,-1.34079 -0.116774,-0.246 -0.307298,-0.733 -0.423386,-1.08221 -0.166731,-0.50155 -0.211453,-0.80497 -0.212895,-1.44444 -0.0018,-0.76866 0.01418,-0.84242 0.31516,-1.46158 0.406642,-0.8365 1.170595,-1.67846 1.952801,-2.15219 0.326737,-0.19787 0.634203,-0.35978 0.683258,-0.35978 0.04906,0 -0.03111,-0.15438 -0.178132,-0.34307 -0.295196,-0.37883 -0.738774,-1.43969 -0.743261,-1.77756 -0.0016,-0.11873 0.03575,-0.25513 0.08295,-0.3031 0.104411,-0.10612 1.024024,0.003 1.330077,0.15802 0.563197,0.28503 1.104888,0.6954 1.390757,1.05359 0.573234,0.71827 0.9275,1.08506 0.988319,1.02323 0.03294,-0.0335 0.0097,-0.29992 -0.05161,-0.59208 -0.122528,-0.58365 -0.159236,-2.04308 -0.05409,-2.15033 0.03644,-0.0372 0.139,-0.0214 0.227911,0.0351 0.08891,0.0564 0.217203,0.10261 0.285093,0.10261 0.15838,0 0.71455,0.76447 0.954618,1.31217 0.301813,0.68855 0.756536,2.13006 0.756536,2.39826 0,0.17205 0.04817,0.26146 0.156365,0.29022 0.34174,0.0908 1.152095,1.37303 1.36148,2.15421 0.221593,0.82673 0.142215,2.14989 -0.191519,3.19246 -0.08816,0.2754 -0.160297,0.69652 -0.160297,0.9358 0,0.33808 0.05577,0.52443 0.250174,0.83602 0.255252,0.4091 0.665988,1.19862 0.665988,1.28017 0,0.0248 -2.271515,0.0451 -5.047816,0.0451 -4.124054,0 -5.040165,-0.0203 -5.006003,-0.11076 z m 2.558503,-0.14362 c 0.128981,-0.0934 0.340903,-0.34091 0.47094,-0.55012 0.130035,-0.2092 0.267516,-0.38045 0.305513,-0.38053 0.107776,0 -0.03081,0.52516 -0.204372,0.77482 -0.08592,0.12359 -0.156219,0.2474 -0.156219,0.27514 0,0.0277 0.425794,0.0504 0.946208,0.0504 h 0.946207 l 0.05103,-0.43795 c 0.02806,-0.24088 0.08951,-0.47707 0.136532,-0.52487 0.05848,-0.0595 0.0855,0.079 0.0855,0.43796 v 0.52486 h 0.883975 0.883973 l -0.04605,-0.2328 c -0.02533,-0.12804 -0.07143,-0.33757 -0.10245,-0.46561 -0.100456,-0.41465 0.127193,-0.25939 0.341346,0.23281 l 0.202586,0.4656 h 1.037231 c 0.570477,0 1.058843,-0.0355 1.085256,-0.079 0.04522,-0.0744 -0.27645,-0.74367 -0.490967,-1.02154 -0.193433,-0.25057 -0.296816,-0.60773 -0.296816,-1.02542 0,-0.23368 0.04052,-0.50181 0.09004,-0.59587 0.04952,-0.094 0.07345,-0.18784 0.0532,-0.20843 -0.02026,-0.0206 -0.138338,0.002 -0.262391,0.0497 -0.382926,0.14798 -0.585662,0.0335 -0.793713,-0.44805 -0.104216,-0.24123 -0.208428,-0.57906 -0.23158,-0.75072 -0.02316,-0.17167 0.0228,-0.58128 0.102113,-0.91024 0.109913,-0.45589 0.203005,-0.64841 0.391445,-0.80958 0.28642,-0.24497 0.570432,-0.26895 0.864644,-0.073 0.11434,0.0762 0.228152,0.11785 0.252917,0.0927 0.05956,-0.0605 -0.158591,-0.705 -0.394111,-1.16428 -0.262409,-0.51172 -1.500624,-1.72714 -2.115687,-2.07676 -0.282234,-0.16042 -0.534785,-0.29168 -0.561229,-0.29168 -0.02644,0 0.0091,0.11665 0.07916,0.25924 0.140146,0.28555 0.06361,0.47285 -0.08731,0.21365 -0.234076,-0.40204 -1.892223,-2.12487 -2.338209,-2.42943 -0.272153,-0.18585 -0.677644,-0.37778 -0.90109,-0.42648 -0.223446,-0.0487 -0.422912,-0.0716 -0.443256,-0.051 -0.02034,0.0207 0.02634,0.18631 0.10376,0.36807 0.07741,0.18174 0.14963,0.37864 0.160482,0.43753 0.03842,0.20853 0.462624,0.87269 0.622004,0.97387 0.08893,0.0564 0.161691,0.13342 0.161691,0.17106 0,0.0377 0.156829,0.29447 0.348507,0.57074 0.191679,0.27625 0.326067,0.5251 0.298641,0.55298 -0.09085,0.0924 -0.379743,-0.12585 -0.560688,-0.42343 l -0.178292,-0.29322 -0.266412,0.1616 c -0.146528,0.0889 -0.397592,0.22748 -0.55792,0.30799 -0.16033,0.0805 -0.566379,0.42745 -0.902332,0.77099 -0.730979,0.74749 -0.970576,1.24186 -1.107136,2.28439 -0.0909,0.69391 -0.0846,0.78433 0.09594,1.37719 0.10627,0.34899 0.25517,0.72976 0.330887,0.84617 0.138672,0.21318 0.362987,0.73338 0.336096,0.77943 -0.008,0.0136 0.02986,0.13908 0.08405,0.27876 0.227099,0.58538 0.05027,1.3104 -0.529987,2.17301 -0.114905,0.17082 -0.18713,0.33272 -0.160499,0.3598 0.02663,0.0271 0.42055,0.0492 0.875379,0.0492 0.694135,0 0.864627,-0.0273 1.061471,-0.16972 z m 3.283133,-2.78915 c -0.375619,-0.25111 -0.618502,-0.81979 -0.618502,-1.44815 0,-0.49658 0.257927,-1.11071 0.547487,-1.30355 0.110462,-0.0736 0.36718,-0.15692 0.570485,-0.18525 0.326253,-0.0455 0.393496,-0.0253 0.572827,0.17134 0.11175,0.12255 0.226377,0.36547 0.254727,0.5398 0.07781,0.47851 0.06271,1.29529 -0.03025,1.63542 -0.171908,0.62901 -0.806702,0.91801 -1.296777,0.59039 z m 0.585438,-0.22599 c 0.07415,-0.0289 0.193441,-0.1678 0.265085,-0.30862 0.127618,-0.25084 0.12502,-0.2602 -0.128062,-0.46152 -0.30497,-0.2426 -0.674662,-0.85119 -0.674662,-1.11063 0,-0.30584 -0.154383,-0.20483 -0.252389,0.16511 -0.149799,0.56545 0.06902,1.48177 0.400789,1.67832 0.171534,0.10162 0.213992,0.10569 0.389239,0.0373 z m 2.242614,-0.32272 c 0.119958,-0.15985 0.218105,-0.30779 0.218105,-0.32874 0,-0.021 -0.07175,-0.0572 -0.159439,-0.0805 -0.193276,-0.0514 -0.387,-0.41421 -0.540725,-1.01273 -0.113014,-0.44002 -0.115564,-0.44265 -0.186115,-0.19216 -0.104585,0.37134 -0.07811,1.49305 0.04046,1.71429 0.05615,0.10476 0.171278,0.19047 0.255846,0.19047 0.08457,0 0.251906,-0.13079 0.371864,-0.29065 z m -1.307976,-5.96013 c -0.07091,-0.17053 -0.173894,-0.46245 -0.228858,-0.64868 -0.05496,-0.18625 -0.169737,-0.4798 -0.255054,-0.65235 -0.236496,-0.4783 -0.853517,-1.28266 -0.892572,-1.16356 -0.06937,0.21154 0.279845,2.00275 0.429455,2.20278 0.169974,0.22724 1.01321,0.76319 1.04556,0.66455 0.01671,-0.051 -0.02762,-0.2322 -0.09853,-0.40274 z m 86.562849,9.38306 c 0,-0.14879 -0.0555,-0.16932 -0.45808,-0.16932 -0.45345,0 -0.45808,-0.003 -0.45808,-0.25397 0,-0.22575 0.0277,-0.25396 0.24986,-0.25396 0.24733,0 0.24986,-0.005 0.24986,-0.46561 0,-0.4609 -0.003,-0.46561 -0.24986,-0.46561 -0.211,0 -0.24986,-0.0329 -0.24986,-0.21164 0,-0.17872 0.0389,-0.21163 0.24986,-0.21163 h 0.24986 v -0.93123 -0.93121 h -0.24986 c -0.2221,0 -0.24986,-0.0282 -0.24986,-0.25397 0,-0.22575 0.0277,-0.25397 0.24986,-0.25397 0.211,0 0.24986,-0.0329 0.24986,-0.21164 0,-0.20009 -0.025,-0.21163 -0.45808,-0.21163 -0.45346,0 -0.45808,-0.003 -0.45808,-0.25397 0,-0.21447 0.0324,-0.25397 0.20821,-0.25397 0.16659,0 0.20823,-0.0423 0.20823,-0.21164 0,-0.17872 0.0389,-0.21165 0.24986,-0.21165 h 0.24986 v -0.71957 -0.71958 h -0.24986 c -0.24735,0 -0.24986,-0.005 -0.24986,-0.46561 0,-0.4402 -0.0113,-0.4656 -0.20823,-0.4656 -0.20474,0 -0.20821,-0.0113 -0.20821,-0.67726 v -0.67724 h -0.24986 -0.24987 v -0.93121 -0.93123 h -0.20822 -0.20822 v -0.93121 -0.93121 h 0.20822 c 0.17583,0 0.20822,-0.0395 0.20822,-0.25397 0,-0.22575 0.0277,-0.25397 0.24987,-0.25397 0.21098,0 0.24986,-0.0329 0.24986,-0.21164 0,-0.17872 -0.0389,-0.21165 -0.24986,-0.21165 h -0.24987 v -0.71957 -0.71958 h 0.24987 c 0.21098,0 0.24986,-0.0329 0.24986,-0.21164 0,-0.16931 0.0416,-0.21163 0.20821,-0.21163 h 0.20823 v -0.93123 -0.93121 h -0.20823 c -0.17583,0 -0.20821,-0.0395 -0.20821,-0.25397 0,-0.21446 0.0324,-0.25397 0.20821,-0.25397 0.19686,0 0.20823,-0.0254 0.20823,-0.46561 0,-0.4609 0.003,-0.4656 0.24986,-0.4656 h 0.24986 v -1.14286 -1.14285 h -0.24986 c -0.2221,0 -0.24986,-0.0282 -0.24986,-0.25397 0,-0.22575 0.0277,-0.25397 0.24986,-0.25397 0.211,0 0.24986,-0.0329 0.24986,-0.21164 0,-0.17872 -0.0389,-0.21165 -0.24986,-0.21165 h -0.24986 v -0.93121 -0.93121 h -0.20823 c -0.17583,0 -0.20821,-0.0395 -0.20821,-0.25397 0,-0.21446 0.0324,-0.25397 0.20821,-0.25397 h 0.20823 v -0.93122 -0.93122 h 0.24986 c 0.24733,0 0.24986,-0.005 0.24986,-0.46561 0,-0.4609 -0.003,-0.4656 -0.24986,-0.4656 -0.2221,0 -0.24986,0.0282 -0.24986,0.25397 0,0.21445 -0.0324,0.25397 -0.20823,0.25397 -0.17583,0 -0.20821,-0.0395 -0.20821,-0.25397 0,-0.21446 0.0324,-0.25397 0.20821,-0.25397 0.19686,0 0.20823,-0.0254 0.20823,-0.46561 0,-0.4609 0.003,-0.46561 0.24986,-0.46561 0.24733,0 0.24986,-0.005 0.24986,-0.4656 0,-0.44022 0.0113,-0.46562 0.20822,-0.46562 0.19686,0 0.20822,-0.0254 0.20822,-0.46561 0,-0.4609 0.003,-0.4656 0.24986,-0.4656 0.211,0 0.24986,-0.0329 0.24986,-0.21164 0,-0.16931 0.0416,-0.21165 0.20823,-0.21165 0.17583,0 0.20822,-0.0395 0.20822,-0.25396 v -0.25397 h 1.62411 1.62411 v 0.25397 c 0,0.2514 0.005,0.25396 0.45807,0.25396 0.45346,0 0.45809,-0.003 0.45809,-0.25396 0,-0.2514 0.005,-0.25397 0.45809,-0.25397 0.43309,0 0.45807,-0.0115 0.45807,-0.21164 0,-0.20811 0.0111,-0.21164 0.66631,-0.21164 0.65519,0 0.6663,0.004 0.6663,0.21164 v 0.21164 h 0.91616 0.91617 v 0.25397 c 0,0.2514 0.005,0.25396 0.45808,0.25396 0.4331,0 0.45808,0.0115 0.45808,0.21165 0,0.20009 0.025,0.21164 0.45809,0.21164 0.45345,0 0.45808,0.003 0.45808,0.25397 0,0.22575 0.0277,0.25397 0.24986,0.25397 0.211,0 0.24986,0.0329 0.24986,0.21163 0,0.16932 0.0416,0.21164 0.20822,0.21164 0.17583,0 0.20823,0.0395 0.20823,0.25397 0,0.22575 0.0277,0.25397 0.24986,0.25397 0.24734,0 0.24986,0.005 0.24986,0.46561 0,0.44021 0.0113,0.4656 0.20822,0.4656 h 0.20822 v 0.93123 0.93121 h 0.24986 0.24987 v 2.07407 2.07408 h -0.24987 -0.24986 v 1.39682 1.39683 h -0.20822 c -0.16658,0 -0.20822,-0.0423 -0.20822,-0.21164 0,-0.17872 -0.0388,-0.21165 -0.24986,-0.21165 -0.24734,0 -0.24986,0.005 -0.24986,0.46561 v 0.46562 h 0.45807 c 0.4331,0 0.45809,0.0115 0.45809,0.21163 0,0.17872 0.0389,0.21164 0.24986,0.21164 0.2221,0 0.24987,0.0282 0.24987,0.25397 0,0.21446 0.0324,0.25397 0.20822,0.25397 0.16657,0 0.20821,0.0423 0.20821,0.21164 0,0.17872 0.0389,0.21164 0.24986,0.21164 0.24735,0 0.24987,0.005 0.24987,0.46561 0,0.44021 0.0113,0.46561 0.20822,0.46561 0.20577,0 0.20822,0.008 0.20822,0.71957 v 0.71958 h 0.24987 0.24986 v 0.93121 0.93123 h 0.20821 c 0.20475,0 0.20822,0.0113 0.20822,0.67724 v 0.67725 h 0.24987 c 0.24733,0 0.24986,0.005 0.24986,0.46561 0,0.4609 -0.003,0.46561 -0.24986,0.46561 -0.22211,0 -0.24987,0.0282 -0.24987,0.25397 0,0.21445 -0.0324,0.25397 -0.20822,0.25397 -0.16657,0 -0.20821,0.0423 -0.20821,0.21163 0,0.20009 -0.025,0.21164 -0.45809,0.21164 -0.45345,0 -0.45808,0.003 -0.45808,0.25397 0,0.22575 -0.0277,0.25397 -0.24987,0.25397 -0.21098,0 -0.24986,0.0329 -0.24986,0.21164 0,0.16931 -0.0416,0.21164 -0.20821,0.21164 -0.17583,0 -0.20822,0.0395 -0.20822,0.25396 0,0.22576 -0.0277,0.25397 -0.24987,0.25397 -0.21099,0 -0.24986,0.0329 -0.24986,0.21165 0,0.20009 -0.025,0.21164 -0.45809,0.21164 -0.45345,0 -0.45807,0.003 -0.45807,0.25397 0,0.21445 -0.0324,0.25397 -0.20823,0.25397 -0.16657,0 -0.20822,0.0423 -0.20822,0.21163 0,0.17872 -0.0388,0.21164 -0.24986,0.21164 -0.2221,0 -0.24986,0.0282 -0.24986,0.25397 0,0.21446 -0.0324,0.25397 -0.20822,0.25397 -0.19686,0 -0.20822,0.0254 -0.20822,0.46561 0,0.44021 0.0113,0.4656 0.20822,0.4656 0.16657,0 0.20822,0.0423 0.20822,0.21165 0,0.17871 0.0388,0.21164 0.24986,0.21164 0.2221,0 0.24986,0.0282 0.24986,0.25397 v 0.25397 h -0.70794 -0.70795 v 0.4656 c 0,0.4609 0.003,0.46561 0.24987,0.46561 0.24733,0 0.24986,0.005 0.24986,0.46561 0,0.4609 -0.003,0.4656 -0.24986,0.4656 -0.24735,0 -0.24987,0.005 -0.24987,0.46561 0,0.46091 0.003,0.46562 0.24987,0.46562 0.24733,0 0.24986,0.005 0.24986,0.4656 0,0.4609 -0.003,0.46561 -0.24986,0.46561 -0.211,0 -0.24987,0.0329 -0.24987,0.21164 0,0.17872 0.0389,0.21164 0.24987,0.21164 0.2443,0 0.24986,0.009 0.24986,0.42328 0,0.41387 -0.006,0.42328 -0.24986,0.42328 -0.24431,0 -0.24987,-0.009 -0.24987,-0.42328 v -0.42328 h -0.66629 -0.66631 v 0.25396 0.25397 h -0.91616 c -0.86065,0 -0.91617,0.0103 -0.91617,0.16932 0,0.14879 -0.0556,0.16931 -0.45808,0.16931 -0.40256,0 -0.45809,-0.0205 -0.45809,-0.16931 0,-0.13169 -0.0555,-0.16932 -0.24986,-0.16932 -0.19433,0 -0.24986,0.0376 -0.24986,0.16932 0,0.14879 -0.0555,0.16931 -0.45808,0.16931 h -0.45809 v -0.63492 -0.63492 h -0.45808 c -0.45345,0 -0.45808,-0.003 -0.45808,-0.25397 0,-0.21446 -0.0324,-0.25397 -0.20822,-0.25397 -0.19686,0 -0.20822,0.0254 -0.20822,0.46561 0,0.46091 -0.003,0.46561 -0.24986,0.46561 -0.22211,0 -0.24987,0.0282 -0.24987,0.25396 0,0.21447 -0.0324,0.25397 -0.20821,0.25397 -0.15269,0 -0.20822,0.0452 -0.20822,0.16932 0,0.13168 -0.0556,0.16931 -0.24987,0.16931 -0.19433,0 -0.24986,-0.0376 -0.24986,-0.16931 0,-0.12416 -0.0556,-0.16932 -0.20822,-0.16932 -0.17583,0 -0.20821,-0.0395 -0.20821,-0.25397 0,-0.25139 -0.005,-0.25396 -0.45809,-0.25396 -0.4331,0 -0.45809,-0.0115 -0.45809,-0.21164 0,-0.17871 -0.0389,-0.21164 -0.24986,-0.21164 -0.24733,0 -0.24986,0.005 -0.24986,0.46561 v 0.4656 h 0.45808 c 0.40256,0 0.45809,0.0205 0.45809,0.16932 0,0.14879 -0.0556,0.16931 -0.45809,0.16931 -0.40255,0 -0.45808,-0.0205 -0.45808,-0.16931 z m 2.74849,-1.3545 c 0,-0.66597 -0.004,-0.67724 -0.20821,-0.67724 -0.17583,0 -0.20822,-0.0395 -0.20822,-0.25397 0,-0.21447 0.0324,-0.25397 0.20822,-0.25397 0.16657,0 0.20821,-0.0423 0.20821,-0.21164 0,-0.17872 0.0389,-0.21165 0.24987,-0.21165 0.24734,0 0.24986,0.005 0.24986,0.46561 v 0.46562 h 0.91617 0.91616 v -0.25397 c 0,-0.21447 0.0324,-0.25397 0.20822,-0.25397 0.16657,0 0.20822,-0.0423 0.20822,-0.21164 0,-0.17872 0.0389,-0.21165 0.24986,-0.21165 0.2221,0 0.24986,-0.0282 0.24986,-0.25397 0,-0.21445 0.0324,-0.25396 0.20822,-0.25396 0.19687,0 0.20823,0.0254 0.20823,0.46561 v 0.46561 h 0.91616 0.91616 v 0.25397 0.25397 h -1.12438 -1.12439 v 0.67724 0.67725 h 1.37425 1.37425 v -0.21164 c 0,-0.20009 0.025,-0.21164 0.45808,-0.21164 0.45346,0 0.45809,-0.003 0.45809,-0.25397 0,-0.21446 0.0324,-0.25397 0.20821,-0.25397 0.16658,0 0.20822,-0.0423 0.20822,-0.21164 0,-0.16931 -0.0416,-0.21163 -0.20822,-0.21163 -0.17583,0 -0.20821,-0.0395 -0.20821,-0.25397 v -0.25397 h -0.70795 c -0.69962,0 -0.70795,-0.002 -0.70795,-0.21164 0,-0.20916 0.008,-0.21165 0.70795,-0.21165 h 0.70795 v -0.25397 c 0,-0.21445 0.0324,-0.25396 0.20821,-0.25396 0.16658,0 0.20822,-0.0423 0.20822,-0.21164 0,-0.16932 -0.0416,-0.21164 -0.20822,-0.21164 -0.19686,0 -0.20821,-0.0254 -0.20821,-0.46561 v -0.4656 h -0.70795 -0.70795 v -0.25397 -0.25397 h 1.16604 1.16602 v -0.21164 -0.21165 h -1.37425 -1.37424 v -0.25397 -0.25396 h 1.12438 1.12438 v -0.21164 c 0,-0.17871 0.0389,-0.21164 0.24987,-0.21164 0.2221,0 0.24986,-0.0282 0.24986,-0.25397 0,-0.21446 0.0324,-0.25397 0.20822,-0.25397 0.16657,0 0.20822,-0.0423 0.20822,-0.21164 0,-0.17872 0.0388,-0.21163 0.24986,-0.21163 0.2221,0 0.24986,-0.0282 0.24986,-0.25397 0,-0.21447 0.0324,-0.25397 0.20822,-0.25397 0.16658,0 0.20823,-0.0423 0.20823,-0.21164 0,-0.2001 0.025,-0.21165 0.45807,-0.21165 0.45346,0 0.45809,-0.003 0.45809,-0.25397 0,-0.22575 0.0277,-0.25396 0.24986,-0.25396 0.211,0 0.24987,-0.0329 0.24987,-0.21164 0,-0.16932 0.0416,-0.21164 0.20822,-0.21164 0.17583,0 0.20821,-0.0395 0.20821,-0.25397 0,-0.22575 0.0277,-0.25397 0.24986,-0.25397 0.211,0 0.24987,-0.0329 0.24987,-0.21164 0,-0.20009 0.025,-0.21163 0.45808,-0.21163 0.45346,0 0.45809,-0.003 0.45809,-0.25397 0,-0.21447 0.0324,-0.25397 0.20821,-0.25397 0.16658,0 0.20822,-0.0423 0.20822,-0.21164 0,-0.2001 -0.025,-0.21165 -0.45808,-0.21165 -0.43309,0 -0.45808,0.0115 -0.45808,0.21165 v 0.21164 h -1.12438 -1.12439 v 0.4656 0.46561 h -0.45808 c -0.45345,0 -0.45809,0.003 -0.45809,0.25397 0,0.22575 -0.0277,0.25397 -0.24986,0.25397 -0.21099,0 -0.24986,0.0329 -0.24986,0.21164 0,0.16931 -0.0416,0.21164 -0.20822,0.21164 -0.19686,0 -0.20822,0.0254 -0.20822,0.46561 0,0.4609 -0.003,0.46561 -0.24986,0.46561 -0.22211,0 -0.24987,0.0282 -0.24987,0.25397 0,0.21445 -0.0324,0.25397 -0.20822,0.25397 -0.16657,0 -0.20821,0.0423 -0.20821,0.21163 v 0.21164 h -1.16604 -1.16602 v 0.25397 c 0,0.2514 -0.005,0.25397 -0.45809,0.25397 -0.45345,0 -0.45807,-0.003 -0.45807,-0.25397 v -0.25397 H 147.84 145.34137 v -0.21164 c 0,-0.17872 -0.0389,-0.21163 -0.24987,-0.21163 -0.21099,0 -0.24986,0.0329 -0.24986,0.21163 0,0.16932 -0.0416,0.21164 -0.20822,0.21164 h -0.20823 v -1.39682 -1.39683 h -0.24986 -0.24986 v -0.93121 -0.93122 h 0.24986 c 0.24735,0 0.24986,0.005 0.24986,0.46561 0,0.44021 0.0113,0.46561 0.20823,0.46561 0.17583,0 0.20822,0.0395 0.20822,0.25397 v 0.25397 h 1.37425 1.37424 v 0.21163 0.21164 h -1.12438 -1.12438 v 0.25397 0.25397 h 0.91616 0.91616 v 0.21164 0.21164 h -0.91616 -0.91616 v 0.46561 0.46561 h 4.12274 4.12274 v -0.21164 -0.21165 h -3.20658 -3.20658 v -0.25397 -0.25396 h 2.95671 2.95672 v -0.21164 -0.21164 h -2.74849 -2.7485 v -0.25397 -0.25397 h 1.62411 1.62411 v -0.21164 c 0,-0.20009 0.025,-0.21163 0.45808,-0.21163 0.4331,0 0.45809,0.0115 0.45809,0.21163 v 0.21164 h 0.91616 0.91617 v -0.21164 c 0,-0.16931 0.0416,-0.21163 0.20821,-0.21163 0.17583,0 0.20822,-0.0395 0.20822,-0.25397 0,-0.22575 0.0277,-0.25397 0.24987,-0.25397 h 0.24986 v -1.39683 -1.39682 h -0.24986 c -0.211,0 -0.24987,-0.0329 -0.24987,-0.21164 0,-0.16931 -0.0416,-0.21165 -0.20822,-0.21165 -0.17583,0 -0.20821,-0.0395 -0.20821,-0.25397 v -0.25396 h -0.91617 -0.91616 v -0.21164 c 0,-0.20811 0.0111,-0.21164 0.66629,-0.21164 h 0.66631 v -0.25397 c 0,-0.22575 0.0277,-0.25397 0.24987,-0.25397 0.21098,0 0.24986,-0.0329 0.24986,-0.21164 0,-0.16931 0.0416,-0.21163 0.20821,-0.21163 0.20577,0 0.20822,-0.008 0.20822,-0.71958 v -0.71958 h 0.24987 c 0.21099,0 0.24986,-0.0329 0.24986,-0.21164 0,-0.20009 0.025,-0.21164 0.45809,-0.21164 h 0.45807 v -0.46561 c 0,-0.4609 -0.003,-0.4656 -0.24986,-0.4656 -0.2221,0 -0.24986,-0.0282 -0.24986,-0.25397 0,-0.25141 -0.005,-0.25397 -0.45808,-0.25397 -0.4331,0 -0.45809,-0.0115 -0.45809,-0.21164 0,-0.17872 0.0389,-0.21165 0.24987,-0.21165 0.2221,0 0.24986,-0.0282 0.24986,-0.25397 0,-0.21445 0.0324,-0.25396 0.20822,-0.25396 0.20474,0 0.20822,-0.0113 0.20822,-0.67725 v -0.67724 h 0.24986 0.24986 v -2.11641 -2.1164 h 0.20822 0.20823 v 1.65079 1.65079 h 0.24986 c 0.21099,0 0.24986,0.0329 0.24986,0.21165 0,0.16931 0.0416,0.21164 0.20822,0.21164 h 0.20822 v -2.07408 -2.07407 h -0.20822 -0.20822 v -0.93121 -0.93123 h -0.24986 c -0.24734,0 -0.24986,-0.005 -0.24986,-0.4656 0,-0.44021 -0.0113,-0.46561 -0.20823,-0.46561 -0.17582,0 -0.20822,-0.0395 -0.20822,-0.25397 0,-0.22575 -0.0277,-0.25397 -0.24986,-0.25397 -0.21099,0 -0.24986,-0.0329 -0.24986,-0.21164 0,-0.20008 -0.025,-0.21163 -0.45808,-0.21163 -0.45345,0 -0.45809,-0.003 -0.45809,-0.25397 0,-0.25141 -0.005,-0.25397 -0.45808,-0.25397 -0.43309,0 -0.45808,-0.0115 -0.45808,-0.21164 v -0.21165 h -1.12438 -1.12439 v -0.25396 c 0,-0.22576 -0.0277,-0.25397 -0.24986,-0.25397 -0.2221,0 -0.24986,0.0282 -0.24986,0.25397 0,0.2514 -0.005,0.25396 -0.45809,0.25396 -0.4331,0 -0.45808,0.0115 -0.45808,0.21165 0,0.16931 -0.0416,0.21164 -0.20822,0.21164 -0.17583,0 -0.20822,0.0395 -0.20822,0.25397 0,0.22575 -0.0277,0.25397 -0.24986,0.25397 -0.22211,0 -0.24987,-0.0282 -0.24987,-0.25397 0,-0.21446 -0.0324,-0.25397 -0.20822,-0.25397 -0.16657,0 -0.20821,-0.0423 -0.20821,-0.21164 v -0.21165 h -0.91617 -0.91616 v 0.21165 c 0,0.20009 -0.025,0.21164 -0.45809,0.21164 -0.45345,0 -0.45807,0.003 -0.45807,0.25397 0,0.22575 -0.0277,0.25397 -0.24987,0.25397 -0.2221,0 -0.24986,-0.0282 -0.24986,-0.25397 0,-0.21446 -0.0324,-0.25397 -0.20822,-0.25397 -0.17583,0 -0.20823,0.0395 -0.20823,0.25397 0,0.21445 0.0324,0.25397 0.20823,0.25397 0.16657,0 0.20822,0.0423 0.20822,0.21163 0,0.2001 -0.025,0.21164 -0.45809,0.21164 -0.45345,0 -0.45808,0.003 -0.45808,0.25397 0,0.22575 0.0277,0.25397 0.24986,0.25397 0.211,0 0.24986,0.0329 0.24986,0.21164 0,0.17872 -0.0389,0.21164 -0.24986,0.21164 h -0.24986 v 0.93122 0.93121 h -0.20822 -0.20822 v 1.86244 1.86243 h 0.20822 0.20822 v 1.86243 1.86244 h -0.20822 c -0.17582,0 -0.20822,0.0395 -0.20822,0.25397 0,0.2514 0.005,0.25397 0.45809,0.25397 0.45345,0 0.45807,-0.003 0.45807,-0.25397 0,-0.21447 0.0324,-0.25397 0.20823,-0.25397 h 0.20822 v -1.60847 -1.60847 h 0.24986 c 0.21099,0 0.24987,0.0329 0.24987,0.21165 0,0.16931 0.0416,0.21164 0.20821,0.21164 0.17583,0 0.20822,0.0395 0.20822,0.25397 0,0.22575 0.0277,0.25397 0.24986,0.25397 0.211,0 0.24987,0.0329 0.24987,0.21163 0,0.16932 0.0416,0.21164 0.20822,0.21164 0.17583,0 0.20821,0.0395 0.20821,0.25397 0,0.22575 0.0277,0.25397 0.24987,0.25397 0.21099,0 0.24986,0.0329 0.24986,0.21164 0,0.16931 0.0416,0.21164 0.20822,0.21164 0.17583,0 0.20822,0.0395 0.20822,0.25396 0,0.22576 0.0277,0.25397 0.24987,0.25397 0.21098,0 0.24986,0.0329 0.24986,0.21165 v 0.21164 h 1.12438 1.12439 v 0.25397 0.25397 h -1.12439 -1.12438 v 0.21163 0.21164 h -1.16603 -1.16603 v 0.25397 c 0,0.21446 -0.0324,0.25397 -0.20822,0.25397 h -0.20821 v 0.93121 0.93123 h -0.24987 c -0.21099,0 -0.24986,0.0329 -0.24986,0.21163 0,0.17872 0.0389,0.21164 0.24986,0.21164 0.21099,0 0.24987,-0.0329 0.24987,-0.21164 0,-0.2081 0.0111,-0.21163 0.66629,-0.21163 0.65521,0 0.6663,0.004 0.6663,0.21163 0,0.20009 -0.025,0.21164 -0.45807,0.21164 -0.45346,0 -0.45809,0.003 -0.45809,0.25397 0,0.21446 -0.0324,0.25397 -0.20822,0.25397 -0.16657,0 -0.20821,0.0423 -0.20821,0.21164 0,0.17872 -0.0389,0.21164 -0.24987,0.21164 -0.2221,0 -0.24986,0.0282 -0.24986,0.25396 0,0.21447 -0.0324,0.25397 -0.20822,0.25397 h -0.20823 v -0.93121 -0.93121 h -0.24986 c -0.2221,0 -0.24986,-0.0282 -0.24986,-0.25397 0,-0.22575 0.0277,-0.25397 0.24986,-0.25397 0.211,0 0.24986,-0.0329 0.24986,-0.21164 0,-0.16931 0.0416,-0.21165 0.20823,-0.21165 0.20577,0 0.20822,-0.008 0.20822,-0.71957 0,-0.71111 -0.002,-0.71958 -0.20822,-0.71958 -0.17583,0 -0.20823,0.0395 -0.20823,0.25397 0,0.22575 -0.0277,0.25397 -0.24986,0.25397 -0.24733,0 -0.24986,0.005 -0.24986,0.46561 0,0.44021 -0.0113,0.4656 -0.20822,0.4656 -0.19686,0 -0.20822,0.0254 -0.20822,0.46561 0,0.46091 -0.003,0.46562 -0.24986,0.46562 -0.211,0 -0.24986,0.0329 -0.24986,0.21163 0,0.16932 -0.0416,0.21164 -0.20823,0.21164 -0.19686,0 -0.20821,0.0254 -0.20821,0.46561 0,0.44021 0.0113,0.46561 0.20821,0.46561 0.16659,0 0.20823,-0.0423 0.20823,-0.21164 0,-0.17871 0.0389,-0.21164 0.24986,-0.21164 0.24733,0 0.24986,0.005 0.24986,0.46561 v 0.4656 h 0.45809 c 0.43309,0 0.45807,0.0115 0.45807,0.21165 0,0.17871 -0.0389,0.21164 -0.24986,0.21164 h -0.24986 v 0.93121 0.93122 h -0.20822 c -0.16658,0 -0.20822,-0.0423 -0.20822,-0.21164 0,-0.17871 -0.0389,-0.21164 -0.24986,-0.21164 -0.2221,0 -0.24986,-0.0282 -0.24986,-0.25397 0,-0.22575 0.0277,-0.25397 0.24986,-0.25397 0.24733,0 0.24986,-0.005 0.24986,-0.46561 v -0.4656 h -0.45808 c -0.45346,0 -0.45808,0.003 -0.45808,0.25397 0,0.22575 -0.0277,0.25397 -0.24986,0.25397 h -0.24987 v 0.67724 0.67725 h 0.24987 0.24986 v 1.18519 1.18518 h 0.20821 c 0.20475,0 0.20823,0.0113 0.20823,0.67724 v 0.67726 h 0.24986 c 0.2221,0 0.24986,0.0282 0.24986,0.25397 0,0.21445 0.0324,0.25397 0.20822,0.25397 0.16658,0 0.20822,0.0423 0.20822,0.21163 0,0.17872 0.0389,0.21164 0.24986,0.21164 0.2221,0 0.24986,0.0282 0.24986,0.25397 0,0.22575 -0.0277,0.25397 -0.24986,0.25397 -0.21099,0 -0.24986,0.0329 -0.24986,0.21164 0,0.17872 0.0389,0.21164 0.24986,0.21164 0.2221,0 0.24986,0.0282 0.24986,0.25396 0,0.25141 -0.005,0.25397 -0.45807,0.25397 -0.4331,0 -0.45809,0.0115 -0.45809,0.21165 v 0.21164 h 0.91616 0.91618 v 0.25397 0.25397 h -0.70795 c -0.69962,0 -0.70795,0.002 -0.70795,0.21163 0,0.16932 -0.0416,0.21164 -0.20822,0.21164 -0.17582,0 -0.20822,0.0395 -0.20822,0.25397 0,0.21446 0.0324,0.25397 0.20822,0.25397 0.16658,0 0.20822,0.0423 0.20822,0.21164 0,0.17872 0.0389,0.21164 0.24986,0.21164 0.2221,0 0.24986,0.0282 0.24986,0.25396 0,0.22576 -0.0277,0.25397 -0.24986,0.25397 h -0.24986 v 0.67726 0.67724 h 0.24986 c 0.2221,0 0.24986,0.0282 0.24986,0.25397 0,0.2514 0.005,0.25397 0.45809,0.25397 0.4331,0 0.45809,0.0115 0.45809,0.21164 0,0.20811 0.0111,0.21164 0.66629,0.21164 h 0.6663 z m -2.24877,-1.39682 v -0.21165 h 0.91618 0.91616 v -0.4656 c 0,-0.4609 -0.003,-0.46561 -0.24987,-0.46561 -0.2221,0 -0.24986,-0.0282 -0.24986,-0.25397 0,-0.21446 -0.0324,-0.25397 -0.20822,-0.25397 -0.16657,0 -0.20821,-0.0423 -0.20821,-0.21164 0,-0.16931 0.0416,-0.21163 0.20821,-0.21163 0.16658,0 0.20822,0.0423 0.20822,0.21163 0,0.17872 0.0389,0.21164 0.24986,0.21164 0.22211,0 0.24987,0.0282 0.24987,0.25397 0,0.21446 0.0324,0.25397 0.20822,0.25397 0.19685,0 0.20821,0.0254 0.20821,0.46561 0,0.44021 -0.0113,0.4656 -0.20821,0.4656 -0.16658,0 -0.20822,0.0423 -0.20822,0.21165 v 0.21164 h -0.91616 -0.91618 z m 5.91344,-0.93122 c 0,-0.17871 0.0389,-0.21164 0.24986,-0.21164 0.2221,0 0.24986,-0.0282 0.24986,-0.25397 0,-0.21446 0.0324,-0.25397 0.20822,-0.25397 0.16658,0 0.20822,-0.0423 0.20822,-0.21164 0,-0.20009 0.025,-0.21163 0.45808,-0.21163 0.43309,0 0.45808,0.0115 0.45808,0.21163 0,0.20009 -0.025,0.21164 -0.45808,0.21164 -0.45345,0 -0.45808,0.003 -0.45808,0.25397 0,0.21446 -0.0324,0.25397 -0.20822,0.25397 -0.16658,0 -0.20822,0.0423 -0.20822,0.21164 0,0.17872 -0.0389,0.21164 -0.24986,0.21164 -0.211,0 -0.24986,-0.0329 -0.24986,-0.21164 z m -5.91344,-2.79365 c 0,-0.16932 0.0416,-0.21164 0.20823,-0.21164 0.17583,0 0.20822,-0.0395 0.20822,-0.25397 0,-0.22575 0.0277,-0.25397 0.24986,-0.25397 0.2221,0 0.24987,0.0282 0.24987,0.25397 0,0.22575 -0.0277,0.25397 -0.24987,0.25397 -0.21099,0 -0.24986,0.0329 -0.24986,0.21164 0,0.16931 -0.0416,0.21164 -0.20822,0.21164 -0.16658,0 -0.20823,-0.0423 -0.20823,-0.21164 z m 6.8296,0 c 0,-0.17871 0.0389,-0.21164 0.24986,-0.21164 0.211,0 0.24987,0.0329 0.24987,0.21164 0,0.17872 -0.0389,0.21164 -0.24987,0.21164 -0.21099,0 -0.24986,-0.0329 -0.24986,-0.21164 z m -2.24877,-4.19047 c 0,-0.25141 -0.005,-0.25397 -0.45809,-0.25397 -0.43308,0 -0.45807,-0.0115 -0.45807,-0.21164 0,-0.2001 -0.025,-0.21165 -0.45809,-0.21165 -0.45345,0 -0.45808,-0.003 -0.45808,-0.25397 0,-0.25139 0.005,-0.25396 0.45808,-0.25396 0.45346,0 0.45809,0.003 0.45809,0.25396 0,0.25141 0.005,0.25397 0.45807,0.25397 0.4331,0 0.45809,0.0115 0.45809,0.21165 0,0.20009 0.025,0.21164 0.45809,0.21164 0.43309,0 0.45807,-0.0115 0.45807,-0.21164 0,-0.17872 -0.0389,-0.21165 -0.24986,-0.21165 -0.24734,0 -0.24986,-0.005 -0.24986,-0.4656 0,-0.4609 0.003,-0.46561 0.24986,-0.46561 0.211,0 0.24986,0.0329 0.24986,0.21164 0,0.16931 0.0416,0.21164 0.20822,0.21164 0.19687,0 0.20823,0.0254 0.20823,0.46561 0,0.4609 0.003,0.46561 0.24986,0.46561 0.21099,0 0.24986,-0.0329 0.24986,-0.21164 0,-0.16931 0.0416,-0.21165 0.20822,-0.21165 0.17583,0 0.20822,-0.0395 0.20822,-0.25397 0,-0.21445 -0.0324,-0.25396 -0.20822,-0.25396 -0.20474,0 -0.20822,-0.0113 -0.20822,-0.67725 v -0.67724 h 0.45808 c 0.45345,0 0.45809,-0.003 0.45809,-0.25397 0,-0.25141 0.005,-0.25397 0.45808,-0.25397 0.45345,0 0.45808,0.003 0.45808,0.25397 0,0.21445 0.0324,0.25397 0.20822,0.25397 0.16657,0 0.20822,0.0423 0.20822,0.21163 0,0.17872 0.0389,0.21164 0.24987,0.21164 0.24733,0 0.24986,0.005 0.24986,0.46561 0,0.46091 -0.003,0.46561 -0.24986,0.46561 -0.22211,0 -0.24987,0.0282 -0.24987,0.25396 v 0.25397 h -0.91617 -0.91616 v 0.21165 c 0,0.16931 -0.0416,0.21164 -0.20822,0.21164 -0.17583,0 -0.20822,0.0395 -0.20822,0.25397 v 0.25397 h -0.91617 -0.91616 z m 4.0811,-1.6508 c 0,-0.44021 -0.0113,-0.46561 -0.20822,-0.46561 -0.17583,0 -0.20822,0.0395 -0.20822,0.25397 0,0.22575 -0.0277,0.25397 -0.24987,0.25397 -0.24733,0 -0.24986,-0.005 -0.24986,-0.46561 0,-0.44021 -0.0113,-0.4656 -0.20821,-0.4656 -0.16658,0 -0.20822,0.0423 -0.20822,0.21163 0,0.17872 -0.0389,0.21164 -0.24987,0.21164 -0.24734,0 -0.24986,0.005 -0.24986,0.46561 v 0.46561 h 0.91616 0.91617 z m -10.49425,-0.67725 c 0,-0.16931 0.0416,-0.21163 0.20821,-0.21163 0.16659,0 0.20823,0.0423 0.20823,0.21163 0,0.16932 -0.0416,0.21164 -0.20823,0.21164 -0.16657,0 -0.20821,-0.0423 -0.20821,-0.21164 z m 5.91342,-0.4656 c 0,-0.25141 -0.005,-0.25397 -0.45808,-0.25397 -0.43309,0 -0.45808,-0.0115 -0.45808,-0.21164 0,-0.2001 -0.025,-0.21165 -0.45808,-0.21165 -0.45345,0 -0.45809,-0.003 -0.45809,-0.25397 0,-0.25139 -0.005,-0.25396 -0.45807,-0.25396 -0.4331,0 -0.45809,-0.0115 -0.45809,-0.21164 0,-0.20009 0.025,-0.21164 0.45809,-0.21164 0.43309,0 0.45807,0.0115 0.45807,0.21164 0,0.2001 0.025,0.21164 0.45809,0.21164 0.45345,0 0.45808,0.003 0.45808,0.25396 0,0.25141 0.005,0.25397 0.45808,0.25397 0.4331,0 0.45808,0.0115 0.45808,0.21165 0,0.17871 0.0389,0.21164 0.24987,0.21164 0.21099,0 0.24986,-0.0329 0.24986,-0.21164 0,-0.2001 0.025,-0.21165 0.45809,-0.21165 0.45345,0 0.45807,-0.003 0.45807,-0.25397 v -0.25396 h 0.91617 0.91617 v 0.25396 0.25397 h -0.91617 -0.91617 v 0.21165 c 0,0.20009 -0.025,0.21164 -0.45807,0.21164 -0.45346,0 -0.45809,0.003 -0.45809,0.25397 0,0.22575 -0.0277,0.25397 -0.24986,0.25397 -0.22211,0 -0.24987,-0.0282 -0.24987,-0.25397 z m -4.99726,-2.07408 c 0,-0.44021 0.0113,-0.4656 0.20822,-0.4656 0.19686,0 0.20822,0.0254 0.20822,0.4656 0,0.44021 -0.0113,0.46561 -0.20822,0.46561 -0.19686,0 -0.20822,-0.0254 -0.20822,-0.46561 z m 4.99726,-0.25397 v -0.21163 h -0.91616 -0.91617 v -0.25397 -0.25397 h 0.91617 0.91616 v 0.25397 0.25397 h 1.16603 1.16603 v -0.25397 c 0,-0.21447 0.0324,-0.25397 0.20822,-0.25397 0.19686,0 0.20822,-0.0254 0.20822,-0.46561 0,-0.44022 -0.0113,-0.46561 -0.20822,-0.46561 -0.17583,0 -0.20822,0.0395 -0.20822,0.25396 0,0.22576 -0.0277,0.25397 -0.24986,0.25397 -0.211,0 -0.24986,0.0329 -0.24986,0.21165 0,0.20009 -0.025,0.21164 -0.45809,0.21164 -0.4331,0 -0.45808,-0.0115 -0.45808,-0.21164 0,-0.16931 -0.0416,-0.21165 -0.20822,-0.21165 -0.17583,0 -0.20822,-0.0395 -0.20822,-0.25397 0,-0.22575 -0.0277,-0.25396 -0.24986,-0.25396 -0.211,0 -0.24987,-0.0329 -0.24987,-0.21164 0,-0.16932 -0.0416,-0.21164 -0.20822,-0.21164 -0.17583,0 -0.20821,-0.0395 -0.20821,-0.25397 0,-0.21446 0.0324,-0.25397 0.20821,-0.25397 0.17583,0 0.20822,0.0395 0.20822,0.25397 0,0.22575 0.0277,0.25397 0.24987,0.25397 0.21099,0 0.24986,0.0329 0.24986,0.21164 0,0.16931 0.0416,0.21164 0.20822,0.21164 0.17583,0 0.20822,0.0395 0.20822,0.25396 0,0.25141 0.005,0.25397 0.45808,0.25397 0.45345,0 0.45809,-0.003 0.45809,-0.25397 0,-0.22575 0.0277,-0.25396 0.24986,-0.25396 0.21099,0 0.24986,-0.0329 0.24986,-0.21164 0,-0.16932 0.0416,-0.21164 0.20822,-0.21164 0.17583,0 0.20822,-0.0395 0.20822,-0.25397 0,-0.22575 0.0277,-0.25397 0.24986,-0.25397 h 0.24987 v -0.67724 -0.67726 h -0.24987 c -0.21099,0 -0.24986,0.0329 -0.24986,0.21165 0,0.20009 -0.025,0.21164 -0.45809,0.21164 -0.43309,0 -0.45807,-0.0115 -0.45807,-0.21164 0,-0.2001 0.025,-0.21165 0.45807,-0.21165 0.45346,0 0.45809,-0.003 0.45809,-0.25397 0,-0.22575 0.0277,-0.25396 0.24986,-0.25396 h 0.24987 v -1.60846 -1.60847 h -0.91617 -0.91617 v -0.25397 c 0,-0.22575 0.0277,-0.25397 0.24987,-0.25397 0.21099,0 0.24986,-0.0329 0.24986,-0.21164 0,-0.17872 -0.0389,-0.21163 -0.24986,-0.21163 -0.22211,0 -0.24987,-0.0282 -0.24987,-0.25397 0,-0.21446 0.0324,-0.25397 0.20822,-0.25397 0.16658,0 0.20823,-0.0423 0.20823,-0.21164 0,-0.2001 -0.025,-0.21165 -0.45809,-0.21165 h -0.45808 v -0.4656 -0.46561 h 0.45808 c 0.45345,0 0.45809,-0.003 0.45809,-0.25397 v -0.25397 h 0.70794 0.70795 v -0.67724 -0.67726 h -0.24987 c -0.24734,0 -0.24986,-0.005 -0.24986,-0.4656 v -0.46561 h -1.37425 -1.37425 v 0.21164 0.21164 h -1.12438 -1.12438 v 0.25397 c 0,0.22575 -0.0277,0.25396 -0.24987,0.25396 -0.24734,0 -0.24986,0.005 -0.24986,0.46561 0,0.44022 -0.0113,0.46562 -0.20822,0.46562 h -0.20821 v 0.93121 0.93121 h -0.24987 -0.24986 v 1.39683 1.39682 h -0.20822 -0.20823 v -1.39682 -1.39683 h 0.20823 0.20822 v -0.93121 -0.93121 h 0.24986 c 0.24734,0 0.24987,-0.005 0.24987,-0.46562 0,-0.44021 0.0113,-0.46561 0.20821,-0.46561 0.17583,0 0.20822,-0.0395 0.20822,-0.25396 0,-0.22576 0.0277,-0.25397 0.24986,-0.25397 0.211,0 0.24987,-0.0329 0.24987,-0.21164 0,-0.16932 0.0416,-0.21164 0.20822,-0.21164 0.17583,0 0.20821,-0.0395 0.20821,-0.25397 0,-0.22575 0.0277,-0.25397 0.24987,-0.25397 0.2221,0 0.24986,0.0282 0.24986,0.25397 0,0.25141 0.005,0.25397 0.45808,0.25397 h 0.45809 v -0.46561 c 0,-0.44021 0.0113,-0.4656 0.20821,-0.4656 0.16658,0 0.20822,0.0423 0.20822,0.21163 0,0.2001 0.025,0.21164 0.45809,0.21164 0.43309,0 0.45808,-0.0115 0.45808,-0.21164 0,-0.17872 0.0389,-0.21163 0.24986,-0.21163 0.2221,0 0.24986,-0.0282 0.24986,-0.25397 v -0.25397 h 0.91617 0.91617 v 0.25397 c 0,0.2514 0.005,0.25397 0.45808,0.25397 0.43309,0 0.45808,0.0115 0.45808,0.21163 0,0.2001 0.025,0.21164 0.45808,0.21164 0.45346,0 0.45809,0.003 0.45809,0.25397 0,0.21446 0.0324,0.25397 0.20821,0.25397 0.16658,0 0.20822,0.0423 0.20822,0.21164 0,0.17872 0.0389,0.21164 0.24987,0.21164 0.2221,0 0.24986,0.0282 0.24986,0.25397 0,0.21446 0.0324,0.25396 0.20822,0.25396 0.19685,0 0.20822,0.0254 0.20822,0.46561 0,0.46091 0.003,0.46562 0.24986,0.46562 h 0.24986 v 0.67724 0.67725 h -0.24986 -0.24986 v -0.67725 c 0,-0.66596 -0.004,-0.67724 -0.20822,-0.67724 -0.19686,0 -0.20822,-0.0254 -0.20822,-0.46562 0,-0.4609 -0.003,-0.46561 -0.24986,-0.46561 -0.22211,0 -0.24987,-0.0282 -0.24987,-0.25396 0,-0.2514 -0.005,-0.25397 -0.45808,-0.25397 -0.43309,0 -0.45808,-0.0115 -0.45808,-0.21164 0,-0.16932 -0.0416,-0.21164 -0.20822,-0.21164 -0.19686,0 -0.20822,0.0254 -0.20822,0.46561 0,0.44021 0.0113,0.4656 0.20822,0.4656 0.20475,0 0.20822,0.0113 0.20822,0.67726 v 0.67724 h 0.24987 c 0.24733,0 0.24986,0.005 0.24986,0.46562 0,0.4402 0.0113,0.4656 0.20821,0.4656 h 0.20822 v 1.65079 1.65079 h -0.20822 -0.20821 v 1.60847 1.60847 h 0.20821 c 0.17583,0 0.20822,0.0395 0.20822,0.25397 0,0.2514 -0.005,0.25397 -0.45808,0.25397 h -0.45808 v 0.93121 0.93121 h -0.20822 c -0.19686,0 -0.20822,0.0254 -0.20822,0.46561 0,0.44022 0.0113,0.46562 0.20822,0.46562 0.16657,0 0.20822,0.0423 0.20822,0.21163 0,0.16932 -0.0416,0.21164 -0.20822,0.21164 -0.16657,0 -0.20822,-0.0423 -0.20822,-0.21164 0,-0.20914 -0.008,-0.21163 -0.70794,-0.21163 -0.69962,0 -0.70795,0.002 -0.70795,0.21163 v 0.21164 h -1.37425 -1.37425 z m 3.24823,-1.86243 c 0,-0.17871 -0.0389,-0.21164 -0.24987,-0.21164 -0.21099,0 -0.24986,0.0329 -0.24986,0.21164 0,0.17872 0.0389,0.21164 0.24986,0.21164 0.211,0 0.24987,-0.0329 0.24987,-0.21164 z m 1.3326,-4.65608 v -0.71958 h 0.24987 c 0.24733,0 0.24986,-0.005 0.24986,-0.4656 0,-0.46091 -0.003,-0.46562 -0.24986,-0.46562 -0.24735,0 -0.24987,0.005 -0.24987,0.46562 0,0.4402 -0.0113,0.4656 -0.20822,0.4656 -0.20577,0 -0.20822,0.008 -0.20822,0.71958 0,0.71111 0.002,0.71958 0.20822,0.71958 0.20577,0 0.20822,-0.008 0.20822,-0.71958 z m -1.3326,-1.86244 c 0,-0.20008 -0.025,-0.21163 -0.45809,-0.21163 -0.43309,0 -0.45808,0.0115 -0.45808,0.21163 0,0.20009 0.025,0.21164 0.45808,0.21164 0.4331,0 0.45809,-0.0115 0.45809,-0.21164 z m 1.3326,-0.4656 c 0,-0.22575 0.0277,-0.25397 0.24987,-0.25397 0.24733,0 0.24986,-0.005 0.24986,-0.46561 0,-0.4609 -0.003,-0.46561 -0.24986,-0.46561 -0.24735,0 -0.24987,-0.005 -0.24987,-0.4656 0,-0.44022 -0.0113,-0.46562 -0.20822,-0.46562 h -0.20822 v 1.18518 1.1852 h 0.20822 c 0.17583,0 0.20822,-0.0395 0.20822,-0.25397 z m -1.3326,-1.14286 c 0,-0.4609 -0.003,-0.46561 -0.24987,-0.46561 -0.21099,0 -0.24986,0.0329 -0.24986,0.21164 0,0.2001 -0.025,0.21164 -0.45809,0.21164 -0.45345,0 -0.45807,0.003 -0.45807,0.25396 v 0.25397 h 0.70794 0.70795 z m -3.66466,4.40211 v -0.21163 h 0.91616 0.91616 v 0.21163 0.21164 h -0.91616 -0.91616 z m 0,-1.39683 c 0,-0.22575 -0.0277,-0.25396 -0.24986,-0.25396 -0.211,0 -0.24987,-0.0329 -0.24987,-0.21164 v -0.21164 h -0.91617 -0.91616 v -0.25397 c 0,-0.21446 -0.0324,-0.25397 -0.20822,-0.25397 -0.16657,0 -0.20821,-0.0423 -0.20821,-0.21164 0,-0.16931 0.0416,-0.21163 0.20821,-0.21163 0.17583,0 0.20822,-0.0395 0.20822,-0.25397 0,-0.22575 0.0277,-0.25397 0.24986,-0.25397 0.211,0 0.24987,-0.0329 0.24987,-0.21164 0,-0.20812 0.0111,-0.21165 0.6663,-0.21165 h 0.6663 v -0.25397 -0.25396 h -0.91617 -0.91616 v -0.4656 -0.46562 h 0.45809 c 0.45345,0 0.45807,0.003 0.45807,0.25397 v 0.25397 h 0.70795 0.70795 v 0.46561 c 0,0.4609 -0.003,0.4656 -0.24986,0.4656 -0.211,0 -0.24987,0.0329 -0.24987,0.21165 0,0.20009 0.025,0.21164 0.45808,0.21164 h 0.45808 v 0.4656 c 0,0.44022 -0.0113,0.46561 -0.20822,0.46561 -0.17583,0 -0.20821,0.0395 -0.20821,0.25397 0,0.21446 0.0324,0.25397 0.20821,0.25397 0.16658,0 0.20822,0.0423 0.20822,0.21164 0,0.17872 0.0389,0.21164 0.24987,0.21164 0.2221,0 0.24986,0.0282 0.24986,0.25396 0,0.25141 -0.005,0.25397 -0.45809,0.25397 -0.45345,0 -0.45807,-0.003 -0.45807,-0.25397 z m -1.83233,-1.39682 c 0,-0.17872 -0.0389,-0.21163 -0.24987,-0.21163 -0.21099,0 -0.24986,0.0329 -0.24986,0.21163 0,0.17872 0.0389,0.21164 0.24986,0.21164 0.211,0 0.24987,-0.0329 0.24987,-0.21164 z m 1.83233,0 c 0,-0.20914 -0.008,-0.21163 -0.70795,-0.21163 -0.69962,0 -0.70795,0.002 -0.70795,0.21163 0,0.20915 0.008,0.21164 0.70795,0.21164 0.69962,0 0.70795,-0.002 0.70795,-0.21164 z m 1.3326,23.02645 c 0,-0.44021 -0.0113,-0.46561 -0.20822,-0.46561 -0.19686,0 -0.20822,0.0254 -0.20822,0.46561 0,0.44021 0.0113,0.46561 0.20822,0.46561 0.19685,0 0.20822,-0.0254 0.20822,-0.46561 z m 8.74521,-12.78306 c 0,-0.16931 0.0416,-0.21165 0.20822,-0.21165 0.19686,0 0.20822,-0.0254 0.20822,-0.4656 0,-0.44021 -0.0113,-0.46561 -0.20822,-0.46561 -0.20577,0 -0.20822,-0.008 -0.20822,-0.71958 v -0.71957 h -0.24987 c -0.24733,0 -0.24986,-0.005 -0.24986,-0.46561 0,-0.44022 -0.0113,-0.46561 -0.20821,-0.46561 -0.16658,0 -0.20822,-0.0423 -0.20822,-0.21164 0,-0.17871 -0.0389,-0.21164 -0.24987,-0.21164 -0.2221,0 -0.24986,-0.0282 -0.24986,-0.25397 0,-0.2514 -0.005,-0.25397 -0.45809,-0.25397 h -0.45807 v 0.46561 0.46561 h -0.45809 c -0.45345,0 -0.45808,0.003 -0.45808,0.25396 0,0.21447 -0.0324,0.25397 -0.20822,0.25397 -0.20475,0 -0.20822,0.0113 -0.20822,0.67726 0,0.66595 0.004,0.67724 0.20822,0.67724 0.17583,0 0.20822,0.0395 0.20822,0.25397 0,0.2514 0.005,0.25397 0.45808,0.25397 h 0.45809 v 0.46561 c 0,0.4609 0.003,0.4656 0.24986,0.4656 0.21099,0 0.24986,0.0329 0.24986,0.21165 v 0.21164 h 0.91617 0.91616 z"
       id="path653"
       inkscape:connector-curvature="0" />
  </g>
</svg>
