<?xml version="1.0" encoding="UTF-8" standalone="no"?>
<!-- Created with Inkscape (http://www.inkscape.org/) -->

<svg
   xmlns:dc="http://purl.org/dc/elements/1.1/"
   xmlns:cc="http://creativecommons.org/ns#"
   xmlns:rdf="http://www.w3.org/1999/02/22-rdf-syntax-ns#"
   xmlns:svg="http://www.w3.org/2000/svg"
   xmlns="http://www.w3.org/2000/svg"
   xmlns:sodipodi="http://sodipodi.sourceforge.net/DTD/sodipodi-0.dtd"
   xmlns:inkscape="http://www.inkscape.org/namespaces/inkscape"
   width="80mm"
   height="16mm"
   viewBox="0 0 80 16"
   version="1.1"
   id="svg8"
   inkscape:version="0.92.5 (2060ec1f9f, 2020-04-08)"
   sodipodi:docname="site-title.svg">
  <defs
     id="defs2" />
  <sodipodi:namedview
     id="base"
     pagecolor="#ffffff"
     bordercolor="#666666"
     borderopacity="1.0"
     inkscape:pageopacity="0.0"
     inkscape:pageshadow="2"
     inkscape:zoom="2.8"
     inkscape:cx="193.39892"
     inkscape:cy="48.736756"
     inkscape:document-units="mm"
     inkscape:current-layer="layer1"
     showgrid="false"
     inkscape:window-width="1920"
     inkscape:window-height="1030"
     inkscape:window-x="0"
     inkscape:window-y="0"
     inkscape:window-maximized="1" />
  <metadata
     id="metadata5">
    <rdf:RDF>
      <cc:Work
         rdf:about="">
        <dc:format>image/svg+xml</dc:format>
        <dc:type
           rdf:resource="http://purl.org/dc/dcmitype/StillImage" />
        <dc:title></dc:title>
      </cc:Work>
    </rdf:RDF>
  </metadata>
  <g
     inkscape:label="Layer 1"
     inkscape:groupmode="layer"
     id="layer1"
     transform="translate(0,-281)">
    <path
       style="fill:#000000;stroke-width:0.54868966"
       d="M 35.617188 0.01171875 C 35.482003 -0.0070164862 35.338501 -0.0033337844 35.195312 0.025390625 C 34.397255 0.18530244 34.10082 0.76744232 33.923828 2.515625 C 33.796802 3.7703526 33.856753 11.654092 34.056641 20.035156 C 34.256563 28.416221 34.349576 35.369604 34.265625 35.488281 C 34.012382 35.84556 26.833234 36.369397 17.294922 36.726562 C 3.1389365 37.256112 0.53100867 37.827675 0.033203125 40.513672 C -0.40212554 42.862648 3.4378215 47.369958 9.7246094 51.892578 C 15.681247 56.177655 19.091523 58.249179 22.375 59.570312 C 23.518233 60.03047 26.02056 60.434608 27.935547 60.464844 C 31.092121 60.517644 31.561279 60.355337 32.947266 58.722656 C 33.788099 57.732193 34.785467 55.751494 35.164062 54.322266 C 35.542658 52.893075 36.093381 48.350998 36.388672 44.228516 L 36.925781 36.732422 L 40.613281 36.539062 L 44.298828 36.345703 L 43.0625 38.169922 C 41.45625 40.536095 40.452339 44.129054 40.826172 46.175781 C 41.19412 48.190269 43.797342 50.746094 45.482422 50.746094 C 47.104773 50.746094 50.033988 49.039407 51.345703 47.330078 L 52.371094 45.994141 L 54.138672 48.248047 C 55.948472 50.555146 59.661112 52.509081 60.929688 51.822266 C 61.319584 51.611141 61.638672 50.856922 61.638672 50.146484 C 61.638672 48.320784 63.005261 47.368149 63.871094 48.589844 C 64.742316 49.819173 67.153904 49.235801 69.707031 47.177734 C 70.730985 46.352323 72.352459 45.325121 73.310547 44.896484 C 74.919348 44.176825 75.118943 44.233406 75.925781 45.638672 C 76.725575 47.031428 77.170284 47.162937 81.181641 47.210938 C 84.628112 47.250509 85.728167 47.49395 86.335938 48.351562 C 86.760926 48.951336 87.458318 49.439073 87.884766 49.427734 C 88.311206 49.419873 89.545686 48.846152 90.628906 48.152344 C 93.506313 46.309446 95.507684 45.940593 97.396484 46.904297 C 98.765286 47.602791 99.052734 48.068711 99.052734 49.59375 C 99.052734 50.701567 99.356112 51.601987 99.810547 51.847656 C 100.70308 52.330944 105.31701 50.244782 106.02734 49.037109 C 106.76445 47.783894 106.06376 45.548078 104.67188 44.714844 C 103.99526 44.30983 102.96764 43.388725 102.38867 42.667969 C 101.53416 41.60441 100.66463 41.352629 97.769531 41.326172 C 94.684556 41.298808 94.137464 41.11981 93.720703 39.992188 C 93.071172 38.234934 91.219669 38.403957 87.736328 40.541016 C 85.660173 41.81483 84.17641 42.246474 81.820312 42.257812 C 79.820039 42.267639 78.779659 42.033704 78.962891 41.615234 C 79.385276 40.650964 78.801906 38.54179 77.992188 38.103516 C 77.606577 37.894772 76.524436 38.192788 75.585938 38.767578 C 73.298601 40.168536 68.428455 42.923828 68.240234 42.923828 C 68.157376 42.923828 68.744283 42.10073 69.542969 41.09375 C 70.662915 39.681794 70.921274 38.936082 70.673828 37.835938 C 70.497343 37.051345 69.840465 36.229293 69.214844 36.007812 C 67.862211 35.528795 65.700115 37.411513 61.048828 43.121094 C 58.001788 46.86139 57.889913 46.936591 56.800781 45.929688 C 55.891416 45.088969 55.654666 44.252472 55.541016 41.464844 C 55.410577 38.26502 55.318001 38.022456 54.132812 37.830078 C 53.434167 37.716617 52.861328 37.237537 52.861328 36.765625 C 52.861328 36.093512 55.261473 35.805373 63.947266 35.429688 C 70.044505 35.166254 75.033203 34.754932 75.033203 34.517578 C 75.033203 33.811714 47.968125 34.411446 42.59375 35.236328 C 39.867592 35.6551 37.499374 35.80458 37.332031 35.568359 C 37.164672 35.332177 36.945223 27.578269 36.84375 18.337891 C 36.742264 9.0974371 36.563259 1.1487891 36.447266 0.67578125 C 36.360281 0.32074188 36.022742 0.067924459 35.617188 0.01171875 z M 149.16992 0.55859375 C 148.42371 0.55859375 147.0918 2.3193269 147.0918 3.3046875 C 147.0918 3.687667 146.7278 4.4137675 146.2832 4.9199219 C 142.77014 8.9180951 134.01374 15.548955 132.23828 15.552734 C 131.64297 15.554586 128.48934 16.698084 125.23047 18.09375 C 119.03582 20.746789 116.91828 22.55415 117.16406 24.976562 C 117.27184 26.038685 117.62231 26.290375 118.91602 26.236328 C 121.68738 26.120334 128.53286 22.800236 134.00781 18.916016 L 137.76758 16.248047 L 138.50391 17.832031 C 138.90838 18.702986 139.24023 19.744935 139.24023 20.148438 C 139.24023 20.551713 138.19543 23.714856 136.91992 27.177734 C 134.80483 32.920008 133.17303 36.187464 126.65234 47.728516 C 124.43437 51.654198 123.98578 53.727132 125.0332 55.205078 L 125.03125 55.207031 C 125.34703 55.653129 126.12675 55.930865 126.76367 55.826172 C 127.75819 55.662178 127.92389 55.301305 127.9375 53.273438 C 127.94862 51.638678 128.37596 50.192499 129.32422 48.574219 C 130.07754 47.288612 131.71454 44.463237 132.96094 42.294922 L 135.22656 38.351562 L 136.04297 40.248047 C 137.22917 43.000337 140.4504 45.87935 143.62891 47.027344 C 145.15192 47.577341 147.74495 48.512725 149.39062 49.105469 C 152.12684 50.091018 156.53728 50.738229 166.82031 51.664062 L 170.61328 52.005859 L 170.91016 49.765625 L 171.20898 47.527344 L 172.83398 48.484375 C 173.72738 49.011279 174.94105 49.443359 175.5332 49.443359 C 176.79951 49.443359 178.76524 48.318112 180.25781 46.740234 C 181.26964 45.67025 181.3954 45.676687 182.83008 46.871094 C 186.3115 49.769462 193.24104 52.04417 195.81445 51.132812 C 196.57966 50.861858 196.97852 50.269127 196.97852 49.398438 C 196.97852 47.453568 195.67517 44.228516 194.88867 44.228516 C 194.51287 44.228516 194.20703 43.636518 194.20703 42.908203 C 194.20703 41.245438 195.85034 40.318359 198.79492 40.318359 L 201.01367 40.318359 L 201.27148 43.03125 C 201.41336 44.52371 201.92641 46.502456 202.41211 47.429688 C 203.49806 49.502796 206.34563 51.75827 208.57812 52.3125 C 209.85582 52.629716 210.50643 52.427386 211.34961 51.451172 C 212.24696 50.412218 212.35723 49.956295 211.94141 48.994141 C 211.58415 48.167482 210.61962 47.688264 208.72852 47.396484 C 206.58459 47.065814 205.80707 46.620619 204.9668 45.242188 C 204.38418 44.286458 203.90625 43.080409 203.90625 42.5625 C 203.90625 42.044705 204.32197 41.035374 204.83008 40.318359 C 205.49206 39.384325 206.37701 39.017198 207.94922 39.005859 C 209.15596 39.001022 210.6453 38.806282 211.25977 38.574219 C 212.20043 38.219057 212.32751 38.337485 212.05859 39.326172 C 211.3912 41.780219 212.12939 42.669795 215.88867 43.933594 C 217.89862 44.60926 219.45726 45.355198 219.35352 45.591797 C 219.24976 45.828698 218.22763 46.355899 217.08008 46.763672 C 215.483 47.33113 214.99219 47.808176 214.99219 48.798828 C 214.99219 49.510627 215.25276 50.122361 215.57031 50.160156 C 217.19368 50.345844 219.33032 49.878759 222.86523 48.568359 L 226.77148 47.121094 L 226.77148 44.925781 C 226.77148 42.780484 226.70426 42.704469 223.76953 41.546875 C 222.11819 40.895473 220.24646 40.329818 219.61133 40.287109 L 218.45703 40.210938 L 219.72266 39.419922 C 221.23328 38.474889 222.34873 36.548368 222.36914 34.847656 C 222.38256 33.720979 222.1329 33.652407 219.49609 34.052734 C 217.90827 34.293982 214.24612 34.674753 211.35742 34.900391 C 206.19889 35.302986 206.11383 35.287862 206.60156 34.001953 C 206.87469 33.281878 208.56361 31.001852 210.35352 28.935547 C 212.14342 26.869317 213.60742 24.831711 213.60742 24.40625 C 213.60742 23.288341 212.62242 22.068359 211.7207 22.068359 C 211.29341 22.068359 209.93206 23.384818 208.69531 24.994141 C 207.45856 26.603388 206.32168 27.922002 206.16797 27.925781 C 206.01424 27.929636 205.00341 29.713138 203.92188 31.888672 C 202.00876 35.737289 201.91018 35.834415 200.27539 35.445312 C 198.02554 34.909338 192.64144 37.248097 191.68359 39.177734 C 191.29326 39.964027 190.97266 41.861177 190.97266 43.394531 C 190.97266 46.430172 190.55045 46.773045 188.46094 45.429688 L 187.28906 44.677734 L 188.97266 42.625 C 190.36523 40.926518 190.60424 40.277672 190.35547 38.878906 C 189.92579 36.463108 188.0919 35.721749 185.19922 36.791016 C 183.212 37.525794 182.67408 37.503503 181.34375 36.638672 C 179.5372 35.464297 177.31845 35.843361 174.63477 37.783203 C 173.65156 38.493754 172.75044 38.935767 172.63086 38.767578 C 172.14082 38.076151 173.75827 34.725324 175.26758 33.306641 C 176.15676 32.470836 179.23378 28.684389 182.10547 24.892578 C 186.04103 19.696143 187.29321 17.656859 187.1875 16.611328 C 187.08241 15.571807 186.66732 15.173358 185.5332 15.019531 C 182.81622 14.650574 178.3164 19.630806 174.09375 27.679688 C 172.17365 31.339631 170.99759 32.844693 168.5 34.835938 C 163.75359 38.620152 161.36555 40.156156 159.44727 40.660156 C 158.07033 41.021895 157.71484 40.914142 157.71484 40.134766 C 157.71484 39.082318 156.77768 38.361328 155.4043 38.361328 C 153.97908 38.361328 151.76862 41.493893 151.4375 43.984375 C 151.13615 46.250882 151.11846 46.266927 149.25391 45.822266 C 146.62546 45.195658 142.67405 43.207778 140.78516 41.560547 C 139.90868 40.796213 138.88471 39.506928 138.50781 38.695312 C 137.97751 37.553253 137.93578 36.868776 138.32617 35.671875 C 138.6036 34.821255 139.59708 33.376188 140.53516 32.460938 C 142.201 30.835627 143.62589 30.007135 153.54492 24.888672 C 156.20469 23.516212 158.95764 21.707553 159.66406 20.869141 C 161.13027 19.128933 161.32969 16.831554 160.15625 15.175781 C 159.71983 14.559983 158.52437 13.517945 157.5 12.861328 C 156.07048 11.945019 154.48308 11.665635 150.67188 11.654297 C 147.94082 11.646398 145.70703 11.399957 145.70703 11.107422 C 145.70703 10.815 146.49688 9.9496284 147.46289 9.1835938 C 149.54295 7.5340189 150.56337 5.9920323 150.91211 3.9707031 C 151.18357 2.3972858 150.24481 0.55859375 149.16992 0.55859375 z M 153.9043 15.669922 C 155.01087 15.678974 155.68736 15.817824 156.10742 16.087891 C 156.73802 16.493283 157.25391 17.142878 157.25391 17.529297 C 157.25391 18.383168 151.59831 22.12537 145.9375 25.017578 C 143.65103 26.185792 141.41444 27.352367 140.96875 27.609375 C 140.27021 28.011819 140.31724 27.594718 141.31055 24.583984 C 141.9443 22.663002 142.46818 20.504086 142.47461 19.787109 C 142.49872 17.07458 143.10523 16.731559 149.12109 16.03125 C 151.26039 15.782047 152.79773 15.66087 153.9043 15.669922 z M 33.943359 37.058594 C 34.03216 37.062653 34.08555 37.073719 34.099609 37.09375 C 34.500574 37.664081 33.42697 49.16493 32.71875 51.886719 C 32.322172 53.410851 31.553225 55.097657 31.009766 55.634766 C 29.142382 57.480347 23.0398 56.414367 17.986328 53.359375 C 11.849538 49.649466 3.4375 43.213158 3.4375 42.228516 C 3.4375 41.816849 13.73764 39.967754 19.373047 39.367188 C 21.151409 39.177682 25.147355 38.522352 28.251953 37.912109 C 30.968476 37.378445 33.321752 37.030182 33.943359 37.058594 z M 252.30859 38.375 L 252.30859 43.503906 C 251.98134 42.93967 251.56662 42.520833 251.06445 42.25 C 250.56793 41.973524 249.97114 41.835938 249.27148 41.835938 C 248.12609 41.835938 247.19097 42.292969 246.46875 43.207031 C 245.75217 44.121094 245.39453 45.322917 245.39453 46.8125 C 245.39453 48.302083 245.75217 49.503906 246.46875 50.417969 C 247.19097 51.332031 248.12609 51.789062 249.27148 51.789062 C 249.97114 51.789063 250.56793 51.653646 251.06445 51.382812 C 251.56662 51.106337 251.98134 50.68533 252.30859 50.121094 L 252.30859 51.542969 L 253.86719 51.542969 L 253.86719 38.375 L 252.30859 38.375 z M 51.585938 38.851562 C 52.083461 38.847547 52.39012 38.894045 52.386719 38.990234 C 52.363471 39.641107 49.20601 44.151303 48.289062 44.84375 C 47.788294 45.221778 46.63831 45.53125 45.732422 45.53125 C 44.449979 45.53125 44.085938 45.271575 44.085938 44.351562 C 44.085937 43.701673 44.714538 42.318074 45.484375 41.277344 C 46.604578 39.763 47.435708 39.309546 49.642578 39.011719 C 50.400893 38.908916 51.088414 38.855578 51.585938 38.851562 z M 169.58594 39.25 C 169.68068 39.383682 169.54768 40.7788 169.29102 42.349609 C 169.03437 43.920457 168.81893 46.159255 168.8125 47.324219 C 168.80169 49.350688 168.72744 49.438933 167.07031 49.353516 C 164.18608 49.205018 159.56768 48.360314 159.25977 47.925781 C 158.82281 47.309227 160.03356 45.531779 160.89062 45.53125 C 161.30411 45.530985 163.39032 44.063408 165.52734 42.269531 C 167.66438 40.47573 169.49122 39.116583 169.58594 39.25 z M 179.16406 40.318359 C 180.35394 40.318359 179.98644 41.555401 178.38672 42.931641 C 176.82896 44.271861 174.58476 44.652936 174.14648 43.652344 C 173.87598 43.034731 177.96446 40.318359 179.16406 40.318359 z M 261.04297 41.835938 C 259.62109 41.835938 258.4911 42.292969 257.65039 43.207031 C 256.81532 44.115451 256.39648 45.344835 256.39648 46.896484 C 256.39648 48.397352 256.83659 49.588542 257.7168 50.46875 C 258.60265 51.348958 259.8023 51.789062 261.31445 51.789062 C 261.91819 51.789063 262.5128 51.727648 263.09961 51.603516 C 263.68641 51.479384 264.25977 51.297526 264.81836 51.060547 L 264.81836 49.587891 C 264.26541 49.881293 263.70681 50.101345 263.14258 50.248047 C 262.58398 50.394748 262.00629 50.46875 261.4082 50.46875 C 260.37565 50.46875 259.56749 50.189453 258.98633 49.630859 C 258.41081 49.066623 258.08919 48.24783 258.02148 47.175781 L 265.18164 47.175781 L 265.18164 46.414062 C 265.18164 45.003472 264.80924 43.890408 264.06445 43.072266 C 263.3253 42.248481 262.31814 41.835938 261.04297 41.835938 z M 266.62109 42.064453 L 270.17578 51.542969 L 272.29102 51.542969 L 275.8457 42.064453 L 274.19531 42.064453 L 271.23438 50.019531 L 268.27148 42.064453 L 266.62109 42.064453 z M 249.65234 43.138672 C 250.47613 43.138672 251.1237 43.46658 251.59766 44.121094 C 252.07161 44.769965 252.30859 45.667101 252.30859 46.8125 C 252.30859 47.957899 252.07161 48.857205 251.59766 49.511719 C 251.1237 50.16059 250.47613 50.486328 249.65234 50.486328 C 248.82856 50.486328 248.17904 50.16059 247.70508 49.511719 C 247.23676 48.857205 247.00195 47.957899 247.00195 46.8125 C 247.00195 45.667101 247.23676 44.769965 247.70508 44.121094 C 248.17904 43.46658 248.82856 43.138672 249.65234 43.138672 z M 261.06055 43.15625 C 261.82791 43.15625 262.44358 43.410156 262.90625 43.917969 C 263.37457 44.425781 263.61372 45.105035 263.625 45.957031 L 258.07227 45.966797 C 258.15126 45.075304 258.45161 44.383464 258.9707 43.892578 C 259.49544 43.401693 260.19162 43.15625 261.06055 43.15625 z M 240.78125 49.394531 L 240.78125 51.542969 L 242.56836 51.542969 L 242.56836 49.394531 L 240.78125 49.394531 z "
       transform="matrix(0.26458333,0,0,0.26458333,0,281)"
       id="path189" />
  </g>
</svg>
