<?xml version="1.0" encoding="UTF-8" standalone="no"?>
<!DOCTYPE svg PUBLIC "-//W3C//DTD SVG 20010904//EN"
              "http://www.w3.org/TR/2001/REC-SVG-20010904/DTD/svg10.dtd">

<svg xmlns="http://www.w3.org/2000/svg"
     width="3.0in" height="0.75in"
     viewBox="0 0 858 166">
  <path id="Selection"
        fill="black" stroke="white" stroke-width="1"
        d="M 53.00,31.04
           C 53.00,31.04 32.00,33.96 32.00,33.96
             32.00,33.96 24.00,33.96 24.00,33.96
             24.00,33.96 10.00,36.57 10.00,36.57
             5.32,37.10 -1.06,34.96 0.66,29.00
             2.31,23.25 7.37,23.47 12.00,22.79
             12.00,22.79 19.00,21.21 19.00,21.21
             19.00,21.21 35.00,19.58 35.00,19.58
             35.00,19.58 63.00,16.72 63.00,16.72
             63.00,16.72 83.00,13.29 83.00,13.29
             83.00,13.29 99.00,11.73 99.00,11.73
             99.00,11.73 111.00,9.14 111.00,9.14
             111.00,9.14 126.00,7.54 126.00,7.54
             126.00,7.54 146.00,3.42 146.00,3.42
             146.00,3.42 162.00,1.13 162.00,1.13
             162.00,1.13 169.42,1.13 169.42,1.13
             169.42,1.13 178.00,0.01 178.00,0.01
             182.71,-0.10 192.57,0.43 190.34,7.98
             189.83,9.71 188.50,11.12 186.94,11.98
             185.41,12.82 169.58,14.95 167.17,14.87
             167.17,14.87 163.72,14.87 163.72,14.87
             152.57,15.39 141.88,18.42 131.00,20.38
             131.00,20.38 116.00,22.14 116.00,22.14
             110.88,22.98 110.99,23.71 105.00,24.00
             108.60,31.71 110.29,42.62 112.37,51.00
             114.47,59.41 118.96,85.93 119.00,94.00
             119.00,94.00 119.00,109.00 119.00,109.00
             118.98,121.42 114.97,132.62 108.28,143.00
             99.43,156.72 89.05,165.97 72.00,166.00
             72.00,166.00 64.00,166.00 64.00,166.00
             45.29,165.97 27.26,159.68 14.11,145.91
             5.62,137.02 12.62,129.08 17.98,130.66
             22.84,132.08 21.90,136.90 32.00,143.29
             43.26,150.41 56.85,153.17 70.00,153.00
             75.63,152.92 75.96,152.50 81.00,150.33
             92.48,145.37 95.55,138.92 100.75,128.00
             112.30,103.72 101.78,69.32 96.83,44.00
             95.57,37.58 93.24,37.11 93.00,26.00
             93.00,26.00 53.00,31.04 53.00,31.04 Z
           M 384.39,114.00
           C 384.39,114.00 381.48,121.00 381.48,121.00
             380.66,123.76 380.99,124.85 379.59,128.00
             379.59,128.00 373.94,140.00 373.94,140.00
             371.91,145.24 369.03,153.64 363.00,155.34
             357.56,156.88 351.69,148.95 354.04,144.04
             355.23,141.54 358.12,139.79 360.00,136.91
             360.00,136.91 366.59,123.00 366.59,123.00
             366.59,123.00 368.81,115.00 368.81,115.00
             368.81,115.00 371.39,109.00 371.39,109.00
             376.96,92.79 379.14,75.76 382.26,59.00
             382.26,59.00 388.77,27.00 388.77,27.00
             389.20,21.85 387.69,18.87 388.77,16.00
             391.41,7.61 404.94,7.91 412.00,8.00
             426.87,8.20 441.18,17.60 447.62,31.00
             448.93,33.71 451.52,44.97 451.80,48.00
             452.13,51.44 449.71,61.89 448.15,65.00
             446.54,68.23 443.51,71.44 440.99,74.00
             431.12,83.99 424.22,86.44 411.00,90.00
             411.00,90.00 421.12,104.00 421.12,104.00
             429.10,118.41 429.18,130.14 429.00,146.00
             428.94,150.74 428.54,158.71 422.98,160.34
             415.37,162.59 414.80,152.76 415.42,148.00
             417.21,134.39 414.47,117.20 406.16,106.00
             400.86,98.86 398.22,95.24 389.00,95.00
             388.58,99.98 386.05,109.16 384.39,114.00 Z
           M 433.98,62.96
           C 438.54,56.32 438.38,46.43 436.12,39.00
             432.67,27.65 425.47,24.61 415.00,21.94
             412.32,21.16 405.91,20.19 403.60,21.94
             401.78,23.46 401.45,34.92 401.00,38.00
             401.00,38.00 398.24,49.00 398.24,49.00
             396.41,56.70 393.35,71.41 393.00,79.00
             404.63,78.89 427.20,72.85 433.98,62.96 Z
           M 511.00,73.00
           C 511.00,73.00 511.00,92.00 511.00,92.00
             525.77,87.80 535.82,94.27 536.00,110.00
             536.10,118.85 534.99,126.14 526.00,130.43
             521.83,132.42 511.71,132.31 507.00,131.83
             504.94,131.62 501.36,131.17 500.02,129.42
             498.76,127.77 499.00,124.04 499.00,122.00
             499.00,122.00 499.00,74.00 499.00,74.00
             499.00,74.00 511.00,73.00 511.00,73.00 Z
           M 769.00,73.00
           C 769.00,73.00 769.00,122.00 769.00,122.00
             769.00,123.99 769.26,127.67 768.01,129.28
             765.38,132.65 754.10,132.05 750.00,132.00
             738.16,131.85 731.30,124.83 731.01,113.00
             730.62,96.65 739.28,87.25 756.00,92.00
             756.00,92.00 756.00,74.00 756.00,74.00
             756.00,74.00 769.00,73.00 769.00,73.00 Z
           M 632.00,80.00
           C 632.00,80.00 632.00,92.00 632.00,92.00
             632.00,92.00 645.00,92.00 645.00,92.00
             645.00,92.00 645.00,101.00 645.00,101.00
             645.00,101.00 632.00,101.00 632.00,101.00
             632.00,106.75 629.86,119.99 637.02,121.67
             639.31,122.21 642.67,121.42 645.00,121.00
             645.00,121.00 647.00,130.00 647.00,130.00
             641.63,132.24 639.70,132.07 634.00,132.00
             629.92,131.94 626.47,131.69 623.39,128.61
             617.37,122.59 619.00,100.67 619.00,92.00
             619.00,92.00 619.00,81.00 619.00,81.00
             619.00,81.00 632.00,80.00 632.00,80.00 Z
           M 485.78,97.04
           C 494.55,107.00 491.69,127.22 478.00,131.35
             471.78,133.23 462.08,132.19 457.18,127.66
             447.84,119.03 447.65,97.81 464.00,91.64
             472.17,90.00 479.93,90.41 485.78,97.04 Z
           M 561.00,132.00
           C 556.57,131.94 553.83,131.54 550.03,129.03
             538.90,121.72 539.32,101.31 550.03,93.85
             558.09,88.25 574.73,89.56 578.78,102.00
             580.23,106.45 580.00,110.41 580.00,115.00
             580.00,115.00 554.00,115.00 554.00,115.00
             557.33,119.29 559.26,121.67 565.00,121.99
             567.57,122.08 573.61,120.82 575.26,121.99
             576.86,123.20 577.49,127.98 578.00,130.00
             570.60,132.40 568.65,132.10 561.00,132.00 Z
           M 607.00,91.00
           C 607.00,91.00 612.98,92.60 612.98,92.60
             612.98,92.60 612.98,102.00 612.98,102.00
             612.98,102.00 600.00,101.00 600.00,101.00
             600.00,101.00 600.00,131.00 600.00,131.00
             600.00,131.00 588.00,131.00 588.00,131.00
             588.00,131.00 588.00,93.00 588.00,93.00
             588.00,93.00 607.00,91.00 607.00,91.00 Z
           M 654.01,111.66
           C 649.05,104.99 651.85,94.22 660.00,91.82
             665.02,90.07 674.71,91.30 680.00,91.82
             680.00,91.82 678.00,102.00 678.00,102.00
             678.00,102.00 664.00,101.00 664.00,101.00
             664.00,101.00 664.00,105.00 664.00,105.00
             668.09,105.58 674.66,106.85 677.86,109.51
             684.26,114.82 682.66,125.76 675.96,130.00
             669.96,133.78 656.48,132.10 650.00,130.00
             650.00,130.00 652.00,120.00 652.00,120.00
             659.69,121.55 661.94,122.96 670.00,121.00
             662.20,114.79 657.42,116.26 654.01,111.66 Z
           M 795.00,132.00
           C 790.57,131.94 787.83,131.54 784.03,129.03
             772.90,121.72 773.32,101.31 784.03,93.85
             792.09,88.25 808.73,89.56 812.78,102.00
             814.23,106.45 814.00,110.41 814.00,115.00
             814.00,115.00 788.00,115.00 788.00,115.00
             791.33,119.29 793.26,121.67 799.00,121.99
             801.57,122.08 807.61,120.82 809.26,121.99
             810.86,123.20 811.49,127.98 812.00,130.00
             804.60,132.40 802.65,132.10 795.00,132.00 Z
           M 160.89,94.65
           C 163.09,96.34 164.37,98.38 165.20,101.00
             166.59,105.42 166.00,125.97 166.00,132.00
             158.64,132.60 142.32,134.89 136.19,130.77
             129.69,126.41 128.81,115.08 137.02,110.01
             141.49,107.24 148.79,108.00 154.00,108.00
             151.36,99.33 143.05,102.07 136.00,103.00
             136.00,103.00 135.00,93.00 135.00,93.00
             141.85,92.10 155.20,90.28 160.89,94.65 Z
           M 175.00,102.00
           C 175.00,99.96 174.76,96.23 176.02,94.58
             177.36,92.83 180.94,92.38 183.00,92.17
             194.32,91.01 200.70,93.51 203.00,93.51
             206.38,93.51 206.96,91.79 216.00,92.01
             231.03,92.38 230.00,103.78 230.00,115.00
             230.00,115.00 230.00,132.00 230.00,132.00
             230.00,132.00 218.00,132.00 218.00,132.00
             218.00,132.00 218.00,113.00 218.00,113.00
             217.95,109.56 217.89,103.99 213.87,102.66
             211.14,101.75 209.09,103.33 208.87,106.06
             208.87,106.06 208.87,132.00 208.87,132.00
             208.87,132.00 196.00,132.00 196.00,132.00
             196.00,132.00 196.00,112.00 196.00,112.00
             195.96,109.42 196.00,106.42 194.26,104.31
             192.32,101.96 189.75,102.10 187.00,102.00
             187.00,102.00 187.00,132.00 187.00,132.00
             187.00,132.00 175.00,132.00 175.00,132.00
             175.00,132.00 175.00,102.00 175.00,102.00 Z
           M 257.00,133.00
           C 252.57,132.94 249.83,132.54 246.03,130.03
             234.90,122.72 235.32,102.31 246.03,94.85
             254.09,89.25 270.73,90.56 274.78,103.00
             276.23,107.45 276.00,111.41 276.00,116.00
             276.00,116.00 250.00,116.00 250.00,116.00
             253.33,120.29 255.26,122.67 261.00,122.99
             263.57,123.08 269.61,121.82 271.26,122.99
             272.86,124.20 273.49,128.98 274.00,131.00
             266.60,133.40 264.65,133.10 257.00,133.00 Z
           M 285.01,112.66
           C 280.05,105.99 282.85,95.22 291.00,92.82
             296.02,91.07 305.71,92.30 311.00,92.82
             311.00,92.82 309.00,103.00 309.00,103.00
             309.00,103.00 295.00,102.00 295.00,102.00
             295.00,102.00 295.00,106.00 295.00,106.00
             299.09,106.58 305.66,107.85 308.86,110.51
             315.26,115.82 313.66,126.76 306.96,131.00
             300.96,134.78 287.48,133.10 281.00,131.00
             281.00,131.00 283.00,121.00 283.00,121.00
             290.69,122.55 292.94,123.96 301.00,122.00
             293.20,115.79 288.42,117.26 285.01,112.66 Z
           M 829.44,93.02
           C 829.44,93.02 832.66,100.00 832.66,100.00
             832.66,100.00 838.00,116.00 838.00,116.00
             838.00,116.00 845.00,92.00 845.00,92.00
             845.00,92.00 858.00,92.00 858.00,92.00
             856.15,100.09 850.77,114.18 847.42,122.00
             845.45,126.60 844.63,130.47 838.99,130.94
             831.05,131.60 830.19,127.45 827.43,121.00
             827.43,121.00 817.00,92.00 817.00,92.00
             817.00,92.00 829.44,93.02 829.44,93.02 Z
           M 469.04,121.67
           C 480.49,124.20 482.44,98.93 468.11,101.60
             460.74,106.26 462.26,120.17 469.04,121.67 Z
           M 518.89,121.26
           C 524.93,118.69 525.63,106.50 520.72,102.60
             518.39,100.74 513.15,100.16 511.60,103.31
             511.01,104.52 511.03,106.66 511.00,108.00
             511.00,108.00 511.00,122.00 511.00,122.00
             513.27,121.99 516.84,122.14 518.89,121.26 Z
           M 555.00,107.00
           C 555.00,107.00 568.00,107.00 568.00,107.00
             565.21,99.10 557.46,98.91 555.00,107.00 Z
           M 756.00,108.00
           C 755.97,106.66 755.99,104.52 755.40,103.31
             753.88,100.21 748.70,100.68 746.42,102.60
             741.44,106.78 742.24,118.74 749.04,121.40
             750.87,122.12 754.00,121.99 756.00,122.00
             756.00,122.00 756.00,108.00 756.00,108.00 Z
           M 789.00,107.00
           C 789.00,107.00 802.00,107.00 802.00,107.00
             799.21,99.10 791.46,98.91 789.00,107.00 Z
           M 251.00,108.00
           C 251.00,108.00 264.00,108.00 264.00,108.00
             261.21,100.10 253.46,99.91 251.00,108.00 Z
           M 144.20,120.00
           C 144.20,123.64 151.68,123.00 154.00,123.00
             154.00,123.00 154.00,117.00 154.00,117.00
             151.68,117.00 144.20,116.36 144.20,120.00 Z
           M 714.85,138.60
           C 719.75,142.26 719.21,152.31 712.00,155.98
             706.09,158.98 696.86,155.38 697.19,148.00
             697.39,143.53 700.61,140.40 704.01,138.02
             707.41,136.88 711.74,136.27 714.85,138.60 Z" />
</svg>
